<?xml version="1.0" encoding="UTF-8" standalone="no"?>
<!-- Generator: Adobe Illustrator 22.0.1, SVG Export Plug-In . SVG Version: 6.00 Build 0)  -->

<svg
   xmlns:dc="http://purl.org/dc/elements/1.1/"
   xmlns:cc="http://creativecommons.org/ns#"
   xmlns:rdf="http://www.w3.org/1999/02/22-rdf-syntax-ns#"
   xmlns:svg="http://www.w3.org/2000/svg"
   xmlns="http://www.w3.org/2000/svg"
   xmlns:sodipodi="http://sodipodi.sourceforge.net/DTD/sodipodi-0.dtd"
   xmlns:inkscape="http://www.inkscape.org/namespaces/inkscape"
   version="1.1"
   id="Layer_1"
   x="0px"
   y="0px"
   viewBox="0 0 341.4 300.4"
   style="enable-background:new 0 0 341.4 300.4;"
   xml:space="preserve"
   sodipodi:docname="logo.svg"
   inkscape:version="0.92.2 (5c3e80d, 2017-08-06)"><metadata
     id="metadata3755"><rdf:RDF><cc:Work
         rdf:about=""><dc:format>image/svg+xml</dc:format><dc:type
           rdf:resource="http://purl.org/dc/dcmitype/StillImage" /><dc:title></dc:title></cc:Work></rdf:RDF></metadata><defs
     id="defs3753" /><sodipodi:namedview
     pagecolor="#ffffff"
     bordercolor="#666666"
     borderopacity="1"
     objecttolerance="10"
     gridtolerance="10"
     guidetolerance="10"
     inkscape:pageopacity="0"
     inkscape:pageshadow="2"
     inkscape:window-width="1600"
     inkscape:window-height="837"
     id="namedview3751"
     showgrid="false"
     inkscape:zoom="2.2237018"
     inkscape:cx="170.7"
     inkscape:cy="150.2"
     inkscape:window-x="-8"
     inkscape:window-y="-8"
     inkscape:window-maximized="1"
     inkscape:current-layer="Layer_1" /><style
     type="text/css"
     id="style3728">
	.st0{fill:#231F20;}
</style><g
     id="g3748"><path
       class="st0"
       d="M0,181.1c4.7-29,10.8-57.5,32-80c-10.7-7.2-14.3-18.8-18.8-29.7c-4.6-11.2-7-23.1-5.3-35.2   C9.3,25.9,12.2,15.8,15,5.7c0.6-2.2,3.5-4.8,5.7-5.1c2.1-0.3,4.8,1.9,6.9,3.4c3.8,2.7,7.1,6.1,11,8.6c7.9,5,16,9.6,24.2,14   c1.7,0.9,4.2,1.2,6.1,0.6c16.3-5.1,32.6-10.5,48.9-15.7c19.9-6.4,40.2-10.9,61.3-9.3c19.2,1.4,37.6,6.9,55.7,13.1   c12.7,4.3,25.6,8.2,38.5,12.1c1.4,0.4,3.4,0.3,4.6-0.4c10.7-6.4,21.4-12.9,31.9-19.5c1.6-1,3-2.6,4.2-4.2c3.8-4.9,9.7-4.4,12.1,1.5   c9.1,22.5,10.9,45.2,1.5,68c-2.9,7-6.6,13.8-10.4,20.4c-1.7,2.9-4.7,5.1-7.1,7.7c7.8,11.8,17.7,23.3,21.6,38.1   c3.8,14.3,7.2,28.6,9.7,43.6c-9.8-8.7-19.7-17.5-30.5-27.2c0.2,2.1-0.1,3.6,0.4,4.2c8.3,8,9.1,18.1,9,28.9   c-0.2,20.2-2.1,40.2-6.4,60c-0.6,2.7-2.6,5.9-5,7.2c-3.5,1.9-6-1.3-8.2-3.9c-3.6-4.3-7.4-8.5-11.5-13.1   c-6.1,9.1-11.9,17.7-17.7,26.3c-5,7.4-7.1,7.6-15.2,4.1c-3-1.3-7.4-1.3-10.4-0.1c-24.3,9.7-48.5,19.8-72.6,30.1   c-4.2,1.8-7.2,1.6-10.9-0.4c-21.4-11.8-43.7-21.8-66.8-29.9c-4.2-1.5-8-1.4-11.9,0.8c-4.8,2.9-8.9,2-12.1-2.6   c-6.4-9.3-12.7-18.7-19.4-28.7c-4.2,4.8-8,9.6-12.3,13.9c-1.8,1.8-4.9,3.6-7,3.1c-2-0.5-4.4-3.5-4.9-5.8   c-5.6-23.5-7.3-47.3-6.7-71.4c0.2-7.3,4.3-12.3,8-17.7c0.7-1,1.1-2.3,1.6-3.5c-0.4-0.3-0.8-0.5-1.2-0.8c-9.5,8.4-19,16.8-28.5,25.2   C0.8,181.4,0.4,181.3,0,181.1z M75.1,48.3c-0.4-0.2-0.8-0.5-1.2-0.7c-9.3-5.5-18.6-10.9-27.8-16.3C38.7,27,31.4,22.6,23.7,18   c-3.1,8.8-4.6,17.5-4.1,26.4c1,18.3,8.8,34,19.1,48.7c2,2.9,2.8,6.8,3.9,9.8c6.5-2.2,14.2-5,22.1-7.5c2.5-0.8,6-0.9,6.3,2.7   c0.1,1.7-1.9,4.3-3.7,5.3c-8.6,5.1-17.6,9.4-26,14.7c-15,9.6-26.6,21.8-28.5,40.9c4-3,8-5.9,11.9-9c5.8-4.4,11.1-9.9,18.9-10.1   c2.1-0.1,4.6,1.5,6.1,3c0.5,0.6-1,3.8-2.2,5.2c-5.8,6.9-12,13.9-13.2,22.9c-2.9,21.7-0.4,43.2,3.1,65.5c3.6-3.8,6.9-6.9,9.6-10.4   c1-1.4,1.5-3.9,1.1-5.6c-2-8-4.7-15.8-6.5-23.8c-0.6-2.7-0.2-7,1.5-8.5s5.7-0.4,8.7-0.1c1.2,0.1,2.3,1.2,3.6,1.6   c6.5,1.7,13,3.3,19.9,5.1c0.1-2.7,0.5-4.2,0.3-5.6c-1.3-8.5-2.9-17-4.2-25.5c-0.7-4.2-1.6-8.6-1.3-12.8c0.3-4.9,3.7-6.2,7.7-3.4   c3.4,2.4,6.7,4.9,9.9,7.6c9.5,7.9,20.4,11.2,32.8,10.9c10.5-0.3,21.7-13.3,19.5-23.5c-1-4.5-2.1-8.9-3.6-13.2   c-4.1-11.5,0.7-20.8,7.1-29.6c2.9-4,8.5-3,9.6,1.8c0.6,2.3-0.3,5.5-1.7,7.7c-4.7,7.6-6,15.4-3.2,23.9c1.4,4.2,2.6,8.5,3.8,12.8   c1.6,6.4-2,15.2-7.3,19c-3.2,2.3-6.3,4.9-8.8,8c-3.5,4.2-6,9.1-9.5,13.2c-3.9,4.7-8.5,8.8-12.8,13.2c0.3,0.5,0.6,0.9,1,1.4   c1.4,0.1,2.9-0.1,4.2,0.3c1.3,0.5,2.3,1.6,3.4,2.5c-1.2,0.6-2.3,1.5-3.5,1.7c-1.8,0.3-3.7,0.1-5.5-0.1c-3.8-0.4-5.7,1.4-6.8,5   c2.7,0.5,5.1,0.9,7.5,1.4c-0.1,3.9-0.4,4-5.8,3.6c-7.4-0.7-9.2,0.8-10.2,9.1c5.3,0,10.6-0.1,15.8,0.1c1.3,0.1,2.5,1.2,3.8,1.8   c-1.3,0.7-2.5,1.9-3.8,2c-5.1,0.2-10.2,0.1-15.4,0.1c1.8,8.9-0.3,7.9,8.4,8c6.5,0,13-0.1,19.5,0.1c1.4,0,2.7,1.3,4.1,2   c-1.5,0.6-3,1.7-4.5,1.7c-7.9,0.2-15.7,0.1-23.8,0.1c2.4,8.2,2.8,8.4,10.4,8.6c2.1,0.1,5.6-1.4,5.7,3.3c-2.8,0.2-5.3,0.3-8.6,0.5   c1.3,1.5,2,2.6,2.9,3.4c9.4,8.1,20.3,12,32.6,10.4c5.4-0.7,10.9-2.5,15.8-4.9c4.5-2.2,4.4-5.7,1-9.2c-2.3-2.4-4.4-5-6.7-7.4   s-2.5-4.6-0.7-7.6c0.7-1.2,0.7-3.9-0.1-4.8c-0.8-0.9-3.2-0.4-4.8-0.4c-2.3-0.1-4.9,0.5-6.7-0.4c-3.1-1.5-5.7-4-8.4-6.2   c-3.2-2.6-3-7.1,0.7-9c3.4-1.7,6.9-3.4,10.4-4.7c4.4-1.6,8.6-1.3,12.6,1.8c10.1,7.7,16.2,7.7,26.4,0.1c3.9-2.9,7.8-4.3,12.5-2.3   c3.9,1.7,7.9,3.4,11.6,5.6c1.2,0.7,2,2.8,2,4.3c0,2.9-11.3,12.1-14.1,11.9c-0.8-0.1-1.5-0.8-2.3-0.8c-1.9-0.1-3.8,0-5.7,0.1   c0.2,1.7-0.2,3.6,0.6,5.1c1.4,2.7,1.4,4.9-0.7,7.2c-1.4,1.4-2.7,3-4,4.4c-3.8,3.9-4.1,7-0.5,11.1c2.2,2.4,4.9,4.6,7.9,5.8   c7.1,3,14.6,3.4,21.9,1.1c8.7-2.7,16.3-7.3,23.2-14.9c-5.2,0-9.2,0-13.2,0c-0.2-0.4-0.4-0.8-0.6-1.1c1-0.7,2-2,3.1-2.1   c2.6-0.3,5.3-0.3,8-0.1c7.3,0.6,8.4-0.3,10-8.6c-9.7,0-19.3,0.1-28.9-0.1c-1.3,0-2.6-1.1-4-1.7c1.2-0.7,2.4-2,3.6-2.1   c10-0.2,20-0.1,30.2-0.1c0-2.3,0-5.1,0-8c-6.1,0-11.7,0.2-17.1-0.1c-1.4-0.1-2.7-1.5-4-2.3c0.3-0.5,0.6-1.1,0.8-1.6   c6.4,0,12.8,0,19.4,0c-0.9-5.6-3-9.1-9.1-8c-1.1,0.2-2.4,0.3-3.5-0.1c-1.2-0.4-2.1-1.4-3.2-2.1c1-0.6,1.9-1.5,3-1.7   c1.7-0.3,3.5-0.1,5.7-0.1c-2.2-4.4-4.7-6.9-9.3-5.9c-2.1,0.5-4.9,2.2-5.5-1.4c-0.1-0.6,3.4-1.8,5.2-2.7c0.3-0.1,0.5-0.4,1.7-1.4   c-4.8-5-9.6-9.9-14.3-14.8c-1-1.1-2-2.2-2.7-3.5c-3.6-7.1-8.8-12.8-15.3-17.4c-4.6-3.2-6.2-8.4-6.2-13.4c0-5.9,1.3-11.8,2.7-17.6   c2.4-9.4,1.7-18-4.3-26c-2.4-3.3-1.8-6.8,1.5-9.3c3.5-2.7,6.2-0.9,8.4,2.2c7.7,10.8,10.5,22.7,6.2,35.5c-2.1,6.4-2,12.3-0.3,18.6   c1.5,5.5,7.7,10.8,13.3,11c11.7,0.4,22.9-0.7,32.4-8.7c3.6-3,7.3-5.8,11.3-8.3c2.1-1.3,5.8-3.1,6.8-2.3c1.8,1.5,3,4.8,2.8,7.3   c-0.3,5.1-1.6,10.1-2.7,15.2c-1.6,7.9-3.5,15.8-2.4,24c8.1,0.7,15.2-1.3,22.2-4.1c3-1.2,7.7-2.2,9.5-0.8c1.9,1.6,1.4,6.2,1.8,9.5   c0.1,0.4-0.4,0.9-0.5,1.4c-2.1,7.4-4.3,14.8-6.3,22.3c-0.3,1.2-0.5,3.2,0.2,3.9c3.3,3.6,6.9,7,10.5,10.6c0.5-1.7,1.2-3.1,1.2-4.5   c1.1-15.9,2.1-31.8,3.1-47.7c0.9-14.4-5.3-25.9-14.9-36.1c-1.1-1.2-2.1-3.8-1.6-5c0.6-1.3,3-2.2,4.8-2.5c5.7-0.9,10.2,2.1,14.5,5.3   c5.9,4.4,11.7,9,18.8,14.5c-2.5-7.5-4.4-13.6-6.6-19.6c-0.6-1.7-1.5-3.3-2.7-4.6c-12.7-14-27.9-24.5-45.3-32   c-2.8-1.2-6.2-2.1-5-6.1c1.2-4.1,4.8-2.9,7.6-2.3c3.1,0.6,6.1,1.5,9.1,2.7c4.3,1.6,8.4,3.6,11.7,5c1-3,1.4-6.3,3.1-8.6   c10.6-14.4,18.1-30,20.1-47.9c1.1-9.8-1-19.2-4-28.2c-13.5,7.5-26.7,15.1-40,22.5C265,48.2,252.9,55.9,243,66.7   c-2.1,2.3-2.3,4-0.1,5.8c2.7,2.2,5.6,4.1,8.5,5.9c3.8,2.3,5,5.4,3,8.6c-2.2,3.5-5.6,4.6-9,2.1c-4.8-3.5-9.5-7.3-13.4-11.7   c-4.4-5-4.4-10.2-0.1-15.5c4.3-5.2,9.2-10,14.3-14.6c4-3.6,8.7-6.5,13.6-10.1c-14.4-5-28.2-9.9-42-14.5c-26.1-8.7-52.7-12-79.5-4.2   c-16.8,4.9-33.2,10.8-49.8,16.3c-2.1,0.7-4.2,1.4-7.1,2.4c2.3,1.6,3.9,2.5,5.3,3.7c7.5,6.7,15.2,13.4,22.5,20.4   c3.3,3.2,4.5,7.7,2.5,12c-3.5,7.7-9.8,13-17.5,16.4c-3.2,1.4-6-0.1-7.5-3.2s-1-5.7,2.3-7.6c2.7-1.5,5.4-3.2,7.9-5.1   c3-2.4,4-5.7,0.7-8.4C90.2,59.5,82.6,53.9,75.1,48.3z M84.7,183.4c-0.7,6-1.3,10.1-1.6,14.2c-0.3,4.2-2.2,5.1-6.2,4.3   c-6.1-1.2-12.4-2.1-18.6-2.5c-1.7-0.1-4.2,1.5-5,3c-0.7,1.3,0,4.1,1.1,5.3c7.5,8.8,11,19.1,14,30.2c4.8,17.7,12.1,23.7,28.7,22.4   c4.5-0.4,6-3,3.9-7c-2.3-4.2-4.4-8.6-6.9-12.7c-5.3-8.5-5.7-17.6-0.9-26c5-8.7,11.7-16.3,17.5-24.5c3-4.1,6.2-8.2,8.7-12.6   c1.6-2.8-1.3-6.9-4-6.1c-10.9,3-19.7-0.1-27.3-8.1c-1-1.1-4.5-0.9-6,0.1c-1,0.6-1.1,3.7-0.8,5.5C82.2,174.3,83.7,179.6,84.7,183.4z    M262,204c-2.3-11.1-4.7-22.8,1-34.3c1.3-2.6,1.2-5.2-1.5-6.3c-1.7-0.6-4.1,0.3-6,0.9c-1,0.3-1.7,1.6-2.5,2.4   c-5.3,4.8-11.5,7.1-18.6,6.6c-3.3-0.3-7.1-3-9.5,1c-2.6,4.4,1.7,7.3,3.5,10.6c0.6,1.1,1.7,2,2.6,3c4.8,5.7,9.9,11.2,14.3,17.2   c6.7,8.9,11,18.8,7.6,30.1c-1.8,5.8-4.9,11.2-7.7,16.6c-1.7,3.2-1.1,5.4,2,7c7.1,3.5,21.6-2,24.5-9.3c1.5-3.8,3-7.7,3.8-11.6   c2.2-10.3,5.2-20,12.1-28.3c2.7-3.3,0.5-7.2-3.7-7C276.8,202.6,269.7,203.4,262,204z M134.1,275.4c6.2,7.1,11,10.5,19.6,12.9   c9,2.4,17.2,7.6,27.6,2.3c8-4.1,17.5-5.5,23.9-13.1c-1.7-1.5-3.1-2.8-4.5-4.1c-9.1,8.1-19.5,11.2-31.3,11s-22-4-30.5-12.4   C137.3,273.2,135.9,274.2,134.1,275.4z M182.3,225.3c-7.1,3.6-15.3,3.8-24.6-1c4.1,4.9,6.6,8.7,4.8,13.9c-0.3,0.8,0.4,2.2,1.1,2.9   c1.7,2,3.6,3.9,5.6,5.7c0.8,0.7,2.7,1.5,2.9,1.2c2.8-3.5,6-6.8,7.8-10.8C181.5,233.7,181.6,229.4,182.3,225.3z M144.5,222.8   c4.5,0.4,8,0.7,11.8,1.1C152.9,220.7,149.7,218.6,144.5,222.8z M196.8,222.9c-4.4-4.5-7.4-1.9-11,1.1   C189.9,223.5,193.4,223.2,196.8,222.9z"
       id="path3730" /><path
       class="st0"
       d="M75.1,48.3c-0.3,3.1-0.5,6.1-1,9.2c-1.3,8.9-2.7,17.7-4,26.5c-0.2,1.5-0.1,3.1-0.7,4.4   c-0.8,1.7-1.8,3.9-3.2,4.4c-1.5,0.5-4-0.4-5.3-1.5c-6.2-5.5-12.1-11.3-18.2-17c-2.6-2.5-4.8-5.4-9.1-5.3c-1.1,0-3.1-2.3-3.2-3.7   c-0.1-1.6,1.1-4.1,2.5-4.8c3.5-1.8,7.4-3.1,11.2-3.8c1.6-0.3,4.9,1.5,5.1,2.6c0.9,7.3,7.5,9.6,11.8,14.2c0.3-5.8,5.4-11.2,0.3-17.3   c-1.9-2.2-0.7-5,2.2-5.9c3.4-1.2,7-1.9,10.4-2.9C74.3,47.8,74.7,48,75.1,48.3z"
       id="path3732" /><path
       class="st0"
       d="M236.4,108.3c9.8,0.5,19.9,6.2,26.9,17.3c0.9,1.4,1.7,3,2.9,4c2.7,2.2,5.5,1.3,6-2.1c0.5-2.8,1.9-4.9,4.5-3.8   c1.8,0.7,3.8,3.4,3.9,5.3c0.3,5.6-5.6,10.6-11.8,10.3c-6.8-0.3-12.4,2.1-17.1,7c-11.1,11.8-23.8,12-35.3,0.8   c-9.4-9.1-10.2-12-6-22.1C215.2,113.4,222.2,108.2,236.4,108.3z M256.6,131.9c-4.5-8.4-11.3-13.7-21.2-15   c-9.2-1.3-19.2,7.7-18.6,16.9c0,0.6,0.3,1.3,0.6,1.9c6.4,12.2,18.9,14.2,28.9,4.8C249.5,137.6,252.9,135,256.6,131.9z"
       id="path3734" /><path
       class="st0"
       d="M107.9,153.3c-6.3,0.4-11.5-2.2-15.6-6.5c-6-6.5-12.8-9.8-21.8-9.6c-5.6,0.1-10.2-5.3-9.3-10.7   c0.3-1.6,2.2-3.5,3.8-4c2.4-0.8,3.8,0.6,4.1,3.5c0.4,4,3.4,5,6.6,2.2c2.4-2.2,4.4-4.9,6.3-7.6c7.2-10.5,23-16.1,34.7-12.2   c8.9,2.9,18.2,17.3,16.4,26.4c-0.6,2.8-3.1,5.4-5,7.8C122,149.8,115.4,153.3,107.9,153.3z M84.8,130.4c4.3,3.7,8.4,7,12.3,10.5   c5.6,5,11.5,6.4,17.1,2.7c3.8-2.5,6.9-6,10.2-9.2c0.7-0.7,0.9-2.2,0.7-3.2c-3.8-13.9-9.6-18.7-23.4-15.2   C93.5,118.1,88.6,124,84.8,130.4z"
       id="path3736" /><path
       class="st0"
       d="M189.2,87c-2.9-1.4-6.6-2.8-9.9-4.9c-4.2-2.8-8.1-2.8-12.6-0.7c-4.3,2-8.8,4-13.5,4.9   c-6.6,1.3-12-1.7-16.2-6.8c-4.8-5.9-8.4-12.9-17-14.6c-1-0.2-2-3.4-1.7-5c0.1-1,3-2.6,4-2.3c3.8,1.4,7.8,3,10.9,5.5   c3.7,3,6.5,7.1,9.7,10.7c4.7,5.3,8.2,6,14.6,2.9c2.3-1.1,4.5-2.2,6.7-3.3c6.5-3.3,12.7-2.9,18.8,1.3c6.9,4.8,9.4,4.6,16.1-0.6   c6-4.7,11.8-9.8,17.8-14.6c1.5-1.1,3.5-2.2,5.2-2.2c3.3,0,5.2,4,2.8,6c-9.3,7.5-18.8,14.8-28.4,21.9   C194.9,86.3,192.4,86.2,189.2,87z"
       id="path3738" /><path
       class="st0"
       d="M282.7,73.7c4.1-5.5,11-7.2,11.8-14.7c0.1-1.2,3.6-3.1,5.3-2.9c3.5,0.4,7.2,1.7,10.3,3.4   c1.6,0.9,3.1,3.6,3,5.3c-0.1,1.4-2.6,2.7-4.3,3.8c-1.4,0.9-3.4,1.1-4.6,2.2c-6.5,5.9-12.8,12.1-19.5,17.9c-2,1.7-5.2,2.9-7.7,2.7   c-1.2-0.1-2.4-4.1-2.9-6.4c-2.1-10.7-4-21.4-6-32.1c-0.6-3.3,0.3-6,4.2-5.4c3,0.4,6.3,1.2,8.8,2.7c1.2,0.7,2.1,4.9,1.4,5.4   c-3.9,3.3-1.8,7-1.5,10.5C281.4,68.2,282.1,70.4,282.7,73.7z"
       id="path3740" /><path
       class="st0"
       d="M186.5,52.2c-4.1-1.5-7.5-2.4-10.5-4.1c-4.2-2.4-8-2.6-12.2-0.4c-5.9,3.1-12,3-17.3-1.1c-1.3-1-1.4-3.5-2-5.3   c1.9-0.6,4.5-2.3,5.6-1.6c4.4,2.6,8.3,1.9,12.3-0.2c5.5-2.9,10.8-2.7,16.1,0.5c4.9,2.9,9.6,4.2,14.6-0.3c0.9-0.8,4.6-0.2,5.4,0.9   c0.9,1.2,0.5,4.7-0.5,5.5C194.4,48.5,190.3,50.2,186.5,52.2z"
       id="path3742" /><path
       class="st0"
       d="M244.1,133.6c-2.5,3.1-3.8,6.5-6.1,7.4c-3.7,1.4-6-1.8-7.4-4.9c-1.7-3.8-2.2-7.9,0.7-11.2   c1.1-1.2,4.8-1.9,5.6-1.1C239.5,126.3,241.3,129.7,244.1,133.6z"
       id="path3744" /><path
       class="st0"
       d="M113.1,129.4c0,5.5-3.6,10.4-7.4,10.2c-4.5-0.2-5-4-5.4-7.2c-0.5-4.7,3.8-10.4,7.4-10.5   C110.9,121.8,113.1,124.8,113.1,129.4z"
       id="path3746" /></g><path
     style="fill:#0000ff;stroke-width:0.44970059"
     d="m 165.40169,299.73494 c -0.81172,-0.24605 -3.54365,-1.5769 -6.07096,-2.95744 -16.71446,-9.13027 -39.33899,-19.31403 -58.143,-26.17134 -10.11931,-3.69025 -11.776021,-3.77613 -18.226872,-0.94483 -3.435088,1.50767 -5.21087,1.64933 -7.436438,0.59323 -2.10964,-1.00109 -3.151785,-2.37588 -13.845463,-18.26483 -5.118744,-7.60557 -9.374,-13.8283 -9.456129,-13.8283 -0.08213,0 -2.474135,2.68436 -5.315564,5.96525 -6.000948,6.92905 -8.770055,9.59095 -10.905306,10.48312 -2.451789,1.02442 -3.362384,0.79872 -5.413347,-1.34179 -1.728116,-1.80356 -2.001529,-2.42111 -3.03625,-6.85793 -2.257372,-9.67947 -3.929597,-20.5725 -5.063205,-32.98218 -0.916146,-10.02911 -1.361794,-34.45086 -0.693117,-37.98307 0.661208,-3.49275 2.44759,-7.25016 5.859104,-12.32381 2.962999,-4.40661 3.742816,-6.49595 2.589677,-6.93846 -0.46066,-0.17677 -5.332366,3.85017 -14.882772,12.30205 -12.6435036,11.18921 -15.09857453,13.19415 -15.09857453,12.33032 0,-0.50572 2.70289893,-15.47289 3.36849833,-18.6529 5.2315465,-24.99454 12.8552972,-42.26586 25.2077322,-57.10717 l 3.245203,-3.89908 -3.163167,-2.867074 C 23.220114,93.120796 20.05636,87.850953 14.757412,74.695268 5.6016385,51.964257 5.371743,42.372958 13.274739,12.837769 15.054941,6.18477 15.688809,4.4477992 16.740058,3.3418555 18.219511,1.7854286 20.07599,0.71952094 21.307349,0.71952094 c 1.177208,0 5.788922,3.05280516 10.882362,7.20377176 4.822903,3.9304883 9.180908,6.8122523 17.990528,11.8963743 10.420305,6.013665 14.239751,7.881889 16.113941,7.881889 1.84129,0 4.14691,-0.700089 33.85856,-10.280973 10.72843,-3.459515 21.93462,-7.002653 24.90265,-7.8736378 31.33025,-9.1940593 52.95395,-9.73703723 83.15403,-2.0880246 4.72169,1.1958991 15.66767,4.4992614 24.32441,7.3408054 22.93277,7.527603 40.76163,12.90183 42.80151,12.90183 1.90285,0 4.15363,-1.271538 25.71593,-14.527725 7.71145,-4.740889 10.11577,-6.4616445 12.18732,-8.7223717 2.9163,-3.1826267 4.50927,-4.17486146 6.70892,-4.17886848 3.78053,-0.006887 5.68889,2.77696018 8.96163,13.07292818 3.27048,10.288844 4.58731,18.496276 4.57423,28.509808 -0.0179,13.703351 -2.87341,24.880178 -9.99861,39.135749 -4.85606,9.715656 -7.01341,13.19149 -10.40113,16.757881 l -3.12294,3.287633 2.38805,3.46826 c 11.40138,16.55867 15.12782,22.90295 17.75352,30.22545 2.23205,6.2247 8.24773,31.83411 10.75875,45.80121 l 0.2707,1.50571 -3.22107,-2.85481 c -1.77158,-1.57014 -8.49915,-7.55923 -14.95014,-13.30908 -6.45099,-5.74985 -11.90835,-10.45485 -12.12747,-10.45554 -0.21912,-9e-4 -0.27113,0.92731 -0.11557,2.06224 0.20918,1.5261 0.74773,2.59165 2.06795,4.09149 2.40501,2.73224 3.92932,5.42379 5.21886,9.21518 1.78969,5.26188 2.1472,9.72227 1.84989,23.07922 -0.41519,18.6526 -1.67739,31.07026 -4.86812,47.89312 -1.5136,7.98028 -2.60907,10.83756 -4.89141,12.75802 -3.29645,2.77377 -5.14741,1.95976 -10.91461,-4.80004 -2.36259,-2.76921 -5.5884,-6.44016 -7.16847,-8.15767 l -2.87286,-3.12274 -9.77609,14.4865 c -9.97428,14.78017 -12.0178,17.38414 -14.04109,17.89195 -1.73094,0.43444 -4.57421,-0.097 -7.8293,-1.46329 -2.36304,-0.99189 -3.6123,-1.22636 -6.52066,-1.22384 -3.42145,0.003 -3.99396,0.16317 -11.69221,3.272 -13.86742,5.60015 -32.12216,13.15693 -50.4813,20.89736 -18.00471,7.59101 -20.38947,8.34912 -23.39635,7.43765 z m 14.06747,-8.17731 c 1.48401,-0.63238 5.91648,-2.47752 9.84993,-4.1003 7.96806,-3.28731 10.96536,-4.9497 14.07986,-7.80912 l 2.11421,-1.94105 -2.30087,-2.30087 -2.30087,-2.30087 -3.07622,2.33486 c -3.9429,2.99267 -10.12959,6.01216 -14.99329,7.31765 -3.34446,0.89771 -4.8909,1.02621 -12.36676,1.0276 -6.81833,0.001 -9.13478,-0.16075 -11.46737,-0.80205 -7.09254,-1.94995 -11.4651,-4.135 -16.87061,-8.43056 l -3.39152,-2.69511 -2.55739,1.83131 -2.5574,1.83131 3.64989,3.53413 c 3.86402,3.74145 8.20326,6.596 12.28332,8.08049 3.11491,1.13333 14.91965,4.82421 17.31347,5.41325 3.24261,0.79789 9.56099,0.30078 12.59162,-0.99067 z m 33.22955,-23.94739 c 4.32973,-1.19196 10.28464,-3.96079 14.28647,-6.64271 3.85853,-2.58589 9.8208,-7.71683 9.8208,-8.45147 0,-0.23297 -2.83889,-0.41391 -6.49411,-0.41391 -3.57177,0 -6.60101,-0.17295 -6.73165,-0.38433 -0.13065,-0.21138 0.27907,-0.86907 0.91048,-1.46153 1.11025,-1.04176 1.38296,-1.07762 8.28978,-1.09 6.48555,-0.0117 7.25685,-0.0977 8.39426,-0.93617 1.1965,-0.88209 2.30247,-3.36196 3.03638,-6.80836 l 0.31124,-1.46153 h -14.89818 c -12.73795,0 -15.09868,-0.10367 -16.28087,-0.71501 -1.23967,-0.64105 -1.31168,-0.786 -0.69625,-1.40143 1.20143,-1.20142 4.26528,-1.44153 18.65009,-1.46158 l 14.05314,-0.0196 v -4.00038 -4.00039 l -8.88158,-0.15934 c -8.3388,-0.14961 -8.98326,-0.22257 -10.54518,-1.19377 -1.06729,-0.66364 -1.57392,-1.26812 -1.41342,-1.68638 0.20803,-0.5421 1.91512,-0.65196 10.13121,-0.65196 h 9.88104 l -0.29621,-1.46152 c -0.46605,-2.29956 -2.13762,-5.3816 -3.4252,-6.31538 -0.96008,-0.69627 -1.91632,-0.84537 -5.19643,-0.81021 -3.53581,0.0379 -4.18987,-0.0824 -5.43202,-0.9988 l -1.4122,-1.04189 1.2816,-0.75705 c 0.85245,-0.50356 2.27482,-0.75706 4.24769,-0.75706 1.63135,0 2.96609,-0.172 2.96609,-0.38223 0,-0.51939 -2.35398,-3.70154 -3.4698,-4.69052 -1.60924,-1.42632 -3.61264,-1.71856 -6.76675,-0.98707 -3.08386,0.71519 -3.43707,0.65365 -4.17633,-0.72766 -0.42966,-0.80284 -0.19267,-1.0202 2.38861,-2.1906 1.57608,-0.71463 3.13843,-1.62806 3.47188,-2.02984 0.67498,-0.81331 1.37647,0.0163 -9.75213,-11.53357 -3.24716,-3.37008 -6.3541,-7.01265 -6.90431,-8.09461 -2.82902,-5.56305 -7.1465,-10.58473 -13.45784,-15.65286 -3.6202,-2.9071 -4.51324,-3.89447 -5.79497,-6.40706 -2.63363,-5.16277 -2.43354,-12.11981 0.72198,-25.10218 1.46044,-6.00853 1.62743,-13.23377 0.3997,-17.29427 -0.93139,-3.08042 -2.52426,-6.37432 -4.41912,-9.13833 -2.43653,-3.55411 -2.09191,-6.12986 1.20775,-9.026996 3.31888,-2.914011 6.30533,-1.399388 10.19278,5.169416 4.42274,7.47332 5.93299,12.68675 5.90862,20.39676 -0.0141,4.46198 -0.24008,6.03002 -1.64697,11.42816 -1.83048,7.02336 -2.08321,11.32098 -0.97365,16.5567 0.82865,3.91019 1.72077,5.7387 4.08027,8.36304 4.13142,4.59513 8.65649,5.79996 18.8714,5.0246 10.76128,-0.81682 16.37408,-2.95428 24.60636,-9.37055 8.23758,-6.42042 13.97139,-9.94956 16.18563,-9.96222 0.44278,-0.003 1.29977,0.9002 2.02366,2.13168 1.81664,3.09047 1.61373,6.37236 -1.23033,19.89925 -2.01257,9.5722 -2.34859,11.9174 -2.56124,17.8756 l -0.24476,6.85793 h 3.83298 c 5.10668,0 9.82815,-0.94784 16.81151,-3.37493 4.19144,-1.45675 6.48632,-2.01161 8.33705,-2.01576 3.73799,-0.008 3.98734,0.36292 4.6261,6.88832 0.20818,2.12672 0.004,3.44312 -1.08064,6.97036 -2.34613,7.62896 -5.87426,20.8584 -5.87426,22.02675 0,0.84052 1.40153,2.54662 5.48579,6.67789 3.01719,3.05191 5.62391,5.54893 5.79272,5.54893 0.83246,0 1.45808,-6.029 2.92839,-28.22067 1.03359,-15.60012 1.52258,-25.92331 1.3792,-29.11616 -0.43484,-9.68247 -3.84586,-17.99682 -10.94728,-26.68398 -4.22545,-5.16901 -5.07132,-6.36875 -5.39254,-7.64857 -0.55915,-2.22784 1.59145,-3.71667 5.82532,-4.03277 5.28376,-0.39448 7.571,0.86767 22.54466,12.44066 5.17187,3.99728 9.46917,7.202 9.54957,7.1216 0.25789,-0.25789 -6.41068,-19.79815 -7.45012,-21.83037 -1.26936,-2.48173 -9.61614,-10.82946 -15.77499,-15.7768 -8.94475,-7.1852 -21.20251,-14.52262 -31.79362,-19.03145 -3.29626,-1.40327 -4.63213,-2.60808 -4.63213,-4.177652 0,-1.793505 1.23257,-3.753741 2.57163,-4.089824 2.52399,-0.63348 10.32872,1.523675 19.13256,5.288066 3.40424,1.4556 6.35794,2.64655 6.56377,2.64655 0.20584,0 0.81124,-1.50397 1.34535,-3.342161 0.72057,-2.479937 1.82442,-4.597209 4.27875,-8.207036 14.87047,-21.871467 20.70732,-42.980323 17.01299,-61.527153 -1.00972,-5.069182 -2.81191,-11.477835 -3.26634,-11.615274 -0.33902,-0.102533 -41.95382,23.293334 -48.53811,27.288158 -10.23451,6.209488 -19.10152,13.0365 -24.85923,19.139976 -4.81308,5.102114 -4.46754,5.996623 4.68957,12.140027 5.58481,3.746784 6.68587,5.286716 5.82778,8.150743 -0.70717,2.360348 -3.64032,4.931398 -5.6259,4.931398 -2.43032,0 -9.31032,-5.034429 -15.15487,-11.089544 -4.56013,-4.724429 -5.89704,-8.087128 -4.74158,-11.926411 0.88793,-2.950373 2.79999,-5.508373 8.66301,-11.589593 5.94006,-6.161128 10.5899,-10.181982 17.14807,-14.828437 2.53519,-1.796178 4.6091,-3.398473 4.60869,-3.560656 -9e-4,-0.320143 -9.11645,-3.537042 -33.29353,-11.749233 -26.10824,-8.86815 -38.9438,-11.427358 -57.09554,-11.383954 -18.06193,0.04319 -25.54102,1.812332 -67.23024,15.902977 -10.388087,3.511095 -19.369129,6.563514 -19.957877,6.783154 -1.023253,0.381736 -0.953851,0.481011 1.573952,2.251488 2.771185,1.940943 15.325976,13.021089 22.589275,19.936018 4.79425,4.564295 5.88845,6.447376 5.90303,10.158863 0.0238,6.070323 -6.31714,13.971392 -15.161358,18.891508 -5.08096,2.826579 -8.069571,2.413678 -10.006212,-1.382447 -1.54084,-3.020298 -1.041646,-5.392167 1.480455,-7.034244 0.79025,-0.514507 3.225635,-2.104037 5.411967,-3.53229 2.186332,-1.428249 4.361003,-3.229597 4.832599,-4.002997 0.934726,-1.532907 1.120969,-3.902249 0.411013,-5.228817 -0.41662,-0.778463 -7.338025,-6.270404 -18.212775,-14.451331 -5.439322,-4.091924 -7.451269,-5.419359 -6.622605,-4.369443 0.703367,0.891171 0.393627,3.889473 -2.106906,20.394911 -0.97424,6.430718 -2.00329,13.397034 -2.286782,15.480704 -0.555677,4.084248 -2.10642,7.779488 -3.600249,8.578956 -0.636843,0.340833 -1.418805,0.343486 -2.660873,0.009 -1.886341,-0.507937 -3.077225,-1.537958 -16.694397,-14.439355 -4.339049,-4.110974 -8.386354,-7.743975 -8.994013,-8.07334 -0.607657,-0.329361 -2.116659,-0.828677 -3.353335,-1.109587 -1.733942,-0.393861 -2.474277,-0.844492 -3.235076,-1.969139 -0.542615,-0.802113 -0.877786,-1.799468 -0.744824,-2.216336 0.988423,-3.098955 1.238656,-3.373816 4.399634,-4.832627 4.013401,-1.852213 8.592651,-3.049402 10.332764,-2.701378 2.33391,0.46678 3.300411,1.436492 4.069894,4.083425 0.450582,1.549956 1.364288,3.210107 2.396621,4.354532 1.666262,1.847185 8.810327,8.006662 9.286524,8.006662 0.138404,0 0.251648,-0.470251 0.251648,-1.045 0,-0.574754 0.518806,-2.75018 1.152902,-4.834282 1.529251,-5.026258 1.355271,-7.849883 -0.682448,-11.075752 -2.609559,-4.131143 -1.524553,-5.360926 6.669213,-7.559116 2.751236,-0.738089 5.002249,-1.473997 5.002249,-1.63535 0,-0.161352 -6.323915,-3.99246 -14.053144,-8.513572 C 51.782297,34.386832 40.702799,27.863199 34.890419,24.410982 29.078039,20.958765 24.170302,18.048679 23.984337,17.944123 c -0.477105,-0.268244 -1.136028,1.586238 -2.595904,7.305945 -5.3187,20.838356 -0.291135,41.953386 15.657634,65.759762 1.526239,2.278183 3.060107,5.332199 3.952558,7.86976 0.802131,2.28075 1.627807,4.11256 1.834837,4.0707 0.20703,-0.0419 5.536732,-1.82112 11.843783,-3.953904 12.497305,-4.226066 13.907229,-4.447152 15.41615,-2.417361 1.192871,1.604649 0.7413,3.273465 -1.437639,5.312875 -0.930925,0.87131 -6.834712,4.40783 -13.119534,7.85892 -12.725745,6.98792 -20.058229,11.72154 -25.24148,16.29512 -8.090156,7.13856 -13.39484,15.11758 -15.864305,23.86224 -1.250567,4.4284 -2.054087,9.10595 -1.564241,9.10595 0.344301,0 9.754204,-7.05587 15.080517,-11.30789 4.626629,-3.69346 8.143261,-5.8285 11.132573,-6.75888 4.335591,-1.34939 6.273458,-1.05082 9.722868,1.49802 l 1.007855,0.74472 -0.864675,1.95348 c -0.475567,1.07442 -1.998906,3.29003 -3.385189,4.92359 -7.67092,9.03919 -10.519857,14.44617 -11.571651,21.96177 -2.043115,14.5991 -1.112313,36.68932 2.531859,60.08727 l 0.763784,4.90399 4.650219,-4.91067 c 4.860802,-5.13304 6.447081,-7.61963 6.447081,-10.1062 0,-0.81604 -1.096699,-5.35596 -2.437112,-10.0887 -3.612136,-12.75379 -4.308397,-15.70802 -4.308397,-18.28052 0,-2.92423 1.080477,-5.30489 2.578277,-5.68081 1.908359,-0.47897 7.600462,0.22458 9.647206,1.1924 2.085883,0.98633 21.092712,5.95402 21.442453,5.60428 0.922624,-0.92262 0.380312,-6.33804 -2.182176,-21.79096 -3.779055,-22.78933 -3.653085,-26.53651 0.892098,-26.53651 1.961692,0 4.512525,1.61422 12.04787,7.62415 10.953159,8.73586 19.119464,11.83463 31.367644,11.90272 l 6.31463,0.0351 3.5314,-1.74309 c 6.50131,-3.20903 11.64285,-9.8089 12.88244,-16.53638 0.49363,-2.67905 0.44683,-3.41405 -0.47194,-7.41221 -0.56095,-2.44104 -1.72438,-6.66428 -2.58539,-9.38497 -3.38979,-10.7113 -2.11508,-18.38457 4.71648,-28.39144 2.44425,-3.580343 3.74565,-4.692965 5.81369,-4.970345 1.44,-0.193147 2.00393,-0.02356 3.16209,0.950982 1.72373,1.450424 2.56249,3.795433 2.15329,6.020203 -0.16763,0.91139 -1.28311,3.58911 -2.47884,5.95049 -3.08667,6.09568 -3.79024,8.75129 -3.74739,14.1443 0.0328,4.12403 0.24554,5.18702 2.56525,12.81647 3.05163,10.03667 3.32533,11.88254 2.33624,15.75585 -1.4634,5.73071 -3.47879,8.68636 -8.80269,12.90953 -4.67982,3.71224 -7.3023,6.64666 -11.67572,13.0645 -3.8579,5.66133 -8.82389,11.38127 -14.48534,16.68452 -2.67249,2.50342 -3.14243,3.15568 -2.87674,3.9928 0.25909,0.81633 0.65142,1.00058 2.13053,1.00058 1.87995,0 4.46015,0.98561 5.33278,2.03707 0.3933,0.4739 0.17836,0.77712 -0.99114,1.39823 -1.15505,0.61344 -2.41021,0.77282 -5.54066,0.70356 -2.54334,-0.0563 -4.46005,0.12139 -5.15805,0.47812 -1.19511,0.61077 -3.16141,3.22934 -3.16141,4.2101 0,0.61492 0.18178,0.67527 4.60943,1.5302 2.20786,0.42631 2.58477,0.64251 2.5789,1.47923 -0.015,2.13339 -0.53542,2.33875 -5.54876,2.18959 -6.01318,-0.17891 -7.60468,0.40178 -8.856362,3.23142 -0.486118,1.09894 -1.011184,2.92707 -1.166807,4.06249 l -0.282961,2.0644 6.46936,0.0328 c 7.59414,0.0385 10.95646,0.43909 11.93973,1.42236 0.65006,0.65006 0.59142,0.77496 -0.67028,1.42741 -1.10972,0.57386 -2.94065,0.71501 -9.27477,0.71501 -7.068835,0 -7.892088,0.0782 -7.892088,0.75014 0,1.39777 0.958186,6.26225 1.362629,6.91771 0.331649,0.5375 2.787359,0.69099 14.022559,0.87646 12.49659,0.2063 13.7262,0.29645 14.90146,1.09256 l 1.28096,0.86771 -1.95551,0.79354 c -1.69348,0.68721 -3.56746,0.79691 -13.985,0.81867 -6.61622,0.0138 -12.02949,0.1882 -12.02949,0.38751 0,0.1993 0.41449,1.58976 0.92109,3.08989 1.53201,4.53652 3.30217,5.48153 10.34391,5.52215 3.46924,0.02 4.47452,0.43794 4.47452,1.86022 0,1.05784 -0.90795,1.30727 -4.75864,1.30727 -1.84401,0 -3.33597,0.19412 -3.33597,0.43405 0,1.73763 7.12805,7.39036 12.81646,10.1638 6.01249,2.93144 10.11165,3.89006 16.86378,3.94373 5.95461,0.0473 8.80066,-0.39405 14.61526,-2.2666 7.27084,-2.34152 10.56797,-4.65603 10.56797,-7.41848 0,-1.90842 -0.52271,-2.68382 -5.92119,-8.78374 -4.59345,-5.19029 -4.87072,-5.61408 -4.85569,-7.42177 0.009,-1.05444 0.30514,-2.42307 0.65862,-3.04141 0.7982,-1.39631 0.86776,-4.67666 0.11242,-5.30185 -0.30917,-0.2559 -3.01738,-0.53364 -6.01824,-0.61719 l -5.45612,-0.15192 -2.47399,-1.70527 c -1.3607,-0.9379 -3.71162,-2.86483 -5.22427,-4.28205 -2.4996,-2.34191 -2.75028,-2.74455 -2.75028,-4.41747 0,-2.73911 1.30541,-4.04134 6.49925,-6.48342 6.13792,-2.88598 8.35322,-3.57316 11.51893,-3.57316 3.21014,0 4.87366,0.63559 8.62582,3.29575 4.91781,3.48657 7.31924,4.47931 11.3557,4.69437 4.56882,0.24342 7.15901,-0.67315 13.06937,-4.62476 7.56901,-5.06056 9.42739,-5.09525 19.11741,-0.35683 6.73177,3.29183 7.61172,4.0564 7.61172,6.61371 0,1.64191 -2.40416,4.53343 -6.3896,7.68487 -5.10596,4.03747 -6.27624,4.54478 -8.92066,3.86703 -1.24776,-0.31979 -3.02979,-0.41254 -4.40954,-0.22951 -2.24807,0.29822 -2.31553,0.34963 -2.31553,1.7646 0,0.80159 0.38402,2.65952 0.85338,4.12875 0.46936,1.46922 0.7495,3.21471 0.62254,3.87888 -0.12697,0.66416 -1.74423,2.87806 -3.59393,4.91975 -5.52976,6.10377 -6.11091,8.61045 -2.95462,12.74411 3.09801,4.05734 8.24377,7.03988 14.74119,8.54416 3.3772,0.78189 11.09323,0.52417 14.79183,-0.49404 z M 98.478514,260.21808 c 0.964842,-0.22381 2.148676,-0.80134 2.630746,-1.28341 1.9121,-1.9121 0.90835,-4.75986 -5.974621,-16.95078 -4.084585,-7.2345 -5.09254,-10.63378 -4.841081,-16.32637 0.325979,-7.37975 2.20678,-10.83023 15.810462,-29.0056 11.4277,-15.26811 13.77981,-18.87184 13.77981,-21.11244 0,-1.35593 -0.31136,-2.06578 -1.37081,-3.12523 -1.23312,-1.23311 -1.5606,-1.34106 -3.26033,-1.07469 -8.19048,1.28358 -11.38974,1.15782 -16.184762,-0.63623 -2.825685,-1.05722 -6.903979,-3.77346 -9.643537,-6.42282 -1.735184,-1.67805 -2.104676,-1.83774 -4.179661,-1.80644 -4.971521,0.075 -5.332474,2.62934 -2.170049,15.35674 l 1.379156,5.5505 -0.904285,8.0658 c -1.066101,9.50914 -1.393191,10.28857 -4.317634,10.28857 -1.076309,0 -4.360077,-0.40013 -7.297265,-0.88918 -8.00525,-1.33291 -13.970209,-1.83918 -15.382899,-1.30562 -0.659976,0.24927 -1.756463,0.98412 -2.436635,1.633 -1.788792,1.70649 -1.685104,3.88113 0.31927,6.69608 7.319003,10.27885 8.625315,13.20186 14.642831,32.76483 2.785823,9.05673 6.990667,15.13424 12.233601,17.68194 4.157333,2.02018 12.616539,2.95705 17.167693,1.90135 z m 161.387026,-1.43546 c 3.50886,-1.13801 6.22756,-2.70197 8.76863,-5.04425 3.19435,-2.94445 4.72878,-6.65583 7.81273,-18.89693 2.72314,-10.80894 5.65194,-17.64356 10.00383,-23.34485 2.99117,-3.91863 3.22667,-5.3588 1.23991,-7.58236 l -1.28061,-1.43326 -5.80217,0.10584 c -3.1912,0.0582 -8.65934,0.35061 -12.15144,0.6498 l -6.34926,0.54398 -0.54971,-2.93368 c -2.62299,-13.99822 -2.38421,-21.6208 0.92098,-29.40068 1.68876,-3.97508 1.72587,-6.19327 0.12469,-7.45276 -2.3451,-1.84465 -6.50151,-0.79819 -9.87299,2.48573 -2.61506,2.54716 -6.4245,4.70606 -10.25544,5.81201 -2.62373,0.75744 -6.62785,0.73939 -12.9851,-0.0585 -2.62162,-0.32905 -4.14701,0.51439 -5.11343,2.82737 -1.33021,3.18364 0.13228,5.63835 10.68926,17.94129 11.34903,13.22598 15.06335,18.70746 17.34561,25.59811 1.00733,3.04132 1.19313,4.39725 1.20164,8.76916 0.0124,6.34775 -0.69425,8.62731 -5.98384,19.30421 -1.9952,4.02725 -3.62764,7.83371 -3.62764,8.45878 0,1.58042 2.68801,4.00371 5.06414,4.56543 2.55706,0.60449 7.37455,0.1966 10.80021,-0.91442 z m -84.46964,-14.4378 c 4.16516,-5.19558 5.48602,-8.0812 6.38544,-13.94996 0.40826,-2.66394 0.64281,-4.943 0.52123,-5.06459 -0.12159,-0.12158 -1.15671,0.19282 -2.30027,0.69867 -1.14357,0.50585 -3.67641,1.15253 -5.62855,1.43705 -3.00099,0.4374 -4.14985,0.39934 -7.43624,-0.24638 -2.1378,-0.42004 -5.03001,-1.26925 -6.42714,-1.88713 -1.39713,-0.61788 -2.61232,-1.05134 -2.70042,-0.96324 -0.0881,0.0881 0.52043,1.05195 1.35229,2.1419 3.16281,4.14412 4.19716,7.34529 3.39838,10.51752 -0.60185,2.39019 -0.27583,3.08287 3.15599,6.70518 2.67136,2.81964 4.73575,4.31658 5.95665,4.31932 0.41163,9e-4 2.08681,-1.66783 3.72264,-3.70834 z m -19.08632,-20.5522 c 0,-0.67462 -3.8592,-3.15437 -5.38357,-3.45925 -1.51547,-0.30309 -4.98519,0.81088 -5.87859,1.88736 -0.2971,0.35798 -0.46481,0.67134 -0.37269,0.69635 0.0921,0.025 2.49468,0.29965 5.33904,0.61034 2.84436,0.31068 5.42451,0.59378 5.73368,0.62909 0.30917,0.0353 0.56213,-0.12844 0.56213,-0.36389 z m 36.555,-0.30283 c 2.15493,-0.16564 3.91805,-0.45899 3.91805,-0.65188 0,-0.67703 -2.35509,-2.19404 -3.83804,-2.47225 -1.14536,-0.21487 -2.03271,0.01 -3.76694,0.95368 -1.24776,0.67911 -2.62724,1.63968 -3.06552,2.13459 -0.785,0.88645 -0.76983,0.89566 1.01877,0.61844 0.9986,-0.15478 3.57875,-0.41694 5.73368,-0.58258 z"
     id="path3803"
     inkscape:connector-curvature="0" /><path
     style="fill:#0000ff;stroke-width:0.44970059"
     d="m 101.90671,152.47763 c -3.553431,-0.99893 -5.70626,-2.40663 -10.526564,-6.88312 -6.444705,-5.98504 -12.45858,-8.58683 -19.896635,-8.6079 -3.283102,-0.009 -5.395668,-0.80831 -7.377743,-2.79039 -1.851976,-1.85197 -2.683014,-3.83644 -2.683014,-6.40685 0,-1.71616 0.241077,-2.26418 1.588942,-3.61205 2.725398,-2.7254 5.256043,-1.91385 5.86272,1.8801 0.397032,2.4829 1.601683,3.72617 3.61044,3.72617 1.293235,0 2.040823,-0.43259 4.080052,-2.36093 1.373184,-1.29851 3.70946,-4.0407 5.191724,-6.09375 4.424327,-6.12804 9.314361,-9.66187 17.000657,-12.28571 3.806771,-1.2995 4.815981,-1.45756 9.434321,-1.47759 3.9151,-0.017 5.77248,0.1818 7.64492,0.81818 6.52771,2.21854 12.25329,8.27809 15.64027,16.55257 0.82617,2.01835 1.21062,3.91367 1.3481,6.64603 l 0.19232,3.82246 -1.8094,2.6982 c -4.3527,6.49081 -10.27505,11.60381 -15.75518,13.6021 -3.87405,1.41264 -10.02164,1.76321 -13.54593,0.77248 z m 11.25187,-8.08904 c 1.45136,-0.73545 4.3056,-3.0781 7.25696,-5.95618 5.66232,-5.52176 5.66502,-5.53058 3.50764,-11.44195 -2.3967,-6.56712 -5.7742,-10.47756 -10.06719,-11.65575 -2.56976,-0.70525 -7.58948,-0.59018 -11.24594,0.25781 -4.432677,1.02801 -8.606814,3.38383 -11.81071,6.66579 -2.614544,2.67825 -5.992156,7.19467 -5.992156,8.01249 0,0.46188 12.530987,11.25737 14.981455,12.90657 4.457951,3.00028 9.023241,3.41386 13.369941,1.21122 z"
     id="path3805"
     inkscape:connector-curvature="0" /><path
     style="fill:#0000ff;stroke-width:0.44970059"
     d="m 102.58691,138.16049 c -1.83538,-1.83538 -2.635154,-6.73216 -1.56537,-9.5843 1.3336,-3.5555 4.4876,-6.43751 7.04506,-6.43751 1.5285,0 3.49627,1.59461 4.1769,3.3848 0.61302,1.61236 0.55829,5.80169 -0.1047,8.01456 -0.30241,1.00934 -1.38073,2.70233 -2.39627,3.76221 -1.66364,1.73627 -2.05644,1.92705 -3.96762,1.92705 -1.63254,0 -2.36694,-0.24575 -3.188,-1.06681 z"
     id="path3807"
     inkscape:connector-curvature="0" /><path
     style="fill:#0000ff;stroke-width:0.44970059"
     d="m 233.28827,139.68771 c -4.36395,-4.36395 -4.91303,-13.26219 -0.93381,-15.13321 2.5947,-1.22003 3.47307,-1.15344 5.10204,0.38678 0.85482,0.80826 2.64631,3.07221 3.98107,5.03101 l 2.42686,3.56146 -1.98183,2.83502 c -1.09,1.55927 -2.50307,3.24505 -3.14016,3.74618 -1.71792,1.35131 -3.842,1.18493 -5.45417,-0.42724 z"
     id="path3809"
     inkscape:connector-curvature="0" /><path
     style="fill:#0000ff;stroke-width:0.44970059"
     d="m 227.61167,154.0173 c -3.97718,-1.36765 -8.54929,-4.54492 -12.84102,-8.92353 -7.01908,-7.16119 -7.85993,-10.41062 -4.76497,-18.41404 4.04634,-10.46366 9.18971,-15.40495 18.09784,-17.38682 4.59117,-1.02144 11.81892,-0.71676 15.89767,0.67015 6.76161,2.29916 14.14358,8.26812 18.64242,15.074 3.53669,5.35033 5.19512,6.585 7.6112,5.66641 1.19782,-0.45541 1.7847,-1.42158 2.28954,-3.76924 0.40476,-1.88229 2.26058,-3.57523 3.5055,-3.19784 2.21885,0.67264 4.38531,3.60565 4.36722,5.91244 -0.0272,3.46519 -3.74284,7.7064 -7.80944,8.91405 -1.23054,0.36543 -3.68162,0.66442 -5.44686,0.66442 -6.08235,0 -9.88069,1.71664 -15.67474,7.08411 -4.63038,4.28947 -8.21041,6.62788 -11.88435,7.76265 -3.80505,1.17526 -8.47148,1.15317 -11.99001,-0.0568 z m 10.37966,-8.26237 c 1.23639,-0.36717 3.38435,-1.42959 4.77325,-2.36093 3.25725,-2.18419 13.56361,-10.86445 13.73374,-11.56687 0.0717,-0.29603 -0.69535,-1.77474 -1.70454,-3.28601 -6.44693,-9.65436 -19.52647,-14.45728 -28.02123,-10.28964 -5.31384,2.60703 -9.52456,8.23557 -10.06286,13.45118 -0.20771,2.01257 -0.065,2.85497 0.76553,4.51789 2.13492,4.27476 6.3025,7.99855 10.71638,9.57523 2.22393,0.7944 7.05494,0.77427 9.79973,-0.0409 z"
     id="path3811"
     inkscape:connector-curvature="0" /><path
     style="fill:#0000ff;stroke-width:0.44970059"
     d="m 275.5635,88.954715 c -0.98841,-2.297603 -6.69996,-31.616939 -7.11421,-36.519626 -0.33703,-3.988697 0.24708,-4.75158 3.5514,-4.638403 2.70152,0.09253 7.76673,1.627706 8.99027,2.724789 0.43388,0.389038 0.99884,1.487087 1.25546,2.440109 0.4204,1.561237 0.34942,1.886379 -0.71698,3.284505 -1.74236,2.284355 -1.81622,4.255955 -0.41488,11.075431 0.6809,3.313555 1.29963,6.097942 1.37495,6.187527 0.17427,0.207277 6.04237,-4.895819 8.81887,-7.669183 1.62357,-1.621733 2.30232,-2.755207 2.93366,-4.899012 0.69085,-2.345901 1.06869,-2.921754 2.37771,-3.623788 2.0012,-1.073256 4.14529,-1.055609 7.70638,0.06343 5.24408,1.647902 8.47925,4.317993 8.47925,6.99819 0,1.332142 -2.19808,3.156016 -5.69875,4.728578 -2.14288,0.96262 -4.39843,2.754698 -9.89341,7.860506 -14.08842,13.090627 -15.46523,14.109737 -19.09183,14.131697 -1.52203,0.0092 -1.69293,-0.134081 -2.55789,-2.144748 z"
     id="path3813"
     inkscape:connector-curvature="0" /><path
     style="fill:#0000ff;stroke-width:0.44970059"
     d="m 185.09042,84.871781 c -1.85502,-0.925285 -4.78932,-2.450737 -6.52066,-3.389893 -3.02906,-1.643093 -3.27524,-1.699078 -6.52066,-1.482971 -2.73757,0.182288 -4.2239,0.606871 -7.89222,2.254477 -7.14305,3.208269 -10.41061,4.054291 -14.74058,3.816571 -5.96547,-0.327509 -8.81449,-2.304267 -15.19365,-10.541933 -5.17201,-6.678815 -8.32015,-9.243942 -12.83794,-10.460457 -1.48695,-0.400395 -1.96685,-0.789626 -2.3584,-1.912834 -0.77323,-2.218081 -0.58943,-3.382198 0.69332,-4.391205 1.56495,-1.230995 2.17508,-1.184448 6.04163,0.460915 6.08974,2.59142 8.21573,4.315967 14.42095,11.697932 2.26621,2.695964 5.05126,5.523665 6.18899,6.283777 1.90589,1.273304 2.31625,1.369334 5.21652,1.22071 2.78938,-0.142941 3.86496,-0.503994 9.44371,-3.17008 3.4627,-1.654822 7.38503,-3.239522 8.71629,-3.521557 4.45106,-0.942978 8.11313,0.04604 14.21844,3.839981 5.5394,3.442272 8.11669,3.562271 12.61503,0.587356 1.22028,-0.807016 6.4698,-4.981501 11.6656,-9.276633 9.91726,-8.198138 12.39483,-9.767686 14.64011,-9.274541 2.89136,0.63505 3.52903,3.7392 1.21504,5.914778 -1.94391,1.827639 -12.32156,9.939032 -21.30762,16.654497 -6.77274,5.06141 -7.4471,5.454963 -10.1551,5.926541 -3.84072,0.668833 -3.67761,0.695527 -7.5488,-1.235431 z"
     id="path3815"
     inkscape:connector-curvature="0" /><path
     style="fill:#0000ff;stroke-width:0.44970059"
     d="m 182.16736,50.447535 c -2.22602,-0.821121 -5.36268,-2.126233 -6.97036,-2.900246 -4.13948,-1.992946 -6.88907,-1.93798 -12.05494,0.240986 -5.16825,2.179969 -9.34486,2.351163 -13.12829,0.538114 -3.55471,-1.703444 -4.0014,-2.154197 -4.67853,-4.721086 l -0.6078,-2.304061 2.38692,-0.81134 c 2.32273,-0.78952 2.43886,-0.787958 4.31814,0.05809 3.21066,1.445438 6.63269,1.159633 11.17289,-0.933147 3.42839,-1.5803 4.19333,-1.762655 7.42006,-1.768865 3.38206,-0.0065 3.85356,0.119121 7.86976,2.096906 7.27062,3.58043 9.92807,3.715461 14.27411,0.725302 1.57953,-1.086744 2.21868,-1.280564 3.3922,-1.028675 2.68244,0.575772 3.01991,0.94955 3.01991,3.344798 0,1.967856 -0.16001,2.330125 -1.46152,3.308847 -1.21681,0.915027 -10.39791,5.741779 -10.78465,5.669777 -0.0663,-0.01235 -1.94188,-0.694279 -4.1679,-1.5154 z"
     id="path3817"
     inkscape:connector-curvature="0" /><path
     style="fill:#ffff00;stroke-width:0.44970059"
     d="m 196.78263,267.39511 c -5.4282,-1.45737 -8.52418,-3.21818 -11.84153,-6.73475 -4.74076,-5.02545 -4.57074,-6.61254 1.43953,-13.43805 2.0407,-2.31749 3.67849,-4.59111 3.70627,-5.14514 0.0909,-1.81232 -0.11587,-3.06468 -0.76073,-4.60805 -0.35098,-0.84002 -0.63815,-2.23291 -0.63815,-3.09532 0,-1.43545 0.13284,-1.59294 1.57117,-1.86277 0.86414,-0.16212 2.33129,-0.15472 3.26033,0.0164 4.88128,0.89929 7.57284,-0.37919 13.71865,-6.51629 2.88264,-2.87857 3.48518,-3.72677 3.48518,-4.90619 0,-3.34391 -1.8142,-4.80474 -10.8561,-8.74155 -7.34146,-3.19646 -9.5504,-2.93224 -16.87644,2.01863 -4.96758,3.35705 -7.76293,4.42089 -11.61626,4.42089 -3.86546,0 -6.81331,-1.12173 -11.70083,-4.45244 -4.47426,-3.04911 -5.91516,-3.62083 -9.1254,-3.62083 -3.15182,0 -6.33536,1.02967 -12.55411,4.06045 -4.94938,2.41214 -5.97123,3.50374 -5.9655,6.37275 0.004,2.0059 1.02744,3.42111 4.57968,6.33283 5.43813,4.45754 5.70867,4.56569 12.05628,4.81959 l 5.62126,0.22485 0.13704,1.88595 c 0.0789,1.0859 -0.15955,2.45951 -0.56212,3.238 -0.91662,1.77254 -0.89003,4.51367 0.0573,5.90608 0.41605,0.61154 2.50403,3.03436 4.63994,5.38405 2.13592,2.34968 4.22389,4.7725 4.63994,5.38404 0.9497,1.39591 0.97162,3.55238 0.0495,4.86891 -1.59563,2.27808 -11.39882,5.92856 -18.43747,6.86569 -7.39698,0.98483 -15.1576,-0.28852 -22.02906,-3.6145 -4.25349,-2.05881 -10.40824,-6.47488 -11.85408,-8.50538 l -0.99772,-1.40116 2.39156,-0.005 c 4.15482,-0.009 5.76524,-0.43247 5.75741,-1.51541 -0.0147,-2.03591 -0.59818,-2.28812 -5.95592,-2.5745 -2.80303,-0.14982 -5.56153,-0.52132 -6.13001,-0.82556 -0.93521,-0.50051 -2.64142,-3.60865 -3.40879,-6.20966 l -0.29852,-1.01183 11.83494,-0.0245 c 10.00523,-0.0207 12.14207,-0.14235 13.82146,-0.78698 1.09257,-0.41939 2.06315,-0.9929 2.15683,-1.27448 0.0937,-0.28158 -0.71237,-0.93927 -1.79121,-1.46153 -1.85287,-0.89695 -2.65898,-0.94956 -14.55008,-0.94956 -9.36805,0 -12.78183,-0.14381 -13.34411,-0.56213 -0.415568,-0.30917 -0.960156,-1.65216 -1.210203,-2.98443 -0.839294,-4.47189 -1.517307,-4.09835 7.438993,-4.09835 7.60101,0 7.95276,-0.0402 9.48909,-1.08415 l 1.59548,-1.08415 -1.24647,-0.81672 c -1.48446,-0.97265 -5.59578,-1.44577 -12.89744,-1.48419 -6.001444,-0.0316 -5.815335,0.12592 -4.617553,-3.90746 0.366537,-1.23426 1.191853,-2.73813 1.834033,-3.34195 1.09062,-1.02546 1.52846,-1.10465 6.64045,-1.20098 5.98359,-0.11276 6.59861,-0.37979 6.59861,-2.86503 0,-1.16616 -0.14979,-1.24799 -3.26033,-1.78127 -1.79318,-0.30742 -3.42932,-0.70728 -3.63587,-0.88857 -0.61727,-0.54178 0.96683,-3.065 2.38448,-3.7981 0.91163,-0.47142 2.65914,-0.68216 5.65668,-0.68216 3.29053,0 4.65279,-0.18623 5.64359,-0.77151 1.57066,-0.92781 1.58738,-1.05669 0.29424,-2.26805 -1.29437,-1.21251 -3.13805,-1.90715 -5.06187,-1.90715 -0.83498,0 -1.64787,-0.20991 -1.80643,-0.46646 -0.15856,-0.25656 2.62583,-3.46612 6.18752,-7.13236 4.58744,-4.7221 7.55647,-8.26033 10.18171,-12.13371 5.1444,-7.5902 7.39358,-10.16391 12.40426,-14.19402 6.61686,-5.32198 9.30194,-10.16256 9.36865,-16.88961 0.0267,-2.69451 -0.3126,-4.50318 -1.68737,-8.99402 -3.01369,-9.84452 -3.40428,-11.40054 -3.66865,-14.61526 -0.37931,-4.61247 0.67368,-8.93524 3.61494,-14.84012 3.01772,-6.05839 3.3863,-7.8963 2.14591,-10.7004 -1.09662,-2.47911 -3.05595,-3.684906 -5.37594,-3.308421 -2.31159,0.375118 -3.28998,1.201812 -5.74107,4.850921 -7.23405,10.76985 -8.48941,18.00258 -5.02382,28.94472 0.8617,2.72069 2.03375,7.02046 2.60457,9.55504 0.94211,4.18328 0.98487,4.86477 0.46362,7.38845 -0.88296,4.27487 -2.92001,7.83061 -6.58814,11.49983 -4.57703,4.57839 -7.87566,6.09192 -13.80383,6.33373 -7.43684,0.30334 -15.6825,-1.48962 -22.38547,-4.86757 -3.698081,-1.86364 -5.955389,-3.38859 -11.017664,-7.44313 -9.453759,-7.57181 -12.270773,-8.77203 -14.649307,-6.24149 -0.950123,1.01085 -1.10862,1.66093 -1.233452,5.05913 -0.115425,3.14205 0.386711,7.07678 2.585778,20.26226 2.471442,14.81859 3.180678,21.03512 2.479833,21.73597 -0.378103,0.3781 -19.523592,-4.5737 -21.421721,-5.54053 -1.01252,-0.51574 -3.151882,-0.95988 -5.488858,-1.13951 -4.543347,-0.34923 -5.80321,0.20271 -6.542961,2.86647 -1.031597,3.71466 -0.722839,5.44922 3.833877,21.53814 1.340411,4.73274 2.437111,9.40728 2.437111,10.38786 0,2.23772 -1.213201,4.05605 -6.38383,9.56801 -4.536305,4.83576 -3.94362,5.33911 -5.300819,-4.50188 -2.643274,-19.16628 -3.472459,-32.68147 -2.743364,-44.71511 0.990054,-16.34077 2.188152,-19.65523 11.063862,-30.60748 2.149227,-2.65205 4.319029,-5.75182 4.821781,-6.88838 l 0.914096,-2.06647 -1.523138,-1.27245 c -2.287765,-1.91124 -4.382933,-2.39587 -7.694985,-1.77993 -3.756093,0.69852 -6.730037,2.23812 -11.682211,6.04785 -15.620218,12.01669 -15.865521,12.18627 -16.002437,11.06266 -0.236499,-1.94084 2.116604,-9.93677 4.16103,-14.13933 2.566752,-5.27626 6.364672,-10.31626 11.28003,-14.96905 6.636181,-6.2817 11.176069,-9.22893 32.215814,-20.91405 9.028207,-5.01411 11.216968,-7.369987 9.732465,-10.475552 -0.432252,-0.904267 -1.110872,-1.394566 -2.35724,-1.703106 -1.588819,-0.393313 -2.832687,-0.07073 -13.486578,3.49756 -6.454983,2.161958 -11.871487,3.925268 -12.036677,3.918448 -0.16519,-0.007 -0.834897,-1.61749 -1.488239,-3.579297 C 40.606811,96.339254 39.009274,93.33533 36.339183,89.228795 23.973239,70.210269 18.394776,51.961607 20.011586,35.816802 c 0.510992,-5.102557 1.97487,-12.183847 3.274008,-15.837524 l 0.58716,-1.651319 2.923054,1.776368 c 1.60768,0.977003 12.593893,7.462746 24.413806,14.412763 11.819915,6.950017 21.401079,12.726068 21.291478,12.835669 -0.109601,0.109601 -2.292925,0.804299 -4.851829,1.543774 -5.308742,1.534123 -6.523411,2.192806 -7.190766,3.89935 -0.407712,1.042588 -0.246819,1.63317 1.144321,4.200441 1.976826,3.648112 2.061819,5.492159 0.494487,10.728585 -0.618339,2.065857 -1.124252,4.13783 -1.124252,4.604385 0,0.677897 -0.516751,0.413581 -2.572665,-1.315923 -5.618539,-4.726501 -7.678265,-7.105094 -8.449292,-9.757333 -1.560625,-5.368362 -5.425642,-5.935681 -14.458706,-2.122295 -3.557397,1.501789 -5.098977,3.278084 -5.098977,5.87533 0,2.083004 1.734219,3.824253 4.256616,4.273877 2.84988,0.507991 3.706925,1.141966 11.276721,8.341618 10.301037,9.797339 15.126943,14.179833 16.278703,14.782999 1.385312,0.72547 3.978699,0.764491 4.812606,0.07242 2.439041,-2.024228 2.645642,-2.992928 6.574416,-30.826031 0.768075,-5.441377 1.491706,-10.560558 1.60807,-11.375959 l 0.211567,-1.482545 1.886907,1.382181 c 5.829051,4.269843 19.604756,14.926394 20.661908,15.983546 0.922007,0.922012 1.236676,1.678444 1.236676,2.972863 0,2.389601 -1.936662,4.421204 -7.444775,7.809734 -6.013576,3.699484 -7.000386,5.500603 -5.193462,9.479059 2.03284,4.475874 5.500212,4.926906 11.57595,1.505791 7.863754,-4.427901 14.553304,-13.081777 14.553304,-18.826733 0,-3.82617 -1.43677,-6.272056 -6.3563,-10.820692 C 96.604895,49.287155 86.660324,40.549258 84.444672,39.049403 82.816333,37.947119 82.245047,37.331253 82.645869,37.110224 83.899122,36.419132 130.79524,20.890147 136.7476,19.195199 c 10.68549,-3.042712 17.83564,-4.243225 28.55599,-4.794565 13.58458,-0.698645 32.68008,2.198069 49.25266,7.471441 5.51648,1.755337 43.4092,14.816136 44.1341,15.212067 0.30023,0.163984 -1.78383,1.916572 -4.88549,4.108432 -8.64866,6.111797 -21.59367,18.846025 -23.97553,23.58515 -1.47446,2.933703 -1.52799,6.762912 -0.13477,9.640924 1.25476,2.591993 7.00298,8.328487 12.61031,12.584597 5.1754,3.92826 7.13118,4.463732 9.79093,2.680647 2.01137,-1.3484 3.73425,-4.613146 3.38843,-6.420807 -0.4202,-2.196374 -1.40751,-3.251664 -5.7543,-6.150492 -6.52029,-4.348308 -7.97724,-5.648752 -7.97724,-7.120325 0,-3.356453 11.78773,-13.792469 24.99569,-22.129406 4.78119,-3.017917 48.61224,-27.884151 50.27605,-28.522613 1.30218,-0.499694 4.11332,11.216277 4.60729,19.201795 0.35259,5.70005 -0.28793,11.423642 -2.11633,18.911206 -2.61164,10.695079 -7.57182,21.485964 -15.08425,32.81581 -3.05038,4.600424 -4.46923,7.210252 -5.13469,9.444765 -0.50577,1.698245 -1.00942,3.087725 -1.11924,3.087725 -0.10981,0 -3.08613,-1.23792 -6.61404,-2.75094 -5.9822,-2.565595 -15.20199,-5.343666 -17.73443,-5.343666 -1.58621,0 -2.73614,0.732571 -3.51541,2.2395 -1.70003,3.287506 -0.39684,5.066426 5.6166,7.666886 9.23684,3.99438 18.72297,9.54776 27.17269,15.90742 6.18084,4.65201 16.89455,14.85015 18.52664,17.6351 1.10245,1.88118 7.51352,20.4103 7.17804,20.74578 -0.096,0.096 -4.76332,-3.35852 -10.37179,-7.67673 -5.60848,-4.31822 -11.53652,-8.53126 -13.17344,-9.36233 -2.64616,-1.34345 -3.37784,-1.51102 -6.59803,-1.51102 -2.61878,0 -4.08429,0.22997 -5.29168,0.83038 -3.31967,1.65078 -2.87687,3.58617 2.24687,9.8204 5.96517,7.25803 9.22977,13.23018 11.13972,20.37856 1.30192,4.87273 1.26154,11.45951 -0.21089,34.4021 -1.47581,22.99537 -2.00631,28.68004 -2.74539,29.41912 -0.30375,0.30375 -2.15202,-1.28495 -5.61838,-4.82932 -4.02743,-4.11805 -5.1655,-5.55126 -5.1647,-6.504 4.5e-4,-0.67212 1.55218,-6.58471 3.44804,-13.13909 3.1559,-10.91067 3.43894,-12.22089 3.35156,-15.51467 -0.11093,-4.1811 -0.68864,-6.34672 -1.86037,-6.97382 -1.8282,-0.97841 -5.51778,-0.46854 -11.39799,1.57516 -7.26332,2.52439 -11.35463,3.375 -16.23319,3.375 h -3.84142 v -5.11717 c 0,-5.42708 0.61778,-9.56575 3.36446,-22.53941 1.88895,-8.92223 2.16522,-13.6066 0.94156,-15.96437 -1.12132,-2.16058 -2.05428,-3.14791 -2.97454,-3.14791 -1.41776,0 -7.79711,3.54416 -11.52445,6.40261 -2.01977,1.54894 -5.05525,3.87588 -6.74551,5.17099 -6.25383,4.79178 -12.46778,6.98239 -22.18547,7.82105 -9.65554,0.8333 -14.11837,-0.2115 -18.15783,-4.25097 -2.46612,-2.46612 -3.66539,-4.74074 -4.60059,-8.72586 -1.02535,-4.36922 -0.62459,-11.70767 0.91461,-16.7477 3.18881,-10.44159 2.1093,-20.72684 -3.14272,-29.94293 -4.88783,-8.577043 -7.71322,-10.36861 -11.7454,-7.447715 -2.30024,1.666285 -3.47817,4.071095 -3.0758,6.279365 0.16461,0.90346 1.11721,2.90645 2.11688,4.45108 3.58503,5.53941 5.20693,11.5445 4.70899,17.43506 -0.15,1.77455 -0.87283,5.93914 -1.60629,9.25466 -2.77156,12.52855 -2.94487,18.28852 -0.70074,23.28911 1.27572,2.84267 2.74701,4.40528 8.57956,9.1121 3.77767,3.04854 7.41262,7.39337 10.36537,12.38964 1.61617,2.73467 4.18832,5.7798 9.96601,11.79859 4.28318,4.46193 7.65419,8.32847 7.49114,8.5923 -0.16307,0.26384 -1.42607,0.97926 -2.80669,1.58984 -3.19542,1.41317 -3.6636,1.81818 -3.37546,2.92004 0.41035,1.56916 1.65191,1.86239 4.62434,1.09215 4.27449,-1.10763 6.64851,-0.0855 9.14224,3.9362 l 0.76683,1.23668 -2.821,0.002 c -2.01847,10e-4 -3.23677,0.25518 -4.28252,0.89279 -0.80384,0.49011 -1.46153,0.99239 -1.46153,1.11619 0,0.12379 0.77394,0.73724 1.71986,1.36323 1.54294,1.02106 2.10964,1.12721 5.50884,1.03179 3.0262,-0.0849 4.03348,0.0568 5.00356,0.70429 1.22039,0.8145 2.71907,3.49265 3.24301,5.79526 l 0.28139,1.23668 h -9.66131 c -9.15587,0 -9.68614,0.0464 -10.13599,0.88696 -0.40952,0.76518 -0.22167,1.05439 1.36819,2.10652 1.8126,1.19952 1.98641,1.22285 10.57713,1.41972 l 8.73424,0.20005 v 3.48761 3.48761 l -15.17868,0.1713 c -14.94523,0.16867 -15.20464,0.18735 -16.86657,1.21448 -1.90809,1.17926 -1.87559,1.45815 0.28964,2.48562 1.31976,0.62627 3.61098,0.72924 16.22679,0.72924 13.77977,0 14.67554,0.0488 14.45623,0.78697 -0.12859,0.43284 -0.37331,1.39407 -0.54381,2.13608 -0.17052,0.74201 -0.67876,2.08563 -1.12943,2.98584 -1.14305,2.28322 -2.67975,2.72006 -8.29208,2.35722 -5.61347,-0.36292 -8.14281,-0.014 -9.86736,1.36108 -1.14864,0.91589 -1.2467,1.15777 -0.72449,1.78699 0.50224,0.60516 1.633,0.72773 6.71349,0.72773 h 6.10953 l -2.00486,2.08034 c -4.86952,5.05285 -12.30566,9.55536 -19.99289,12.10548 -5.0369,1.67093 -12.48518,1.95376 -17.31347,0.65744 z M 239.56924,154.5218 c 4.15817,-1.30174 6.82213,-3.00792 11.62716,-7.44679 5.96808,-5.51328 9.03659,-6.94103 15.93511,-7.41448 5.77257,-0.39618 8.15939,-1.21248 10.5577,-3.61079 1.77892,-1.77892 3.16352,-4.59012 3.17756,-6.45149 0.025,-3.31485 -3.93929,-7.08815 -6.44574,-6.1352 -1.28607,0.48896 -1.83856,1.35575 -2.3089,3.62234 -0.35623,1.7167 -1.82199,3.5976 -2.80357,3.5976 -1.54957,0 -3.43612,-1.63438 -5.5881,-4.84113 -3.34853,-4.98978 -5.98612,-7.95936 -9.53801,-10.73852 -5.93567,-4.64434 -12.1931,-6.89304 -19.17527,-6.89092 -6.98984,0.002 -13.36539,2.04913 -17.44271,5.60035 -5.24467,4.56795 -10.51726,16.50085 -9.56666,21.6512 0.56373,3.05424 1.8995,5.15513 6.01446,9.45945 5.34404,5.58997 11.05928,9.30941 15.617,10.16343 2.83594,0.53139 7.23673,0.28123 9.93997,-0.56505 z m -124.4432,-2.2382 c 1.46425,-0.50521 3.55235,-1.44019 4.64023,-2.07773 3.88747,-2.27821 10.83728,-9.59174 12.86853,-13.54201 0.95529,-1.8578 0.96552,-6.40011 0.0216,-9.60928 -1.84835,-6.28437 -7.28039,-13.83676 -12.20729,-16.97232 -8.97344,-5.71084 -24.51411,-3.17078 -34.27094,5.60145 -1.309897,1.17771 -3.756025,3.97192 -5.435837,6.20936 -4.808747,6.40504 -7.100484,8.22431 -9.317441,7.39656 -1.093145,-0.40816 -1.603727,-1.34664 -2.357191,-4.33267 -0.854692,-3.38721 -3.597681,-3.8235 -6.402769,-1.01841 -1.761617,1.76162 -1.795785,1.85632 -1.607716,4.45634 0.22986,3.17779 1.732058,5.739 4.402551,7.50626 1.518639,1.00498 2.502431,1.23192 6.680981,1.54114 8.380782,0.62018 13.069986,2.79192 19.781097,9.16133 5.927517,5.6257 9.648995,7.16166 16.494575,6.80778 2.38771,-0.12343 5.13897,-0.58588 6.70958,-1.1278 z M 282.00089,90.502531 c 2.18849,-1.019754 6.00512,-4.292077 17.08863,-14.651524 4.05528,-3.790364 6.18448,-5.421441 8.56746,-6.56311 1.74408,-0.83558 3.74152,-2.047923 4.43876,-2.694102 1.07085,-0.992431 1.22771,-1.421292 1.01016,-2.761881 -0.45241,-2.787865 -2.14866,-4.427977 -6.25615,-6.049125 -2.81879,-1.112517 -4.4356,-1.472621 -6.71384,-1.495331 -3.93119,-0.03919 -5.22686,0.861676 -6.13925,4.268567 -0.59562,2.224035 -1.13107,2.90856 -5.87585,7.511664 l -5.22052,5.064636 -1.04261,-4.165235 c -0.57344,-2.290878 -1.07936,-5.693003 -1.12425,-7.560272 -0.0745,-3.097692 0.0254,-3.52258 1.14038,-4.851362 0.97806,-1.165604 1.16724,-1.74468 0.9476,-2.900773 -0.69774,-3.672697 -2.26794,-4.76723 -8.57162,-5.975001 -5.87438,-1.125518 -7.32474,0.649921 -5.97895,7.31905 0.23953,1.187018 1.67159,8.836267 3.18235,16.998332 1.80549,9.754361 3.11179,15.649217 3.81176,17.201048 1.01477,2.249726 1.14553,2.360721 2.77619,2.356534 0.94118,-0.0022 2.72308,-0.475868 3.95975,-1.052115 z m -87.40017,-4.36679 c 1.62837,-0.429581 12.4244,-8.350895 25.15078,-18.453756 6.05281,-4.805024 6.26167,-5.027095 6.26167,-6.657718 0,-3.356147 -3.5336,-4.861414 -7.0922,-3.021187 -0.78865,0.407823 -3.81579,2.70296 -6.72699,5.100301 -15.87716,13.074685 -17.43845,14.202039 -20.42444,14.747701 -1.88865,0.345137 -4.29616,-0.574069 -8.66976,-3.310187 -4.998,-3.126741 -8.90542,-4.075529 -13.2939,-3.227983 -1.35743,0.262162 -5.30356,1.838718 -8.76916,3.50346 -6.08669,2.923805 -6.41826,3.0268 -9.74453,3.0268 -3.17729,0 -3.57701,-0.107555 -5.17156,-1.391576 -0.95046,-0.765363 -3.71633,-3.679801 -6.14637,-6.47652 -5.3484,-6.155448 -7.65137,-8.130911 -11.77097,-10.097042 -5.58863,-2.667244 -6.33015,-2.830205 -8.23562,-1.809938 -1.9313,1.034096 -2.34594,2.730772 -1.28682,5.26559 0.53442,1.279061 1.01557,1.649569 2.78576,2.145189 4.03663,1.130187 7.07351,3.668536 12.42565,10.385862 6.83767,8.581758 10.12174,10.739313 16.3554,10.745087 3.44596,0.0031 7.68359,-1.175328 13.93168,-3.874512 6.01668,-2.599216 9.75422,-3.077854 12.62945,-1.617357 0.96853,0.491972 3.98699,2.036595 6.70767,3.432497 5.29995,2.719231 6.26353,2.857047 11.08426,1.585289 z m -2.65793,-36.471688 c 2.98936,-1.524069 5.80716,-3.142992 6.26178,-3.597605 0.58085,-0.580852 0.82656,-1.491907 0.82656,-3.064705 0,-1.896066 -0.17326,-2.351664 -1.13366,-2.980945 -1.77953,-1.16599 -4.25092,-1.022963 -6.07013,0.351299 -3.82078,2.88627 -6.52211,2.738491 -13.70728,-0.749868 -2.22602,-1.080719 -4.98441,-2.099505 -6.12975,-2.26397 -2.70409,-0.388289 -6.44646,0.409345 -10.20361,2.174754 -3.67543,1.727013 -7.33742,1.923441 -10.37379,0.556447 -1.94187,-0.87424 -1.96242,-0.874067 -4.4856,0.03772 -2.77233,1.001821 -2.84016,1.186766 -1.70171,4.640067 0.66278,2.01045 3.34624,3.83465 7.02866,4.778041 3.56988,0.914561 6.2846,0.566202 11.14337,-1.42994 4.96516,-2.039854 7.75027,-2.067792 11.79937,-0.11836 2.26773,1.091795 10.35964,4.292316 11.16412,4.415648 0.0805,0.01235 2.5923,-1.224514 5.58167,-2.748584 z"
     id="path3819"
     inkscape:connector-curvature="0" /><path
     style="fill:#ffff00;stroke-width:0.44970059"
     d="m 86.654703,259.71037 c -3.396381,-0.66702 -7.565232,-2.91945 -9.966847,-5.38509 -3.102747,-3.18548 -6.148908,-9.66692 -8.71984,-18.55357 -3.472831,-12.00413 -6.481248,-18.85256 -10.971276,-24.97526 -3.30426,-4.50576 -3.663713,-5.15284 -3.666229,-6.59978 -0.0031,-1.76059 0.932668,-3.06142 2.860095,-3.97604 1.335291,-0.63364 2.174913,-0.66954 6.198945,-0.26502 2.559953,0.25733 7.004142,0.86431 9.875975,1.34883 5.467857,0.92251 8.382072,1.09228 9.214007,0.53678 1.130376,-0.75477 1.604844,-2.75809 2.47934,-10.46841 l 0.920721,-8.11786 -1.137644,-4.36308 c -2.41058,-9.24502 -2.849382,-13.57125 -1.545073,-15.23316 0.646075,-0.82321 3.750254,-1.1873 4.937569,-0.57913 0.575021,0.29453 1.956136,1.41069 3.069145,2.48034 2.737493,2.63086 6.782324,4.98995 10.492929,6.11984 2.64148,0.80434 3.77784,0.89721 8.09461,0.6615 2.76196,-0.15081 5.76902,-0.39879 6.68237,-0.55105 2.23639,-0.37284 3.96063,1.23237 3.96063,3.68721 0,2.11693 -2.70628,6.22879 -14.28804,21.70889 -9.033315,12.07388 -12.010753,16.60743 -13.958481,21.25363 -1.078976,2.57385 -1.19561,3.39378 -1.174135,8.25413 0.02872,6.50053 0.519973,8.06316 5.056946,16.08579 7.64805,13.52386 8.13617,15.73625 3.741232,16.957 -1.94232,0.5395 -9.357216,0.52334 -12.156949,-0.0265 z"
     id="path3821"
     inkscape:connector-curvature="0" /><path
     style="fill:#ffff00;stroke-width:0.44970059"
     d="m 165.07874,291.64865 c -8.50332,-2.46383 -17.3817,-5.59217 -19.97943,-7.03985 -2.53687,-1.41376 -10.37536,-8.28694 -10.37536,-9.09763 0,-0.16563 0.93685,-0.96151 2.08188,-1.7686 l 2.08189,-1.46745 1.40329,1.30245 c 5.9142,5.48916 13.94479,9.1909 22.72357,10.47453 5.18214,0.75773 14.89514,0.31407 19.82733,-0.90565 4.70155,-1.16267 11.12165,-4.22547 14.98203,-7.14739 l 2.89927,-2.19445 2.10672,1.80076 2.10671,1.80076 -1.49123,1.54204 c -2.55746,2.64462 -6.05552,4.64143 -13.79876,7.87681 -4.11361,1.7188 -8.69348,3.64928 -10.17749,4.28994 -3.73414,1.61207 -9.88183,1.84008 -14.39042,0.53373 z"
     id="path3823"
     inkscape:connector-curvature="0" /><path
     style="fill:#ffff00;stroke-width:0.44970059"
     d="m 168.76563,245.9831 c -1.14508,-0.89213 -3.01108,-2.75063 -4.14666,-4.13001 -1.94029,-2.35685 -2.04441,-2.61814 -1.72811,-4.33649 0.70624,-3.83678 -0.10114,-6.84064 -2.81019,-10.45525 -0.59009,-0.78734 -1.07289,-1.53902 -1.07289,-1.6704 0,-0.13138 0.91521,0.15343 2.0338,0.63292 5.59433,2.398 12.33719,2.71951 17.87933,0.8525 1.47228,-0.49598 2.75677,-0.82188 2.85442,-0.72424 0.35175,0.35176 -0.82536,7.33826 -1.61671,9.59563 -1.28663,3.67018 -7.32722,11.85738 -8.74849,11.85738 -0.30939,0 -1.49942,-0.72992 -2.6445,-1.62204 z"
     id="path3825"
     inkscape:connector-curvature="0" /><path
     style="fill:#ffff00;stroke-width:0.44970059"
     d="m 149.78892,223.11031 -4.94671,-0.52466 2.02366,-0.97139 c 2.50902,-1.20439 3.61829,-1.22829 5.78168,-0.12462 1.60208,0.81732 3.332,2.36099 2.48042,2.21336 -0.21579,-0.0374 -2.61836,-0.30412 -5.33905,-0.59269 z"
     id="path3827"
     inkscape:connector-curvature="0" /><path
     style="fill:#ffff00;stroke-width:0.44970059"
     d="m 187.30883,223.13819 c 0.35446,-0.43011 1.44326,-1.18953 2.41956,-1.6876 2.00949,-1.02516 3.91917,-0.86715 5.65501,0.4679 l 1.07412,0.82612 -3.77232,0.31881 c -2.07478,0.17535 -4.27824,0.43986 -4.89658,0.5878 -1.02491,0.24521 -1.0673,0.19988 -0.47979,-0.51303 z"
     id="path3829"
     inkscape:connector-curvature="0" /><path
     style="fill:#ffff00;stroke-width:0.44970059"
     d="m 248.83512,259.20612 c -2.18339,-0.57988 -4.38423,-2.63273 -4.38423,-4.08941 0,-0.61688 1.63244,-4.41663 3.62764,-8.44388 5.14554,-10.38614 5.95292,-12.95283 6.00161,-19.07936 0.0809,-10.17362 -3.33252,-16.82784 -16.59961,-32.36014 -11.73434,-13.73787 -13.54672,-16.36981 -13.05978,-18.96543 0.16661,-0.88811 0.80511,-2.11692 1.41888,-2.7307 0.98936,-0.98936 1.38135,-1.08696 3.45538,-0.86032 6.58116,0.71914 9.73677,0.79615 12.14425,0.29636 3.65027,-0.7578 8.46336,-3.3012 11.46085,-6.05631 2.66941,-2.45356 4.63565,-3.4058 7.0325,-3.4058 3.47519,0 4.33461,2.73438 2.30317,7.32784 -2.14352,4.84688 -2.67554,7.74658 -2.69845,14.70749 -0.0165,5.00898 0.23057,7.91656 1.06571,12.54186 l 1.08718,6.02119 4.53408,-0.31281 c 15.21785,-1.0499 18.35416,-1.13014 19.84389,-0.50769 3.13738,1.31088 3.20417,3.60245 0.22272,7.64134 -4.8422,6.55959 -7.50995,12.808 -10.374,24.29789 -3.75469,15.06301 -5.48333,18.02265 -12.62796,21.62063 -5.02694,2.53152 -10.4609,3.41774 -14.45383,2.35725 z"
     id="path3833"
     inkscape:connector-curvature="0" /><path
     style="fill:#ffff00;stroke-width:0.44970059"
     d="m 228.71137,145.55228 c -3.97317,-1.21296 -8.29258,-4.9223 -10.53977,-9.05114 -1.08377,-1.99123 -1.23152,-2.67348 -1.02093,-4.71396 0.35289,-3.41916 1.71753,-6.14857 4.56857,-9.13759 3.39229,-3.55646 6.65679,-5.14406 11.03944,-5.36871 8.2198,-0.42136 16.69319,4.10144 21.72737,11.59731 0.91138,1.35704 1.65706,2.60675 1.65706,2.77714 0,0.31706 -8.08476,7.20139 -12.41635,10.57275 -3.36283,2.61736 -6.62837,3.75398 -10.64768,3.70608 -1.7839,-0.0213 -3.74937,-0.1931 -4.36771,-0.38188 z m 10.02828,-4.86582 c 0.69252,-0.43153 2.23707,-2.19369 3.43235,-3.9159 l 2.17324,-3.1313 -2.61425,-3.83906 c -4.15771,-6.10569 -4.52801,-6.47307 -6.4515,-6.40076 -3.79093,0.14251 -5.76305,2.2703 -6.02578,6.50142 -0.2215,3.56726 1.10559,7.30813 3.47692,9.80092 1.92418,2.02273 3.83951,2.33659 6.00902,0.98468 z"
     id="path3835"
     inkscape:connector-curvature="0" /><path
     style="fill:#ffff00;stroke-width:0.44970059"
     d="m 103.09338,144.45047 c -1.44369,-0.60899 -2.96143,-1.38855 -3.372757,-1.73236 -5.125796,-4.28444 -13.078677,-11.01491 -13.754901,-11.64067 -0.849099,-0.78574 -0.833127,-0.84884 0.862676,-3.40813 3.914977,-5.90847 9.384902,-10.00529 15.517112,-11.62191 3.40504,-0.89766 9.95668,-1.03294 11.91706,-0.24607 4.12611,1.65616 7.02348,5.17385 9.21226,11.18458 2.13216,5.85525 2.1245,5.88133 -3.26702,11.11714 -7.36841,7.1556 -11.53506,8.70093 -17.11443,6.34742 z m 5.66953,-5.6009 c 3.03248,-1.99959 4.599,-5.85095 4.29862,-10.56833 -0.54127,-8.50048 -8.48113,-8.72826 -12.1874,-0.34962 -1.548334,3.50027 -0.49082,9.28589 2.01857,11.04353 1.35076,0.94611 4.34199,0.88212 5.87021,-0.12558 z"
     id="path3837"
     inkscape:connector-curvature="0" /></svg>