<?xml version="1.0" encoding="UTF-8" standalone="no"?>
<!-- Generator: Adobe Illustrator 22.0.1, SVG Export Plug-In . SVG Version: 6.00 Build 0)  -->

<svg
   xmlns:dc="http://purl.org/dc/elements/1.1/"
   xmlns:cc="http://creativecommons.org/ns#"
   xmlns:rdf="http://www.w3.org/1999/02/22-rdf-syntax-ns#"
   xmlns:svg="http://www.w3.org/2000/svg"
   xmlns="http://www.w3.org/2000/svg"
   xmlns:sodipodi="http://sodipodi.sourceforge.net/DTD/sodipodi-0.dtd"
   xmlns:inkscape="http://www.inkscape.org/namespaces/inkscape"
   version="1.1"
   id="Layer_1"
   x="0px"
   y="0px"
   viewBox="0 0 341.4 300.4"
   style="enable-background:new 0 0 341.4 300.4;"
   xml:space="preserve"
   sodipodi:docname="logo.svg"
   inkscape:version="0.92.2 (5c3e80d, 2017-08-06)"><metadata
     id="metadata3755"><rdf:RDF><cc:Work
         rdf:about=""><dc:format>image/svg+xml</dc:format><dc:type
           rdf:resource="http://purl.org/dc/dcmitype/StillImage" /><dc:title></dc:title></cc:Work></rdf:RDF></metadata><defs
     id="defs3753" /><sodipodi:namedview
     pagecolor="#ffffff"
     bordercolor="#666666"
     borderopacity="1"
     objecttolerance="10"
     gridtolerance="10"
     guidetolerance="10"
     inkscape:pageopacity="0"
     inkscape:pageshadow="2"
     inkscape:window-width="1600"
     inkscape:window-height="837"
     id="namedview3751"
     showgrid="false"
     inkscape:zoom="2.2237018"
     inkscape:cx="170.7"
     inkscape:cy="150.2"
     inkscape:window-x="-8"
     inkscape:window-y="-8"
     inkscape:window-maximized="1"
     inkscape:current-layer="Layer_1" /><style
     type="text/css"
     id="style3728">
	.st0{fill:#231F20;}
</style><g
     id="g3748"><path
       class="st0"
       d="M0,181.1c4.7-29,10.8-57.5,32-80c-10.7-7.2-14.3-18.8-18.8-29.7c-4.6-11.2-7-23.1-5.3-35.2   C9.3,25.9,12.2,15.8,15,5.7c0.6-2.2,3.5-4.8,5.7-5.1c2.1-0.3,4.8,1.9,6.9,3.4c3.8,2.7,7.1,6.1,11,8.6c7.9,5,16,9.6,24.2,14   c1.7,0.9,4.2,1.2,6.1,0.6c16.3-5.1,32.6-10.5,48.9-15.7c19.9-6.4,40.2-10.9,61.3-9.3c19.2,1.4,37.6,6.9,55.7,13.1   c12.7,4.3,25.6,8.2,38.5,12.1c1.4,0.4,3.4,0.3,4.6-0.4c10.7-6.4,21.4-12.9,31.9-19.5c1.6-1,3-2.6,4.2-4.2c3.8-4.9,9.7-4.4,12.1,1.5   c9.1,22.5,10.9,45.2,1.5,68c-2.9,7-6.6,13.8-10.4,20.4c-1.7,2.9-4.7,5.1-7.1,7.7c7.8,11.8,17.7,23.3,21.6,38.1   c3.8,14.3,7.2,28.6,9.7,43.6c-9.8-8.7-19.7-17.5-30.5-27.2c0.2,2.1-0.1,3.6,0.4,4.2c8.3,8,9.1,18.1,9,28.9   c-0.2,20.2-2.1,40.2-6.4,60c-0.6,2.7-2.6,5.9-5,7.2c-3.5,1.9-6-1.3-8.2-3.9c-3.6-4.3-7.4-8.5-11.5-13.1   c-6.1,9.1-11.9,17.7-17.7,26.3c-5,7.4-7.1,7.6-15.2,4.1c-3-1.3-7.4-1.3-10.4-0.1c-24.3,9.7-48.5,19.8-72.6,30.1   c-4.2,1.8-7.2,1.6-10.9-0.4c-21.4-11.8-43.7-21.8-66.8-29.9c-4.2-1.5-8-1.4-11.9,0.8c-4.8,2.9-8.9,2-12.1-2.6   c-6.4-9.3-12.7-18.7-19.4-28.7c-4.2,4.8-8,9.6-12.3,13.9c-1.8,1.8-4.9,3.6-7,3.1c-2-0.5-4.4-3.5-4.9-5.8   c-5.6-23.5-7.3-47.3-6.7-71.4c0.2-7.3,4.3-12.3,8-17.7c0.7-1,1.1-2.3,1.6-3.5c-0.4-0.3-0.8-0.5-1.2-0.8c-9.5,8.4-19,16.8-28.5,25.2   C0.8,181.4,0.4,181.3,0,181.1z M75.1,48.3c-0.4-0.2-0.8-0.5-1.2-0.7c-9.3-5.5-18.6-10.9-27.8-16.3C38.7,27,31.4,22.6,23.7,18   c-3.1,8.8-4.6,17.5-4.1,26.4c1,18.3,8.8,34,19.1,48.7c2,2.9,2.8,6.8,3.9,9.8c6.5-2.2,14.2-5,22.1-7.5c2.5-0.8,6-0.9,6.3,2.7   c0.1,1.7-1.9,4.3-3.7,5.3c-8.6,5.1-17.6,9.4-26,14.7c-15,9.6-26.6,21.8-28.5,40.9c4-3,8-5.9,11.9-9c5.8-4.4,11.1-9.9,18.9-10.1   c2.1-0.1,4.6,1.5,6.1,3c0.5,0.6-1,3.8-2.2,5.2c-5.8,6.9-12,13.9-13.2,22.9c-2.9,21.7-0.4,43.2,3.1,65.5c3.6-3.8,6.9-6.9,9.6-10.4   c1-1.4,1.5-3.9,1.1-5.6c-2-8-4.7-15.8-6.5-23.8c-0.6-2.7-0.2-7,1.5-8.5s5.7-0.4,8.7-0.1c1.2,0.1,2.3,1.2,3.6,1.6   c6.5,1.7,13,3.3,19.9,5.1c0.1-2.7,0.5-4.2,0.3-5.6c-1.3-8.5-2.9-17-4.2-25.5c-0.7-4.2-1.6-8.6-1.3-12.8c0.3-4.9,3.7-6.2,7.7-3.4   c3.4,2.4,6.7,4.9,9.9,7.6c9.5,7.9,20.4,11.2,32.8,10.9c10.5-0.3,21.7-13.3,19.5-23.5c-1-4.5-2.1-8.9-3.6-13.2   c-4.1-11.5,0.7-20.8,7.1-29.6c2.9-4,8.5-3,9.6,1.8c0.6,2.3-0.3,5.5-1.7,7.7c-4.7,7.6-6,15.4-3.2,23.9c1.4,4.2,2.6,8.5,3.8,12.8   c1.6,6.4-2,15.2-7.3,19c-3.2,2.3-6.3,4.9-8.8,8c-3.5,4.2-6,9.1-9.5,13.2c-3.9,4.7-8.5,8.8-12.8,13.2c0.3,0.5,0.6,0.9,1,1.4   c1.4,0.1,2.9-0.1,4.2,0.3c1.3,0.5,2.3,1.6,3.4,2.5c-1.2,0.6-2.3,1.5-3.5,1.7c-1.8,0.3-3.7,0.1-5.5-0.1c-3.8-0.4-5.7,1.4-6.8,5   c2.7,0.5,5.1,0.9,7.5,1.4c-0.1,3.9-0.4,4-5.8,3.6c-7.4-0.7-9.2,0.8-10.2,9.1c5.3,0,10.6-0.1,15.8,0.1c1.3,0.1,2.5,1.2,3.8,1.8   c-1.3,0.7-2.5,1.9-3.8,2c-5.1,0.2-10.2,0.1-15.4,0.1c1.8,8.9-0.3,7.9,8.4,8c6.5,0,13-0.1,19.5,0.1c1.4,0,2.7,1.3,4.1,2   c-1.5,0.6-3,1.7-4.5,1.7c-7.9,0.2-15.7,0.1-23.8,0.1c2.4,8.2,2.8,8.4,10.4,8.6c2.1,0.1,5.6-1.4,5.7,3.3c-2.8,0.2-5.3,0.3-8.6,0.5   c1.3,1.5,2,2.6,2.9,3.4c9.4,8.1,20.3,12,32.6,10.4c5.4-0.7,10.9-2.5,15.8-4.9c4.5-2.2,4.4-5.7,1-9.2c-2.3-2.4-4.4-5-6.7-7.4   s-2.5-4.6-0.7-7.6c0.7-1.2,0.7-3.9-0.1-4.8c-0.8-0.9-3.2-0.4-4.8-0.4c-2.3-0.1-4.9,0.5-6.7-0.4c-3.1-1.5-5.7-4-8.4-6.2   c-3.2-2.6-3-7.1,0.7-9c3.4-1.7,6.9-3.4,10.4-4.7c4.4-1.6,8.6-1.3,12.6,1.8c10.1,7.7,16.2,7.7,26.4,0.1c3.9-2.9,7.8-4.3,12.5-2.3   c3.9,1.7,7.9,3.4,11.6,5.6c1.2,0.7,2,2.8,2,4.3c0,2.9-11.3,12.1-14.1,11.9c-0.8-0.1-1.5-0.8-2.3-0.8c-1.9-0.1-3.8,0-5.7,0.1   c0.2,1.7-0.2,3.6,0.6,5.1c1.4,2.7,1.4,4.9-0.7,7.2c-1.4,1.4-2.7,3-4,4.4c-3.8,3.9-4.1,7-0.5,11.1c2.2,2.4,4.9,4.6,7.9,5.8   c7.1,3,14.6,3.4,21.9,1.1c8.7-2.7,16.3-7.3,23.2-14.9c-5.2,0-9.2,0-13.2,0c-0.2-0.4-0.4-0.8-0.6-1.1c1-0.7,2-2,3.1-2.1   c2.6-0.3,5.3-0.3,8-0.1c7.3,0.6,8.4-0.3,10-8.6c-9.7,0-19.3,0.1-28.9-0.1c-1.3,0-2.6-1.1-4-1.7c1.2-0.7,2.4-2,3.6-2.1   c10-0.2,20-0.1,30.2-0.1c0-2.3,0-5.1,0-8c-6.1,0-11.7,0.2-17.1-0.1c-1.4-0.1-2.7-1.5-4-2.3c0.3-0.5,0.6-1.1,0.8-1.6   c6.4,0,12.8,0,19.4,0c-0.9-5.6-3-9.1-9.1-8c-1.1,0.2-2.4,0.3-3.5-0.1c-1.2-0.4-2.1-1.4-3.2-2.1c1-0.6,1.9-1.5,3-1.7   c1.7-0.3,3.5-0.1,5.7-0.1c-2.2-4.4-4.7-6.9-9.3-5.9c-2.1,0.5-4.9,2.2-5.5-1.4c-0.1-0.6,3.4-1.8,5.2-2.7c0.3-0.1,0.5-0.4,1.7-1.4   c-4.8-5-9.6-9.9-14.3-14.8c-1-1.1-2-2.2-2.7-3.5c-3.6-7.1-8.8-12.8-15.3-17.4c-4.6-3.2-6.2-8.4-6.2-13.4c0-5.9,1.3-11.8,2.7-17.6   c2.4-9.4,1.7-18-4.3-26c-2.4-3.3-1.8-6.8,1.5-9.3c3.5-2.7,6.2-0.9,8.4,2.2c7.7,10.8,10.5,22.7,6.2,35.5c-2.1,6.4-2,12.3-0.3,18.6   c1.5,5.5,7.7,10.8,13.3,11c11.7,0.4,22.9-0.7,32.4-8.7c3.6-3,7.3-5.8,11.3-8.3c2.1-1.3,5.8-3.1,6.8-2.3c1.8,1.5,3,4.8,2.8,7.3   c-0.3,5.1-1.6,10.1-2.7,15.2c-1.6,7.9-3.5,15.8-2.4,24c8.1,0.7,15.2-1.3,22.2-4.1c3-1.2,7.7-2.2,9.5-0.8c1.9,1.6,1.4,6.2,1.8,9.5   c0.1,0.4-0.4,0.9-0.5,1.4c-2.1,7.4-4.3,14.8-6.3,22.3c-0.3,1.2-0.5,3.2,0.2,3.9c3.3,3.6,6.9,7,10.5,10.6c0.5-1.7,1.2-3.1,1.2-4.5   c1.1-15.9,2.1-31.8,3.1-47.7c0.9-14.4-5.3-25.9-14.9-36.1c-1.1-1.2-2.1-3.8-1.6-5c0.6-1.3,3-2.2,4.8-2.5c5.7-0.9,10.2,2.1,14.5,5.3   c5.9,4.4,11.7,9,18.8,14.5c-2.5-7.5-4.4-13.6-6.6-19.6c-0.6-1.7-1.5-3.3-2.7-4.6c-12.7-14-27.9-24.5-45.3-32   c-2.8-1.2-6.2-2.1-5-6.1c1.2-4.1,4.8-2.9,7.6-2.3c3.1,0.6,6.1,1.5,9.1,2.7c4.3,1.6,8.4,3.6,11.7,5c1-3,1.4-6.3,3.1-8.6   c10.6-14.4,18.1-30,20.1-47.9c1.1-9.8-1-19.2-4-28.2c-13.5,7.5-26.7,15.1-40,22.5C265,48.2,252.9,55.9,243,66.7   c-2.1,2.3-2.3,4-0.1,5.8c2.7,2.2,5.6,4.1,8.5,5.9c3.8,2.3,5,5.4,3,8.6c-2.2,3.5-5.6,4.6-9,2.1c-4.8-3.5-9.5-7.3-13.4-11.7   c-4.4-5-4.4-10.2-0.1-15.5c4.3-5.2,9.2-10,14.3-14.6c4-3.6,8.7-6.5,13.6-10.1c-14.4-5-28.2-9.9-42-14.5c-26.1-8.7-52.7-12-79.5-4.2   c-16.8,4.9-33.2,10.8-49.8,16.3c-2.1,0.7-4.2,1.4-7.1,2.4c2.3,1.6,3.9,2.5,5.3,3.7c7.5,6.7,15.2,13.4,22.5,20.4   c3.3,3.2,4.5,7.7,2.5,12c-3.5,7.7-9.8,13-17.5,16.4c-3.2,1.4-6-0.1-7.5-3.2s-1-5.7,2.3-7.6c2.7-1.5,5.4-3.2,7.9-5.1   c3-2.4,4-5.7,0.7-8.4C90.2,59.5,82.6,53.9,75.1,48.3z M84.7,183.4c-0.7,6-1.3,10.1-1.6,14.2c-0.3,4.2-2.2,5.1-6.2,4.3   c-6.1-1.2-12.4-2.1-18.6-2.5c-1.7-0.1-4.2,1.5-5,3c-0.7,1.3,0,4.1,1.1,5.3c7.5,8.8,11,19.1,14,30.2c4.8,17.7,12.1,23.7,28.7,22.4   c4.5-0.4,6-3,3.9-7c-2.3-4.2-4.4-8.6-6.9-12.7c-5.3-8.5-5.7-17.6-0.9-26c5-8.7,11.7-16.3,17.5-24.5c3-4.1,6.2-8.2,8.7-12.6   c1.6-2.8-1.3-6.9-4-6.1c-10.9,3-19.7-0.1-27.3-8.1c-1-1.1-4.5-0.9-6,0.1c-1,0.6-1.1,3.7-0.8,5.5C82.2,174.3,83.7,179.6,84.7,183.4z    M262,204c-2.3-11.1-4.7-22.8,1-34.3c1.3-2.6,1.2-5.2-1.5-6.3c-1.7-0.6-4.1,0.3-6,0.9c-1,0.3-1.7,1.6-2.5,2.4   c-5.3,4.8-11.5,7.1-18.6,6.6c-3.3-0.3-7.1-3-9.5,1c-2.6,4.4,1.7,7.3,3.5,10.6c0.6,1.1,1.7,2,2.6,3c4.8,5.7,9.9,11.2,14.3,17.2   c6.7,8.9,11,18.8,7.6,30.1c-1.8,5.8-4.9,11.2-7.7,16.6c-1.7,3.2-1.1,5.4,2,7c7.1,3.5,21.6-2,24.5-9.3c1.5-3.8,3-7.7,3.8-11.6   c2.2-10.3,5.2-20,12.1-28.3c2.7-3.3,0.5-7.2-3.7-7C276.8,202.6,269.7,203.4,262,204z M134.1,275.4c6.2,7.1,11,10.5,19.6,12.9   c9,2.4,17.2,7.6,27.6,2.3c8-4.1,17.5-5.5,23.9-13.1c-1.7-1.5-3.1-2.8-4.5-4.1c-9.1,8.1-19.5,11.2-31.3,11s-22-4-30.5-12.4   C137.3,273.2,135.9,274.2,134.1,275.4z M182.3,225.3c-7.1,3.6-15.3,3.8-24.6-1c4.1,4.9,6.6,8.7,4.8,13.9c-0.3,0.8,0.4,2.2,1.1,2.9   c1.7,2,3.6,3.9,5.6,5.7c0.8,0.7,2.7,1.5,2.9,1.2c2.8-3.5,6-6.8,7.8-10.8C181.5,233.7,181.6,229.4,182.3,225.3z M144.5,222.8   c4.5,0.4,8,0.7,11.8,1.1C152.9,220.7,149.7,218.6,144.5,222.8z M196.8,222.9c-4.4-4.5-7.4-1.9-11,1.1   C189.9,223.5,193.4,223.2,196.8,222.9z"
       id="path3730" /><path
       class="st0"
       d="M75.1,48.3c-0.3,3.1-0.5,6.1-1,9.2c-1.3,8.9-2.7,17.7-4,26.5c-0.2,1.5-0.1,3.1-0.7,4.4   c-0.8,1.7-1.8,3.9-3.2,4.4c-1.5,0.5-4-0.4-5.3-1.5c-6.2-5.5-12.1-11.3-18.2-17c-2.6-2.5-4.8-5.4-9.1-5.3c-1.1,0-3.1-2.3-3.2-3.7   c-0.1-1.6,1.1-4.1,2.5-4.8c3.5-1.8,7.4-3.1,11.2-3.8c1.6-0.3,4.9,1.5,5.1,2.6c0.9,7.3,7.5,9.6,11.8,14.2c0.3-5.8,5.4-11.2,0.3-17.3   c-1.9-2.2-0.7-5,2.2-5.9c3.4-1.2,7-1.9,10.4-2.9C74.3,47.8,74.7,48,75.1,48.3z"
       id="path3732" /><path
       class="st0"
       d="M236.4,108.3c9.8,0.5,19.9,6.2,26.9,17.3c0.9,1.4,1.7,3,2.9,4c2.7,2.2,5.5,1.3,6-2.1c0.5-2.8,1.9-4.9,4.5-3.8   c1.8,0.7,3.8,3.4,3.9,5.3c0.3,5.6-5.6,10.6-11.8,10.3c-6.8-0.3-12.4,2.1-17.1,7c-11.1,11.8-23.8,12-35.3,0.8   c-9.4-9.1-10.2-12-6-22.1C215.2,113.4,222.2,108.2,236.4,108.3z M256.6,131.9c-4.5-8.4-11.3-13.7-21.2-15   c-9.2-1.3-19.2,7.7-18.6,16.9c0,0.6,0.3,1.3,0.6,1.9c6.4,12.2,18.9,14.2,28.9,4.8C249.5,137.6,252.9,135,256.6,131.9z"
       id="path3734" /><path
       class="st0"
       d="M107.9,153.3c-6.3,0.4-11.5-2.2-15.6-6.5c-6-6.5-12.8-9.8-21.8-9.6c-5.6,0.1-10.2-5.3-9.3-10.7   c0.3-1.6,2.2-3.5,3.8-4c2.4-0.8,3.8,0.6,4.1,3.5c0.4,4,3.4,5,6.6,2.2c2.4-2.2,4.4-4.9,6.3-7.6c7.2-10.5,23-16.1,34.7-12.2   c8.9,2.9,18.2,17.3,16.4,26.4c-0.6,2.8-3.1,5.4-5,7.8C122,149.8,115.4,153.3,107.9,153.3z M84.8,130.4c4.3,3.7,8.4,7,12.3,10.5   c5.6,5,11.5,6.4,17.1,2.7c3.8-2.5,6.9-6,10.2-9.2c0.7-0.7,0.9-2.2,0.7-3.2c-3.8-13.9-9.6-18.7-23.4-15.2   C93.5,118.1,88.6,124,84.8,130.4z"
       id="path3736" /><path
       class="st0"
       d="M189.2,87c-2.9-1.4-6.6-2.8-9.9-4.9c-4.2-2.8-8.1-2.8-12.6-0.7c-4.3,2-8.8,4-13.5,4.9   c-6.6,1.3-12-1.7-16.2-6.8c-4.8-5.9-8.4-12.9-17-14.6c-1-0.2-2-3.4-1.7-5c0.1-1,3-2.6,4-2.3c3.8,1.4,7.8,3,10.9,5.5   c3.7,3,6.5,7.1,9.7,10.7c4.7,5.3,8.2,6,14.6,2.9c2.3-1.1,4.5-2.2,6.7-3.3c6.5-3.3,12.7-2.9,18.8,1.3c6.9,4.8,9.4,4.6,16.1-0.6   c6-4.7,11.8-9.8,17.8-14.6c1.5-1.1,3.5-2.2,5.2-2.2c3.3,0,5.2,4,2.8,6c-9.3,7.5-18.8,14.8-28.4,21.9   C194.9,86.3,192.4,86.2,189.2,87z"
       id="path3738" /><path
       class="st0"
       d="M282.7,73.7c4.1-5.5,11-7.2,11.8-14.7c0.1-1.2,3.6-3.1,5.3-2.9c3.5,0.4,7.2,1.7,10.3,3.4   c1.6,0.9,3.1,3.6,3,5.3c-0.1,1.4-2.6,2.7-4.3,3.8c-1.4,0.9-3.4,1.1-4.6,2.2c-6.5,5.9-12.8,12.1-19.5,17.9c-2,1.7-5.2,2.9-7.7,2.7   c-1.2-0.1-2.4-4.1-2.9-6.4c-2.1-10.7-4-21.4-6-32.1c-0.6-3.3,0.3-6,4.2-5.4c3,0.4,6.3,1.2,8.8,2.7c1.2,0.7,2.1,4.9,1.4,5.4   c-3.9,3.3-1.8,7-1.5,10.5C281.4,68.2,282.1,70.4,282.7,73.7z"
       id="path3740" /><path
       class="st0"
       d="M186.5,52.2c-4.1-1.5-7.5-2.4-10.5-4.1c-4.2-2.4-8-2.6-12.2-0.4c-5.9,3.1-12,3-17.3-1.1c-1.3-1-1.4-3.5-2-5.3   c1.9-0.6,4.5-2.3,5.6-1.6c4.4,2.6,8.3,1.9,12.3-0.2c5.5-2.9,10.8-2.7,16.1,0.5c4.9,2.9,9.6,4.2,14.6-0.3c0.9-0.8,4.6-0.2,5.4,0.9   c0.9,1.2,0.5,4.7-0.5,5.5C194.4,48.5,190.3,50.2,186.5,52.2z"
       id="path3742" /><path
       class="st0"
       d="M244.1,133.6c-2.5,3.1-3.8,6.5-6.1,7.4c-3.7,1.4-6-1.8-7.4-4.9c-1.7-3.8-2.2-7.9,0.7-11.2   c1.1-1.2,4.8-1.9,5.6-1.1C239.5,126.3,241.3,129.7,244.1,133.6z"
       id="path3744" /><path
       class="st0"
       d="M113.1,129.4c0,5.5-3.6,10.4-7.4,10.2c-4.5-0.2-5-4-5.4-7.2c-0.5-4.7,3.8-10.4,7.4-10.5   C110.9,121.8,113.1,124.8,113.1,129.4z"
       id="path3746" /></g><path
     style="fill:#ffffff;stroke-width:0.44970059"
     d="m 196.78263,267.39511 c -5.4282,-1.45737 -8.52418,-3.21818 -11.84153,-6.73475 -4.74076,-5.02545 -4.57074,-6.61254 1.43953,-13.43805 2.0407,-2.31749 3.67849,-4.59111 3.70627,-5.14514 0.0909,-1.81232 -0.11587,-3.06468 -0.76073,-4.60805 -0.35098,-0.84002 -0.63815,-2.23291 -0.63815,-3.09532 0,-1.43545 0.13284,-1.59294 1.57117,-1.86277 0.86414,-0.16212 2.33129,-0.15472 3.26033,0.0164 4.88128,0.89929 7.57284,-0.37919 13.71865,-6.51629 2.88264,-2.87857 3.48518,-3.72677 3.48518,-4.90619 0,-3.34391 -1.8142,-4.80474 -10.8561,-8.74155 -7.44249,-3.24045 -9.29156,-2.99488 -17.35083,2.30428 -8.75964,5.75968 -13.86334,5.71884 -22.6267,-0.18107 -4.79614,-3.229 -6.10889,-3.75696 -9.3414,-3.75696 -3.15182,0 -6.33536,1.02967 -12.55411,4.06045 -4.94938,2.41214 -5.97123,3.50374 -5.9655,6.37275 0.004,2.05119 1.04824,3.44979 4.9543,6.63611 5.0994,4.15978 6.22126,4.5846 11.7998,4.46819 2.57324,-0.0537 4.91473,0.0483 5.2033,0.22664 0.72701,0.44932 0.62919,3.85505 -0.14989,5.21789 -0.87737,1.5348 -0.83577,4.50961 0.0819,5.85847 0.41605,0.61154 2.50403,3.03436 4.63994,5.38405 2.13592,2.34968 4.22389,4.7725 4.63994,5.38404 0.9497,1.39591 0.97162,3.55238 0.0495,4.86891 -1.59563,2.27808 -11.39882,5.92856 -18.43747,6.86569 -7.39698,0.98483 -15.1576,-0.28852 -22.02906,-3.6145 -4.25349,-2.05881 -10.40824,-6.47488 -11.85408,-8.50538 l -0.99772,-1.40116 2.39156,-0.005 c 4.15482,-0.009 5.76524,-0.43247 5.75741,-1.51541 -0.0147,-2.03591 -0.59818,-2.28812 -5.95592,-2.5745 -2.80303,-0.14982 -5.56153,-0.52132 -6.13001,-0.82556 -0.93521,-0.50051 -2.64142,-3.60865 -3.40879,-6.20966 l -0.29852,-1.01183 11.83494,-0.0245 c 10.00523,-0.0207 12.14207,-0.14235 13.82146,-0.78698 1.09257,-0.41939 2.05575,-0.9707 2.14038,-1.22514 0.0846,-0.25445 -0.50575,-0.86154 -1.31195,-1.3491 -1.34724,-0.81476 -2.55696,-0.90468 -14.95136,-1.11134 l -13.48552,-0.22485 -0.528938,-1.12425 c -0.290911,-0.61834 -0.670841,-2.28785 -0.844286,-3.71003 l -0.315357,-2.58578 h 7.945441 c 7.65576,0 8.0036,-0.0395 9.5409,-1.08415 l 1.59548,-1.08415 -1.24647,-0.81671 c -1.48446,-0.97266 -5.59578,-1.44577 -12.89744,-1.48419 -6.001444,-0.0316 -5.815335,0.12592 -4.617553,-3.90746 0.366537,-1.23426 1.191853,-2.73814 1.834033,-3.34195 1.09062,-1.02546 1.52846,-1.10465 6.64045,-1.20098 5.98359,-0.11276 6.59861,-0.37979 6.59861,-2.86503 0,-1.16616 -0.14979,-1.24799 -3.26033,-1.78127 -1.79318,-0.30742 -3.42932,-0.70728 -3.63587,-0.88857 -0.61727,-0.54178 0.96683,-3.065 2.38448,-3.7981 0.91163,-0.47142 2.65914,-0.68216 5.65668,-0.68216 3.29053,0 4.65279,-0.18623 5.64359,-0.77151 1.57066,-0.92781 1.58738,-1.05669 0.29424,-2.26805 -1.29437,-1.21251 -3.13805,-1.90715 -5.06187,-1.90715 -0.83498,0 -1.64787,-0.20991 -1.80643,-0.46646 -0.15856,-0.25656 2.62583,-3.46612 6.18752,-7.13236 4.58744,-4.7221 7.55647,-8.26033 10.18171,-12.13371 5.1444,-7.5902 7.39358,-10.16391 12.40426,-14.19402 6.61686,-5.32198 9.30194,-10.16256 9.36865,-16.88961 0.0267,-2.69451 -0.3126,-4.50318 -1.68737,-8.99402 -3.01369,-9.84452 -3.40428,-11.40054 -3.66865,-14.61526 -0.37931,-4.61247 0.67368,-8.93524 3.61494,-14.84012 3.01772,-6.05839 3.3863,-7.8963 2.14591,-10.7004 -1.09662,-2.47911 -3.05595,-3.684906 -5.37594,-3.308421 -2.31159,0.375118 -3.28998,1.201812 -5.74107,4.850921 -7.23405,10.76985 -8.48941,18.00258 -5.02382,28.94472 0.8617,2.72069 2.03375,7.02046 2.60457,9.55504 0.94211,4.18328 0.98487,4.86477 0.46362,7.38845 -0.88296,4.27487 -2.92001,7.83061 -6.58814,11.49983 -4.57703,4.57839 -7.87566,6.09192 -13.80383,6.33373 -7.43684,0.30334 -15.6825,-1.48962 -22.38547,-4.86757 -3.698081,-1.86364 -5.955389,-3.38859 -11.017664,-7.44313 -9.453759,-7.57181 -12.270773,-8.77203 -14.649307,-6.24149 -0.950123,1.01085 -1.10862,1.66093 -1.233452,5.05913 -0.115425,3.14205 0.386711,7.07678 2.585778,20.26226 2.464229,14.77537 3.180435,21.03537 2.486093,21.72971 -0.384175,0.38417 -19.45401,-4.52589 -21.365852,-5.50124 -1.08039,-0.55118 -3.147364,-0.98778 -5.550987,-1.17254 -4.543347,-0.34923 -5.80321,0.20271 -6.542961,2.86647 -1.031597,3.71466 -0.722839,5.44922 3.833877,21.53814 1.340411,4.73274 2.437111,9.40728 2.437111,10.38786 0,2.23772 -1.213201,4.05605 -6.38383,9.56801 -4.536305,4.83576 -3.94362,5.33911 -5.300819,-4.50188 -2.643274,-19.16628 -3.472459,-32.68147 -2.743364,-44.71511 0.990054,-16.34077 2.188152,-19.65523 11.063862,-30.60748 2.149227,-2.65205 4.319029,-5.75182 4.821781,-6.88838 l 0.914096,-2.06647 -1.523138,-1.27245 c -2.287765,-1.91124 -4.382933,-2.39587 -7.694985,-1.77993 -3.756093,0.69852 -6.730037,2.23812 -11.682211,6.04785 -15.620218,12.01669 -15.865521,12.18627 -16.002437,11.06266 -0.236499,-1.94084 2.116604,-9.93677 4.16103,-14.13933 2.566752,-5.27626 6.364672,-10.31626 11.28003,-14.96905 6.636181,-6.2817 11.176069,-9.22893 32.215814,-20.91405 9.028207,-5.01411 11.216968,-7.369987 9.732465,-10.475552 -0.433322,-0.906506 -1.110859,-1.394553 -2.367983,-1.705732 -1.606133,-0.397567 -2.816264,-0.07954 -13.761603,3.616555 L 42.659828,102.6146 41.46437,98.943767 C 40.61022,96.320969 39.15203,93.555153 36.356938,89.256258 23.972107,70.208196 18.393865,51.970705 20.011586,35.816802 20.522032,30.719693 21.981571,23.655998 23.285594,19.971658 l 0.58716,-1.65894 3.372755,2.060709 c 1.855015,1.13339 12.92235,7.669097 24.59408,14.523794 l 21.221326,12.463084 -5.032105,1.436326 c -5.672051,1.618987 -6.8914,2.263145 -7.570313,3.999252 -0.407712,1.042588 -0.246819,1.63317 1.144321,4.200441 1.976826,3.648112 2.061819,5.492159 0.494487,10.728585 -0.618339,2.065857 -1.124252,4.13783 -1.124252,4.604385 0,0.677897 -0.516751,0.413581 -2.572665,-1.315923 -5.618539,-4.726501 -7.678265,-7.105094 -8.449292,-9.757333 -1.560625,-5.368362 -5.425642,-5.935681 -14.458706,-2.122295 -3.557397,1.501789 -5.098977,3.278084 -5.098977,5.87533 0,2.083004 1.734219,3.824253 4.256616,4.273877 2.84988,0.507991 3.706925,1.141966 11.276721,8.341618 10.301037,9.797339 15.126943,14.179833 16.278703,14.782999 1.385312,0.72547 3.978699,0.764491 4.812606,0.07242 2.442472,-2.027075 2.768519,-3.563724 6.588356,-31.050881 0.773364,-5.565045 1.535669,-10.673209 1.694013,-11.351474 0.285479,-1.222872 0.363538,-1.175744 9.310516,5.621257 4.962441,3.769958 10.062869,7.663929 11.334285,8.65327 5.603701,4.360468 4.549421,7.269451 -4.675883,12.901825 -5.496038,3.355526 -6.480159,5.2713 -4.70998,9.168851 2.03284,4.475874 5.500212,4.926906 11.57595,1.505791 7.863754,-4.427901 14.553304,-13.081777 14.553304,-18.826733 0,-3.82617 -1.43677,-6.272056 -6.3563,-10.820692 C 96.604895,49.287155 86.660324,40.549258 84.444672,39.049403 82.816333,37.947119 82.245047,37.331253 82.645869,37.110224 83.899122,36.419132 130.79524,20.890147 136.7476,19.195199 c 10.68549,-3.042712 17.83564,-4.243225 28.55599,-4.794565 13.58458,-0.698645 32.68008,2.198069 49.25266,7.471441 5.51648,1.755337 43.4092,14.816136 44.1341,15.212067 0.30023,0.163984 -1.78383,1.916572 -4.88549,4.108432 -8.64866,6.111797 -21.59367,18.846025 -23.97553,23.58515 -1.47446,2.933703 -1.52799,6.762912 -0.13477,9.640924 1.25476,2.591993 7.00298,8.328487 12.61031,12.584597 5.1754,3.92826 7.13118,4.463732 9.79093,2.680647 2.01137,-1.3484 3.73425,-4.613146 3.38843,-6.420807 -0.4202,-2.196374 -1.40751,-3.251664 -5.7543,-6.150492 -6.52029,-4.348308 -7.97724,-5.648752 -7.97724,-7.120325 0,-3.356453 11.78773,-13.792469 24.99569,-22.129406 4.78119,-3.017917 48.61224,-27.884151 50.27605,-28.522613 1.30218,-0.499694 4.11332,11.216277 4.60729,19.201795 0.35259,5.70005 -0.28793,11.423642 -2.11633,18.911206 -2.61164,10.695079 -7.57182,21.485964 -15.08425,32.81581 -3.05038,4.600424 -4.46923,7.210252 -5.13469,9.444765 -0.50577,1.698245 -1.00942,3.087725 -1.11924,3.087725 -0.10981,0 -3.08613,-1.23792 -6.61404,-2.75094 -5.9822,-2.565595 -15.20199,-5.343666 -17.73443,-5.343666 -1.58621,0 -2.73614,0.732571 -3.51541,2.2395 -1.70003,3.287506 -0.39684,5.066426 5.6166,7.666886 9.23684,3.99438 18.72297,9.54776 27.17269,15.90742 6.18084,4.65201 16.89455,14.85015 18.52664,17.6351 1.10245,1.88118 7.51352,20.4103 7.17804,20.74578 -0.096,0.096 -4.76332,-3.35852 -10.37179,-7.67673 -5.60848,-4.31822 -11.53652,-8.53126 -13.17344,-9.36233 -2.64616,-1.34345 -3.37784,-1.51102 -6.59803,-1.51102 -2.61878,0 -4.08429,0.22997 -5.29168,0.83038 -3.31967,1.65078 -2.87687,3.58617 2.24687,9.8204 5.96517,7.25803 9.22977,13.23018 11.13972,20.37856 1.30192,4.87273 1.26154,11.45951 -0.21089,34.4021 -1.47581,22.99537 -2.00631,28.68004 -2.74539,29.41912 -0.30375,0.30375 -2.15202,-1.28495 -5.61838,-4.82932 -4.02743,-4.11805 -5.1655,-5.55126 -5.1647,-6.504 4.5e-4,-0.67212 1.55218,-6.58471 3.44804,-13.13909 3.1559,-10.91067 3.43894,-12.22089 3.35156,-15.51467 -0.11093,-4.1811 -0.68864,-6.34672 -1.86037,-6.97382 -1.8282,-0.97841 -5.51778,-0.46854 -11.39799,1.57516 -7.26332,2.52439 -11.35463,3.375 -16.23319,3.375 h -3.84142 v -5.11717 c 0,-5.42708 0.61778,-9.56575 3.36446,-22.53941 1.88895,-8.92223 2.16522,-13.6066 0.94156,-15.96437 -1.12132,-2.16058 -2.05428,-3.14791 -2.97454,-3.14791 -1.41776,0 -7.79711,3.54416 -11.52445,6.40261 -2.01977,1.54894 -5.05525,3.87588 -6.74551,5.17099 -6.25215,4.7905 -12.46288,6.98052 -22.18547,7.82303 -6.92624,0.60018 -10.6106,0.29573 -13.73584,-1.13505 -2.7915,-1.27799 -6.03433,-4.34196 -7.37335,-6.96666 -2.64224,-5.1792 -2.95403,-14.35746 -0.73462,-21.6248 3.18881,-10.44159 2.1093,-20.72684 -3.14272,-29.94293 -4.88783,-8.577043 -7.71322,-10.36861 -11.7454,-7.447715 -2.30024,1.666285 -3.47817,4.071095 -3.0758,6.279365 0.16461,0.90346 1.11721,2.90645 2.11688,4.45108 3.58503,5.53941 5.20693,11.5445 4.70899,17.43506 -0.15,1.77455 -0.87283,5.93914 -1.60629,9.25466 -2.77156,12.52855 -2.94487,18.28852 -0.70074,23.28911 1.27572,2.84267 2.74701,4.40528 8.57956,9.1121 3.77767,3.04854 7.41262,7.39337 10.36537,12.38964 1.61617,2.73467 4.18832,5.7798 9.96601,11.79859 4.28318,4.46193 7.65419,8.32847 7.49114,8.5923 -0.16307,0.26384 -1.42607,0.97926 -2.80669,1.58984 -3.19542,1.41317 -3.6636,1.81818 -3.37546,2.92004 0.41035,1.56916 1.65191,1.86239 4.62434,1.09215 4.27449,-1.10763 6.64851,-0.0855 9.14224,3.9362 l 0.76683,1.23668 -2.821,0.002 c -2.01847,10e-4 -3.23677,0.25518 -4.28252,0.89279 -0.80384,0.49011 -1.46153,0.99239 -1.46153,1.11619 0,0.12379 0.77394,0.73724 1.71986,1.36323 1.54726,1.02392 2.10033,1.12643 5.51082,1.02137 5.38374,-0.16584 6.66951,0.87878 8.28954,6.73482 l 0.27991,1.01183 h -9.68304 c -9.17752,0 -9.70783,0.0463 -10.15773,0.88696 -0.40952,0.76518 -0.22167,1.05439 1.36819,2.10652 1.8126,1.19952 1.98641,1.22285 10.57713,1.41972 l 8.73424,0.20005 v 3.48761 3.48761 l -15.17868,0.1713 c -14.94523,0.16867 -15.20464,0.18735 -16.86657,1.21448 -1.90809,1.17926 -1.87559,1.45815 0.28964,2.48562 1.31976,0.62627 3.61098,0.72924 16.22679,0.72924 13.77977,0 14.67554,0.0488 14.45623,0.78697 -0.12859,0.43284 -0.37331,1.39407 -0.54381,2.13608 -0.17052,0.74201 -0.67876,2.08563 -1.12943,2.98584 -1.14305,2.28322 -2.67975,2.72006 -8.29208,2.35722 -5.61347,-0.36292 -8.14281,-0.014 -9.86736,1.36108 -1.14864,0.91589 -1.2467,1.15777 -0.72449,1.78699 0.50224,0.60516 1.633,0.72773 6.71349,0.72773 h 6.10953 l -2.00486,2.08034 c -4.86952,5.05285 -12.30566,9.55536 -19.99289,12.10548 -5.0369,1.67093 -12.48518,1.95376 -17.31347,0.65744 z M 239.56924,154.5218 c 4.15817,-1.30174 6.82213,-3.00792 11.62716,-7.44679 5.96808,-5.51328 9.03659,-6.94103 15.93511,-7.41448 5.77257,-0.39618 8.15939,-1.21248 10.5577,-3.61079 1.77892,-1.77892 3.16352,-4.59012 3.17756,-6.45149 0.025,-3.31485 -3.93929,-7.08815 -6.44574,-6.1352 -1.28607,0.48896 -1.83856,1.35575 -2.3089,3.62234 -0.35623,1.7167 -1.82199,3.5976 -2.80357,3.5976 -1.54957,0 -3.43612,-1.63438 -5.5881,-4.84113 -3.34853,-4.98978 -5.98612,-7.95936 -9.53801,-10.73852 -5.93567,-4.64434 -12.1931,-6.89304 -19.17527,-6.89092 -6.98984,0.002 -13.36539,2.04913 -17.44271,5.60035 -5.24467,4.56795 -10.51726,16.50085 -9.56666,21.6512 0.56373,3.05424 1.8995,5.15513 6.01446,9.45945 5.34404,5.58997 11.05928,9.30941 15.617,10.16343 2.83594,0.53139 7.23673,0.28123 9.93997,-0.56505 z m -124.4432,-2.2382 c 1.46425,-0.50521 3.55235,-1.44019 4.64023,-2.07773 4.12816,-2.41927 11.43737,-10.25026 12.95301,-13.87769 0.86155,-2.06198 0.83333,-6.22665 -0.0628,-9.2736 -1.84836,-6.28437 -7.28039,-13.83676 -12.2073,-16.97232 -8.97344,-5.71084 -24.514107,-3.17078 -34.270937,5.60145 -1.309896,1.17771 -3.756025,3.97192 -5.435836,6.20936 -5.065046,6.74641 -7.573412,8.61865 -9.689447,7.23217 -0.922507,-0.60445 -1.975782,-3.06166 -1.982757,-4.62563 -0.0047,-1.05182 -1.780909,-2.36093 -3.203321,-2.36093 -1.036213,0 -1.871604,0.4696 -3.201877,1.79987 -1.761617,1.76162 -1.795785,1.85632 -1.607715,4.45634 0.229859,3.17779 1.732057,5.739 4.40255,7.50626 1.518639,1.00498 2.502431,1.23192 6.680982,1.54114 8.380782,0.62018 13.069985,2.79192 19.781096,9.16133 5.927517,5.6257 9.648992,7.16166 16.494582,6.80778 2.3877,-0.12343 5.13896,-0.58588 6.70957,-1.1278 z M 282.00089,90.502531 c 2.18849,-1.019754 6.00512,-4.292077 17.08863,-14.651524 4.05528,-3.790364 6.18448,-5.421441 8.56746,-6.56311 1.74408,-0.83558 3.74152,-2.047923 4.43876,-2.694102 1.07085,-0.992431 1.22771,-1.421292 1.01016,-2.761881 -0.45241,-2.787865 -2.14866,-4.427977 -6.25615,-6.049125 -2.81879,-1.112517 -4.4356,-1.472621 -6.71384,-1.495331 -3.93119,-0.03919 -5.22686,0.861676 -6.13925,4.268567 -0.59562,2.224035 -1.13107,2.90856 -5.87585,7.511664 l -5.22052,5.064636 -1.04261,-4.165235 c -0.57344,-2.290878 -1.07936,-5.693003 -1.12425,-7.560272 -0.0745,-3.097692 0.0254,-3.52258 1.14038,-4.851362 0.97806,-1.165604 1.16724,-1.74468 0.9476,-2.900773 -0.69774,-3.672697 -2.26794,-4.76723 -8.57162,-5.975001 -5.87438,-1.125518 -7.32474,0.649921 -5.97895,7.31905 0.23953,1.187018 1.67159,8.836267 3.18235,16.998332 1.80549,9.754361 3.11179,15.649217 3.81176,17.201048 1.01477,2.249726 1.14553,2.360721 2.77619,2.356534 0.94118,-0.0022 2.72308,-0.475868 3.95975,-1.052115 z m -87.40017,-4.36679 c 1.62837,-0.429581 12.4244,-8.350895 25.15078,-18.453756 6.05281,-4.805024 6.26167,-5.027095 6.26167,-6.657718 0,-3.356147 -3.5336,-4.861414 -7.0922,-3.021187 -0.78865,0.407823 -3.81579,2.70296 -6.72699,5.100301 -15.87716,13.074685 -17.43845,14.202039 -20.42444,14.747701 -1.88865,0.345137 -4.29616,-0.574069 -8.66976,-3.310187 -4.998,-3.126741 -8.90542,-4.075529 -13.2939,-3.227983 -1.35743,0.262162 -5.22994,1.781935 -8.60556,3.37727 -7.16722,3.387266 -9.28935,3.977642 -11.91925,3.31593 -2.46906,-0.621243 -4.30163,-2.203866 -9.39694,-8.115283 -5.16922,-5.997176 -7.55875,-8.045481 -11.68084,-10.012795 -5.58863,-2.667244 -6.33015,-2.830205 -8.23562,-1.809938 -1.9313,1.034096 -2.34594,2.730772 -1.28682,5.26559 0.53442,1.279061 1.01557,1.649569 2.78576,2.145189 4.03663,1.130187 7.07351,3.668536 12.42565,10.385862 6.83767,8.581758 10.12174,10.739313 16.3554,10.745087 3.44596,0.0031 7.68359,-1.175328 13.93168,-3.874512 6.01668,-2.599216 9.75422,-3.077854 12.62945,-1.617357 0.96853,0.491972 3.98699,2.036595 6.70767,3.432497 5.29995,2.719231 6.26353,2.857047 11.08426,1.585289 z m -2.65793,-36.471688 c 2.98936,-1.524069 5.80716,-3.142992 6.26178,-3.597605 0.58085,-0.580852 0.82656,-1.491907 0.82656,-3.064705 0,-1.896066 -0.17326,-2.351664 -1.13366,-2.980945 -1.77156,-1.160766 -4.24939,-1.02219 -6.07013,0.33948 -2.15407,1.610947 -4.66239,2.34044 -6.84657,1.991175 -0.99891,-0.159732 -3.86186,-1.280596 -6.36211,-2.49081 -2.50025,-1.210214 -5.48301,-2.335619 -6.62835,-2.500899 -2.70365,-0.390154 -6.44323,0.40634 -10.20361,2.173269 -3.67543,1.727013 -7.33742,1.923441 -10.37379,0.556447 -1.94187,-0.87424 -1.96242,-0.874067 -4.4856,0.03772 -2.77233,1.001821 -2.84016,1.186766 -1.70171,4.640067 0.66278,2.01045 3.34624,3.83465 7.02866,4.778041 3.56988,0.914561 6.2846,0.566202 11.14337,-1.42994 4.96516,-2.039854 7.75027,-2.067792 11.79937,-0.11836 2.26773,1.091795 10.35964,4.292316 11.16412,4.415648 0.0805,0.01235 2.5923,-1.224514 5.58167,-2.748584 z"
     id="path3759"
     inkscape:connector-curvature="0" /><path
     style="fill:#ffffff;stroke-width:0.44970059"
     d="m 165.07874,291.64865 c -8.50332,-2.46383 -17.3817,-5.59217 -19.97943,-7.03985 -2.53687,-1.41376 -10.37536,-8.28694 -10.37536,-9.09763 0,-0.16563 0.93685,-0.96151 2.08188,-1.7686 l 2.08189,-1.46745 1.40329,1.30245 c 5.9142,5.48916 13.94479,9.1909 22.72357,10.47453 5.18214,0.75773 14.89514,0.31407 19.82733,-0.90565 4.70155,-1.16267 11.12165,-4.22547 14.98203,-7.14739 l 2.89927,-2.19445 2.10672,1.80076 2.10671,1.80076 -1.49123,1.54204 c -2.55746,2.64462 -6.05552,4.64143 -13.79876,7.87681 -4.11361,1.7188 -8.69348,3.64928 -10.17749,4.28994 -3.73414,1.61207 -9.88183,1.84008 -14.39042,0.53373 z"
     id="path3761"
     inkscape:connector-curvature="0" /><path
     style="fill:#ffffff;stroke-width:0.44970059"
     d="m 196.90863,267.45655 c -5.24302,-1.33572 -8.63183,-3.26017 -11.96753,-6.79619 -4.71869,-5.00207 -4.59962,-6.61344 0.95462,-12.91857 1.70029,-1.93017 3.32769,-3.95142 3.61643,-4.49166 0.72123,-1.34947 0.65787,-3.76139 -0.14958,-5.69389 -0.371,-0.88793 -0.67455,-2.30726 -0.67455,-3.15407 0,-1.95588 1.0271,-2.26932 6.06187,-1.84993 l 3.62311,0.3018 3.3736,-2.2564 c 3.89923,-2.60797 8.34493,-7.06869 8.78253,-8.81221 0.17285,-0.68868 0.0322,-1.90867 -0.32964,-2.85937 -0.54252,-1.42543 -1.19709,-1.95639 -4.66305,-3.78252 -6.00122,-3.16188 -10.60383,-4.86516 -13.11563,-4.85367 -2.60242,0.0119 -4.78684,0.95552 -9.3674,4.04644 -9.3192,6.28853 -14.72729,6.22176 -23.87732,-0.2948 -3.62114,-2.57894 -5.47814,-3.31181 -8.3917,-3.31181 -3.09602,0 -6.07031,0.90017 -11.73258,3.55089 -5.42769,2.5409 -7.02606,4.11759 -7.02606,6.93075 0,1.7168 0.24204,2.09989 2.98439,4.72348 1.64142,1.57035 4.10256,3.59778 5.46921,4.50541 2.47292,1.64234 2.50932,1.65059 7.60252,1.72183 2.81473,0.0394 5.41272,0.18479 5.7733,0.32316 0.86912,0.33351 0.85874,3.28139 -0.0189,5.382 -0.95973,2.29695 -0.84551,4.44628 0.31711,5.96725 0.54542,0.71352 2.6347,3.11861 4.64285,5.34463 2.00814,2.22601 3.99028,4.54765 4.40474,5.15919 0.94705,1.39739 0.96768,3.55385 0.0466,4.86891 -1.29056,1.84253 -8.69538,4.9627 -15.25739,6.42902 -4.31244,0.96364 -13.65101,0.73604 -17.98802,-0.4384 -6.84514,-1.85364 -15.95068,-7.21265 -19.00356,-11.18444 l -1.12339,-1.46153 2.41857,-0.005 c 4.23989,-0.009 5.7913,-0.42608 5.7913,-1.55814 0,-1.85097 -1.31954,-2.48323 -5.20697,-2.49494 -6.50105,-0.0196 -8.40589,-1.01707 -9.6087,-5.03171 -0.29607,-0.98818 -0.64109,-2.06456 -0.76673,-2.39196 -0.18518,-0.48257 2.09849,-0.62598 12.06157,-0.75745 10.4524,-0.13793 12.54214,-0.27817 13.97637,-0.93791 0.9275,-0.42665 1.68637,-0.86041 1.68637,-0.96392 0,-0.10351 -0.65768,-0.65729 -1.46152,-1.23064 -1.43123,-1.02084 -1.74109,-1.04711 -14.9472,-1.2673 l -13.48568,-0.22485 -0.528776,-1.12425 c -0.290831,-0.61834 -0.670693,-2.28785 -0.844138,-3.71003 l -0.315357,-2.58578 7.809151,-0.002 c 7.41544,-0.002 7.89781,-0.056 9.56756,-1.06669 l 1.7584,-1.06439 -1.22267,-0.80112 c -1.4238,-0.93291 -6.32134,-1.49263 -13.42423,-1.53421 -4.363271,-0.0255 -4.834278,-0.10797 -4.834278,-0.84607 0,-1.78857 1.397269,-5.36654 2.500818,-6.40383 1.07602,-1.01143 1.60909,-1.11555 6.77115,-1.3227 6.03579,-0.24221 6.44718,-0.4191 6.46067,-2.77795 0.007,-1.15157 -0.14052,-1.22777 -3.37875,-1.75015 -1.86209,-0.30039 -3.48929,-0.71388 -3.61598,-0.91888 -0.42399,-0.68603 1.15579,-3.07439 2.48989,-3.76427 0.89295,-0.46177 2.62908,-0.68217 5.37353,-0.68217 2.87345,0 4.51728,-0.22074 5.64359,-0.75784 0.87407,-0.41681 1.58921,-0.91243 1.58921,-1.10136 0,-0.92331 -3.2149,-2.68811 -5.35958,-2.94212 -1.27138,-0.15057 -2.43234,-0.46914 -2.57991,-0.70791 -0.14757,-0.23878 1.95589,-2.68886 4.67436,-5.44464 5.90177,-5.98275 9.09812,-9.7604 12.2834,-14.51726 4.05442,-6.05484 6.75888,-9.16854 10.97201,-12.63229 5.83388,-4.79622 7.4132,-6.78376 9.20834,-11.58849 1.62556,-4.35086 1.41573,-8.1427 -0.87101,-15.73952 -2.91046,-9.66893 -3.13023,-10.56612 -3.41492,-13.94072 -0.37369,-4.42969 0.67682,-8.82581 3.59573,-15.04719 2.89758,-6.1759 3.14841,-7.13117 2.50247,-9.53004 -0.96772,-3.593833 -4.19074,-5.247422 -7.32701,-3.759165 -2.48327,1.178386 -7.26387,8.505315 -9.53946,14.620525 -1.08222,2.90828 -1.25901,4.05399 -1.28367,8.31946 -0.0259,4.47043 0.12759,5.44464 1.59369,10.11827 2.6373,8.40713 3.68588,13.55125 3.33491,16.36032 -0.78022,6.24469 -6.80517,14.05214 -13.12889,17.01313 -2.60622,1.22031 -3.73224,1.47355 -7.2362,1.62739 -8.52622,0.37436 -17.75029,-1.88515 -25.058412,-6.13826 -1.496347,-0.87083 -5.60688,-3.82563 -9.134516,-6.56622 -9.508119,-7.38678 -11.759671,-8.32104 -14.081533,-5.84299 -1.032274,1.10171 -1.087502,1.44228 -1.039227,6.40823 0.04011,4.12744 0.590961,8.44067 2.585779,20.24757 2.288472,13.54496 2.980579,19.70292 2.291867,20.39163 -0.365391,0.36539 -18.999622,-4.39984 -21.458204,-5.48739 -1.328501,-0.58766 -3.567098,-1.04643 -5.914439,-1.21208 -3.607,-0.25455 -3.827772,-0.21564 -4.908406,0.86499 -1.474538,1.47454 -1.951629,4.60475 -1.286329,8.43966 0.278908,1.60768 1.825933,7.57746 3.437832,13.26617 1.611899,5.68871 2.932978,11.17492 2.93573,12.19158 0.0034,1.25683 -0.370537,2.40187 -1.168287,3.57742 -1.509698,2.22466 -8.799292,10.15951 -9.077639,9.88117 -0.748221,-0.74828 -3.510034,-23.83589 -4.171144,-34.86909 -0.780888,-13.03217 0.264921,-29.13587 2.263071,-34.84747 1.31989,-3.77283 3.784341,-7.71117 8.585536,-13.72019 4.133923,-5.17389 5.931543,-8.18521 5.522507,-9.25114 -0.119759,-0.31209 -1.062606,-1.14077 -2.095217,-1.84153 -1.55659,-1.05634 -2.338634,-1.27132 -4.575679,-1.25783 -5.157153,0.0311 -7.842099,1.54842 -22.13942,12.51147 -8.739047,6.70103 -8.680562,6.70921 -6.654591,-0.93037 2.292654,-8.64519 7.058256,-16.47994 14.092996,-23.16918 6.669195,-6.34166 11.767057,-9.71027 30.131123,-19.91031 9.633109,-5.35057 11.154225,-6.44374 12.093178,-8.690975 1.102463,-2.638573 -0.620322,-5.021811 -3.630145,-5.021811 -0.562607,0 -6.284764,1.785469 -12.715904,3.967708 l -11.69298,3.967708 -1.26722,-3.732316 C 40.548413,96.322601 38.929318,93.27776 36.148641,88.983803 31.779222,82.236491 26.332149,71.712161 24.447433,66.375807 21.062284,56.791154 19.90128,50.28935 19.910403,40.967724 c 0.0075,-7.692101 0.790262,-12.899929 2.914505,-19.391275 l 1.047846,-3.202053 24.573848,14.444568 c 17.166795,10.090685 24.350883,14.537046 23.834132,14.751375 -0.406844,0.168745 -2.662187,0.837471 -5.011873,1.486058 -7.330893,2.023559 -8.146906,3.173301 -5.643693,7.951789 1.955218,3.7324 2.045495,5.854614 0.465449,10.941573 -0.614592,1.978683 -1.117469,3.955697 -1.117501,4.393364 -4.5e-5,0.566465 -1.182015,-0.201448 -4.101912,-2.664967 -4.610024,-3.889474 -6.4662,-6.184039 -7.183829,-8.880489 -0.61319,-2.304026 -1.437494,-3.241124 -3.42921,-3.89845 -1.989568,-0.656616 -6.538924,0.360724 -11.220265,2.509109 -3.487332,1.600421 -4.644487,3.003276 -4.644487,5.630638 0,1.701285 2.116186,4.030208 3.675438,4.044922 2.282543,0.02154 4.92065,1.904046 11.618354,8.290622 10.745841,10.24667 15.64001,14.620171 16.894423,15.097096 3.308636,1.257943 5.244947,0.168768 6.665183,-3.749163 0.599424,-1.653594 4.44422,-26.301728 5.613343,-35.985904 0.23379,-1.936554 0.500121,-3.596053 0.591842,-3.687776 0.198929,-0.198931 19.551794,14.391491 21.787458,16.4259 2.089642,1.901532 2.566329,3.258229 1.785734,5.082386 -0.83111,1.942198 -2.379825,3.295118 -7.712783,6.737693 -5.767545,3.723111 -6.536844,5.200535 -4.753039,9.12809 1.889844,4.161025 4.889626,4.805105 10.187553,2.187348 8.493041,-4.196489 15.957331,-13.379586 15.931831,-19.600461 -0.0146,-3.567601 -1.15614,-5.533283 -5.87669,-10.119626 -6.10591,-5.93232 -18.601404,-17.030258 -21.896693,-19.447663 l -2.824875,-2.072309 1.250923,-0.538145 c 2.928792,-1.259966 49.037095,-16.418658 54.990135,-18.078712 17.60722,-4.909908 34.11278,-5.699032 52.84135,-2.526324 14.33782,2.428893 17.80182,3.492879 66.25098,20.349295 l 1.94533,0.676816 -3.27275,2.307038 c -6.43356,4.53517 -11.95043,9.262563 -17.76857,15.225855 -7.61853,7.808594 -9.28352,10.268164 -9.52571,14.071691 -0.26169,4.109831 1.04407,6.655838 5.81544,11.339088 4.37535,4.294537 9.17478,8.184496 11.84725,9.60224 1.43877,0.763268 2.25722,0.920645 3.53812,0.680348 2.10956,-0.395755 4.58546,-2.818323 5.29262,-5.178608 0.86046,-2.871963 -0.32834,-4.597631 -5.68738,-8.25581 -6.85587,-4.67994 -7.84554,-5.568121 -7.84554,-7.041008 0,-1.688931 2.86116,-5.127211 7.94916,-9.552575 9.31223,-8.099463 15.04772,-11.797878 40.84335,-26.337044 27.48101,-15.489091 26.76597,-15.098142 27.06593,-14.798179 0.613,0.612997 2.88021,9.773992 3.56188,14.392258 2.409,16.320951 -3.56519,36.684972 -16.50992,56.276745 -2.66152,4.028202 -4.54174,7.421984 -5.22025,9.422536 -0.58326,1.719696 -1.13427,3.200526 -1.22446,3.290716 -0.0902,0.0902 -2.26908,-0.75262 -4.84196,-1.87293 -5.8685,-2.555326 -13.17753,-5.004405 -17.02905,-5.706027 -3.87199,-0.705351 -5.30467,-0.09948 -6.25584,2.645543 -0.58933,1.700781 -0.58933,2.059503 0,3.085904 0.76418,1.33092 1.6488,1.84126 9.61752,5.54837 7.65487,3.5611 16.05598,8.61467 23.04566,13.8628 6.42973,4.82771 17.20253,15.04077 18.87455,17.89385 1.16611,1.98981 7.50407,20.41975 7.14554,20.77828 -0.11388,0.11388 -1.0951,-0.52063 -2.18049,-1.41002 -5.79306,-4.74698 -19.4329,-14.67448 -21.66065,-15.76531 -4.49199,-2.19951 -10.56671,-2.00112 -12.84063,0.41937 -0.9199,0.97918 -0.96894,1.24957 -0.50374,2.777 0.28346,0.93071 1.85598,3.31111 3.49449,5.2898 6.01111,7.2591 9.55567,13.52751 11.57016,20.46137 0.86603,2.98087 0.97533,4.39166 0.94064,12.14192 -0.0429,9.58938 -2.64266,49.67363 -3.34077,51.50981 -0.60842,1.60027 -1.25987,1.1549 -6.68557,-4.57054 -3.42079,-3.60979 -4.54968,-5.09758 -4.54968,-5.99617 0,-0.65732 1.51561,-6.54644 3.36803,-13.08693 2.83043,-9.99365 3.36838,-12.43015 3.37024,-15.26455 0.003,-4.14426 -0.62939,-6.57324 -1.88557,-7.24553 -1.58828,-0.85002 -6.07751,-0.16552 -11.75451,1.79227 -6.86226,2.36655 -11.00766,3.20475 -15.84931,3.20475 h -3.90162 l 0.24724,-6.85793 c 0.19879,-5.51404 0.56634,-8.35605 1.87558,-14.50284 3.47362,-16.30827 3.72013,-19.2038 1.93246,-22.69853 -1.40499,-2.74662 -2.04766,-3.03725 -4.57877,-2.07062 -2.57501,0.98341 -8.65849,4.963 -13.74653,8.99248 -9.52118,7.54033 -16.12016,9.77019 -29.23053,9.87729 -7.33185,0.0599 -9.02181,-0.41083 -12.9083,-3.59552 -5.32195,-4.36094 -7.48957,-14.63887 -5.02438,-23.82344 1.9031,-7.09036 2.22348,-9.03414 2.25406,-13.67538 0.0489,-7.42548 -1.63237,-13.29911 -5.83787,-20.3948 -1.15104,-1.94207 -2.97414,-4.34366 -4.05133,-5.336853 -1.74809,-1.611776 -2.14447,-1.780872 -3.68897,-1.573713 -2.39102,0.320704 -4.42238,1.898447 -5.45771,4.238966 -1.11682,2.52478 -0.88554,3.52143 1.9163,8.25785 4.73749,8.00856 5.41197,14.53704 2.71458,26.27519 -2.03351,8.84913 -2.62654,14.64861 -1.91951,18.77168 0.79318,4.62546 2.39725,7.20405 6.63599,10.66755 5.02405,4.10518 9.29905,8.60687 11.71132,12.33234 1.13933,1.75957 2.70492,4.14162 3.47909,5.29344 0.77416,1.15183 4.7106,5.54898 8.74764,9.77145 4.34958,4.54938 7.21179,7.88478 7.02521,8.18667 -0.17317,0.2802 -1.45255,1.01151 -2.84307,1.62513 -3.22312,1.42235 -3.61287,1.76118 -3.31892,2.88527 0.3618,1.38352 1.81351,1.68865 4.76186,1.00084 4.20726,-0.98149 6.56047,0.0581 9.06368,4.00423 l 0.78448,1.23668 h -2.53951 c -2.52167,0 -5.27756,0.81854 -5.84452,1.73592 -0.16269,0.26323 0.48536,0.99554 1.44011,1.62736 1.56746,1.03729 2.10583,1.13737 5.54846,1.03131 3.07353,-0.0947 4.05586,0.042 5.06771,0.70497 1.21702,0.79742 2.55993,3.2733 3.149,5.80568 l 0.28766,1.23667 h -9.66131 c -9.15587,0 -9.68614,0.0464 -10.13599,0.88696 -0.40883,0.76391 -0.22543,1.05191 1.322,2.07595 1.74975,1.15793 2.02614,1.19522 10.57713,1.42724 l 8.78043,0.23823 v 3.46882 3.46881 l -15.23919,0.21999 c -14.78887,0.21349 -15.2872,0.24966 -16.86377,1.22403 -0.89352,0.55223 -1.62458,1.08461 -1.62458,1.18308 0,0.0985 0.8014,0.58788 1.78089,1.08758 1.67891,0.85651 2.61925,0.90854 16.42263,0.90854 h 14.64176 l -0.27381,1.23667 c -1.4703,6.6408 -2.76914,7.59579 -9.60355,7.06114 -5.27032,-0.41229 -8.4508,0.0174 -10.11988,1.36731 -1.12033,0.90607 -1.22987,1.17117 -0.73191,1.77117 0.47942,0.57766 1.69351,0.70562 6.69514,0.70562 h 6.10953 l -2.00486,2.08034 c -4.86901,5.05232 -13.15474,10.03599 -20.44259,12.29573 -4.50735,1.39759 -12.35409,1.64541 -16.73777,0.52863 z m 43.90429,-113.32071 c 3.29357,-1.26731 6.41857,-3.40771 10.49871,-7.19087 5.82102,-5.39732 8.70385,-6.75704 15.39944,-7.2633 6.24606,-0.47228 8.09403,-1.12162 10.86493,-3.81768 3.6001,-3.50289 4.17042,-7.14148 1.59846,-10.19808 -1.5472,-1.83875 -3.53516,-2.68102 -4.88077,-2.06792 -0.92011,0.41923 -2.41106,3.18916 -2.41106,4.47934 0,0.74562 -1.83749,2.60566 -2.57407,2.60566 -1.6081,0 -3.4346,-1.6599 -6.05666,-5.50421 -5.19912,-7.62263 -11.09817,-12.50701 -18.49787,-15.31612 -3.43724,-1.30485 -4.07004,-1.39669 -9.74685,-1.41443 -5.04221,-0.0157 -6.60754,0.14931 -9.23754,0.9741 -6.44215,2.02032 -10.69308,5.84707 -14.16422,12.75081 -3.97114,7.8982 -4.60866,12.77289 -2.2161,16.94481 3.63425,6.33707 12.79237,13.77033 19.32205,15.68292 2.88172,0.84407 9.06232,0.50442 12.10155,-0.66503 z m -125.42556,-2.03165 c 1.65786,-0.57655 4.13821,-1.79428 5.51188,-2.70606 2.99852,-1.99032 8.20773,-7.3757 10.55211,-10.90899 1.65563,-2.49525 1.69838,-2.66353 1.68808,-6.64465 -0.009,-3.37423 -0.2156,-4.57559 -1.18963,-6.90813 -1.7631,-4.22218 -3.87295,-7.49909 -7.04254,-10.93809 -6.99676,-7.59148 -17.73194,-9.09834 -29.50785,-4.14193 -5.915668,2.48987 -9.64137,5.54439 -14.432691,11.83264 -3.76238,4.93785 -5.752152,6.94183 -7.575175,7.62927 -1.816773,0.6851 -3.240875,-0.33465 -3.900762,-2.79317 -0.871744,-3.24783 -1.251687,-3.90178 -2.440205,-4.20008 -1.517596,-0.3809 -3.583439,0.51624 -4.962379,2.15501 -2.637624,3.13464 -0.357642,9.69949 4.103941,11.81665 0.969406,0.46001 3.532263,0.93759 6.198978,1.15516 8.352721,0.68145 12.450816,2.61686 19.800502,9.35119 4.165383,3.81664 7.201388,5.63199 10.623961,6.35251 3.08236,0.64889 9.13929,0.14237 12.57178,-1.05133 z M 280.99303,90.916377 c 2.37175,-0.846332 5.15878,-3.121138 14.94858,-12.201168 6.57513,-6.098421 9.20275,-8.238812 11.40131,-9.287167 3.3994,-1.620973 5.91216,-3.710151 5.91216,-4.915538 0,-0.478904 -0.40827,-1.671002 -0.90726,-2.649114 -1.05198,-2.062053 -4.49968,-4.042071 -9.08262,-5.216168 -5.24594,-1.343946 -7.9852,-0.206945 -9.19412,3.816259 -0.68478,2.278871 -1.29732,3.060811 -5.96695,7.617078 l -5.20384,5.077502 -1.04261,-4.178101 c -0.57344,-2.297956 -1.07936,-5.728479 -1.12425,-7.623383 -0.0731,-3.082501 0.0326,-3.567267 1.00326,-4.603778 2.01138,-2.147815 0.99078,-5.955091 -1.98734,-7.413681 -2.09847,-1.027768 -5.69694,-1.839727 -8.1785,-1.845398 -2.72335,-0.0062 -3.73553,0.957084 -3.73553,3.555181 0,1.87917 5.58486,32.056798 6.5805,35.557497 1.15834,4.072798 1.77338,4.955547 3.43689,4.932905 0.79749,-0.01084 2.21063,-0.291172 3.14032,-0.622926 z M 192.6178,86.560645 c 3.20733,-0.558533 5.67024,-2.204837 20.13425,-13.458473 11.72202,-9.120252 12.81896,-10.050992 13.09506,-11.110946 0.94223,-3.617285 -3.08477,-5.974598 -6.86604,-4.019224 -0.72649,0.375677 -5.56301,4.166618 -10.74783,8.424311 -15.80623,12.979812 -16.82143,13.37558 -23.46513,9.147648 -6.19883,-3.944819 -10.21314,-5.099974 -14.69609,-4.228953 -1.50963,0.293317 -5.48228,1.820608 -8.82811,3.39398 -10.85443,5.104286 -12.12257,5.000864 -18.2005,-1.484277 -9.22951,-9.847876 -11.09081,-11.531169 -14.61527,-13.21746 -5.80849,-2.7791 -6.52564,-2.948387 -8.34335,-1.969488 -1.90962,1.028399 -2.36046,2.488375 -1.50738,4.881398 0.5679,1.593055 0.90824,1.871807 3.36197,2.753643 4.12436,1.48224 6.63692,3.558854 11.24321,9.292428 5.3179,6.619337 8.47721,9.518385 11.67799,10.715952 4.92917,1.844235 9.9335,1.033672 20.21816,-3.274783 7.37936,-3.091368 8.42271,-3.012405 16.95133,1.282879 3.68328,1.855015 6.9245,3.372754 7.2027,3.372754 0.27821,0 1.80147,-0.225628 3.38503,-0.501389 z M 191.7673,49.75352 c 6.73961,-3.436056 7.26383,-3.9235 7.26383,-6.754162 0,-1.769297 -0.19766,-2.343937 -0.99946,-2.905536 -1.49815,-1.049348 -4.36511,-0.884223 -6.20378,0.357311 -4.00224,2.702447 -6.61523,2.621113 -12.86898,-0.400568 -7.16826,-3.463549 -10.14695,-3.578251 -16.82363,-0.647837 -4.06322,1.783358 -6.78132,2.1069 -9.42331,1.121676 -3.30459,-1.232319 -3.85112,-1.2595 -6.02142,-0.299474 -2.37319,1.049776 -2.57673,1.839409 -1.23529,4.792205 0.60076,1.322386 1.41578,2.12618 3.06732,3.025062 4.8394,2.633929 8.88956,2.607957 15.23364,-0.09769 4.34716,-1.853992 7.49711,-1.842474 11.44078,0.04183 2.27362,1.086344 10.3798,4.299496 11.16412,4.425264 0.0805,0.01292 2.51333,-1.183221 5.40618,-2.658084 z"
     id="path3763"
     inkscape:connector-curvature="0" /><path
     style="fill:#ffffff;stroke-width:0.44970059"
     d="m 198.35205,267.83427 c -5.75198,-1.14368 -9.8669,-3.37451 -13.61483,-7.38107 -4.43614,-4.74224 -4.30847,-6.47616 0.9202,-12.49732 4.81272,-5.54218 5.09183,-6.31388 3.70515,-10.24415 -0.371,-1.05153 -0.67455,-2.58108 -0.67455,-3.39899 0,-1.92916 0.81805,-2.18549 5.6819,-1.78033 3.56099,0.29663 3.88211,0.24758 5.82183,-0.88918 2.91942,-1.71089 8.11237,-6.28441 9.47708,-8.34664 1.42154,-2.14808 1.20263,-4.18097 -0.64035,-5.94666 -1.34714,-1.29064 -10.48526,-5.78277 -13.3701,-6.5725 -3.98593,-1.09114 -6.50983,-0.39686 -12.21465,3.36006 -9.97094,6.56638 -14.58793,6.51834 -24.65141,-0.25648 -1.73651,-1.16903 -3.84518,-2.35632 -4.68592,-2.63842 -3.74711,-1.25726 -7.91446,-0.35285 -15.59579,3.38461 -5.31629,2.58672 -6.67087,4.03433 -6.35955,6.79636 0.25038,2.22137 1.21231,3.41194 5.57035,6.89436 4.30742,3.44197 6.08951,4.0632 11.32116,3.94646 2.42711,-0.0542 4.65037,0.0483 4.94057,0.22763 0.75516,0.46671 0.65087,3.17809 -0.21615,5.61923 -1.22531,3.44994 -0.74698,4.55361 4.55857,10.51822 2.59119,2.91306 4.91773,5.68227 5.17009,6.15381 0.68286,1.27594 0.55589,3.276 -0.28409,4.47524 -1.02402,1.462 -7.40481,4.36305 -12.65554,5.75389 -6.09978,1.61575 -15.24263,1.70935 -20.50672,0.20993 -7.00912,-1.99647 -15.15666,-6.65872 -18.54617,-10.61264 l -1.57134,-1.83299 3.62105,-0.30711 c 4.07562,-0.34566 4.53219,-0.51869 4.53219,-1.71758 0,-1.52225 -1.72702,-2.2466 -5.38405,-2.25819 -6.31185,-0.02 -8.23795,-1.04757 -9.43162,-5.03171 -0.29607,-0.98818 -0.63774,-2.05583 -0.75928,-2.37255 -0.17516,-0.45646 2.32587,-0.61682 12.06156,-0.77335 10.77248,-0.17321 12.48751,-0.29928 13.94967,-1.02539 1.8641,-0.92572 1.83227,-1.24579 -0.23411,-2.35404 -1.22564,-0.65734 -3.352,-0.8033 -14.69395,-1.00863 l -13.26094,-0.24007 -0.528668,-1.12425 c -0.290763,-0.61834 -0.670571,-2.28785 -0.844016,-3.71003 l -0.315357,-2.58578 7.809151,-0.002 c 7.37369,-0.002 7.90538,-0.0606 9.53471,-1.04686 l 1.72555,-1.04456 -1.27585,-0.84444 c -1.06056,-0.70194 -2.69873,-0.91826 -9.70774,-1.2819 -8.184045,-0.42461 -8.431888,-0.46579 -8.431888,-1.40135 0,-1.7227 1.367301,-5.03172 2.530768,-6.12474 1.03593,-0.97321 1.6291,-1.08736 6.74136,-1.29735 6.02659,-0.24755 6.58808,-0.4856 6.35904,-2.69602 -0.10521,-1.01534 -0.44017,-1.19134 -3.45778,-1.8168 -1.8377,-0.38091 -3.40523,-0.88682 -3.48339,-1.12425 -0.26041,-0.79104 1.63751,-3.37108 2.80685,-3.81567 0.63432,-0.24117 2.85616,-0.43849 4.9374,-0.43849 3.92427,0 7.59119,-0.9922 7.27149,-1.96754 -0.3343,-1.01989 -3.18706,-2.52071 -5.33229,-2.80529 -1.21243,-0.16083 -2.32641,-0.48981 -2.47551,-0.73107 -0.1491,-0.24125 1.74162,-2.49118 4.2016,-4.99985 6.7418,-6.87524 8.8239,-9.34152 13.09457,-15.51073 3.97902,-5.74791 6.90796,-8.97123 13.46407,-14.81733 3.00954,-2.68361 3.98695,-3.9021 5.36219,-6.6847 1.4985,-3.032 1.69992,-3.85063 1.84802,-7.511 0.15536,-3.83986 0.0291,-4.56326 -1.93395,-11.07847 -2.53437,-8.41146 -3.34862,-12.0732 -3.35897,-15.10546 -0.0116,-3.40303 1.46613,-8.5495 3.77477,-13.14627 3.38014,-6.73027 3.54833,-9.73113 0.69842,-12.461521 -1.70013,-1.62882 -4.2503,-1.788153 -6.14808,-0.384125 -3.41598,2.527226 -8.6432,11.922146 -9.85528,17.712946 -0.97681,4.66679 -0.58053,8.3412 1.77022,16.41407 2.6731,9.17986 3.17736,11.82977 2.81026,14.76797 -0.77233,6.18147 -6.47768,13.71915 -12.71897,16.80376 -2.93872,1.45239 -3.85682,1.68184 -7.40944,1.85169 -7.76578,0.37129 -15.87603,-1.38178 -23.195883,-5.01391 -2.145089,-1.06439 -6.527458,-4.01962 -10.343113,-6.97481 -9.746447,-7.54854 -12.032882,-8.67023 -14.356233,-7.04289 -2.652046,1.85757 -2.505848,5.86068 0.99347,27.2028 2.318611,14.14105 2.923395,19.9219 2.132385,20.38256 -0.495543,0.28859 -18.764408,-4.42853 -21.195393,-5.47277 -2.294902,-0.98578 -7.882311,-1.69302 -9.723849,-1.23083 -0.817982,0.2053 -1.444139,0.8778 -2.040541,2.19155 -1.567257,3.45234 -1.269416,5.32657 3.587639,22.57597 2.634558,9.35639 2.772484,11.06715 1.092136,13.5463 -2.246554,3.31451 -8.845683,10.16125 -9.188235,9.53298 -0.435462,-0.79873 -2.489003,-15.97181 -3.396699,-25.09737 -0.928803,-9.33777 -1.042408,-27.00355 -0.22268,-34.62695 1.017122,-9.45915 3.168141,-14.49098 9.570214,-22.38739 7.056865,-8.70405 7.52361,-10.08728 4.085673,-12.10818 -1.79311,-1.05402 -2.596564,-1.244 -5.00408,-1.18323 -4.069117,0.1027 -7.886495,2.1265 -16.554309,8.77631 -7.393192,5.67194 -11.161696,8.48185 -12.239284,9.12599 -1.618691,0.9676 1.06007,-9.65415 3.822852,-15.15826 4.57197,-9.10844 13.210804,-17.86533 24.534742,-24.87003 2.214673,-1.36994 8.417295,-4.93682 13.783603,-7.9264 13.738389,-7.65367 15.07838,-8.70116 15.07838,-11.787051 0,-1.628442 -1.923284,-3.428679 -3.660154,-3.425985 -0.66638,8.99e-4 -6.495696,1.793896 -12.95403,3.984136 l -11.742428,3.98225 -0.790428,-2.52261 C 40.792127,96.714785 39.913329,95.04265 35.344034,87.736585 26.021852,72.830899 21.36383,60.507507 20.043392,47.25679 19.211893,38.912609 20.305405,28.832603 22.859349,21.299283 l 1.013405,-2.989223 18.887425,11.153787 c 10.388084,6.134583 21.486919,12.679931 24.664076,14.54522 4.150467,2.436714 5.54301,3.458018 4.946707,3.627964 -0.456469,0.130092 -2.773083,0.776093 -5.148033,1.435557 -6.948819,1.929513 -8.194984,3.718379 -5.52521,7.931397 1.825469,2.880673 1.909163,5.590051 0.349305,11.307801 l -1.280856,4.695054 -3.993919,-3.388507 c -4.4786,-3.799727 -6.368834,-6.140059 -7.073842,-8.758261 -0.556969,-2.068425 -2.189373,-3.751814 -4.03026,-4.156141 -1.413706,-0.310502 -4.994214,0.490494 -9.203776,2.058976 -5.561025,2.07204 -7.677601,6.075441 -4.756449,8.996593 0.72298,0.722983 1.785398,1.318954 2.360929,1.324386 2.350996,0.02217 4.977264,1.948867 12.974345,9.51821 12.787222,12.103277 14.780677,13.806478 16.547236,14.137885 2.297943,0.431096 3.758278,-0.275334 4.919041,-2.379573 1.012172,-1.834873 3.450269,-16.093547 5.914844,-34.591688 0.481238,-3.611994 0.942024,-6.634307 1.023968,-6.716251 0.160521,-0.160521 5.120237,3.500268 15.974404,11.790784 7.425776,5.671876 8.620221,7.125295 7.749511,9.429727 -0.724774,1.918193 -2.454759,3.514014 -7.00478,6.461541 -6.469033,4.19067 -7.380445,5.78484 -5.577703,9.756097 0.980702,2.160388 3.155567,3.715116 5.200513,3.717638 1.794611,0.0022 6.936217,-2.509752 10.41572,-5.088663 5.22853,-3.87525 9.95814,-10.74493 10.37347,-15.067268 0.40593,-4.224586 -0.36091,-5.645348 -6.11489,-11.3295 C 100.46605,52.797153 88.313158,41.976607 84.570727,39.229286 l -2.529431,-1.856859 1.270517,-0.545796 C 85.751056,35.778768 130.5037,20.986602 136.7476,19.164409 c 25.4241,-7.419653 49.73248,-6.370407 80.04671,3.455134 5.439,1.762908 39.50324,13.453814 41.7098,14.314877 0.6078,0.237183 -0.67237,1.388164 -5.62126,5.053961 -8.54663,6.330761 -20.60458,18.29249 -22.73277,22.551366 -1.84253,3.687235 -1.92947,6.520744 -0.30038,9.789901 2.10548,4.225153 14.89888,15.473559 18.33124,16.117476 1.88998,0.354562 3.37196,-0.240752 5.16511,-2.07482 1.8984,-1.941739 2.50843,-4.101566 1.70294,-6.029374 -0.77057,-1.844226 -1.9184,-2.923328 -6.10109,-5.735764 -5.74966,-3.866058 -7.19521,-5.193062 -7.19521,-6.605117 0,-2.347851 5.37333,-7.935583 13.94072,-14.49698 8.13982,-6.233939 13.47577,-9.452862 45.19491,-27.263927 8.4094,-4.722083 15.63071,-8.714288 16.04735,-8.871567 0.61667,-0.232786 0.93088,0.275256 1.68972,2.732108 3.18016,10.296148 3.86212,21.442897 1.90687,31.16792 -2.31618,11.520173 -7.9316,24.680949 -15.35033,35.976321 -4.12062,6.273845 -4.96959,7.840382 -6.06691,11.194706 -0.42478,1.29851 -0.85981,2.36092 -0.96672,2.36092 -0.10691,0 -2.82247,-1.10647 -6.03458,-2.45882 -6.24689,-2.63005 -11.57788,-4.363772 -16.00558,-5.205256 -3.60007,-0.684197 -5.28457,0.07099 -6.07995,2.725752 -0.91251,3.045694 -0.28779,3.639314 8.09478,7.691734 11.41187,5.51688 20.07078,10.84823 27.9369,17.20093 5.43685,4.3908 14.60224,13.59635 15.85358,15.92303 1.24736,2.3193 7.23758,19.87898 6.89744,20.21912 -0.11561,0.11561 -3.63137,-2.42884 -7.8128,-5.65435 -13.70864,-10.57466 -18.08822,-13.12146 -22.55232,-13.11448 -2.32633,0.004 -4.80256,0.78954 -6.15613,1.95384 -1.62972,1.40182 -1.2164,2.91586 1.86695,6.83893 7.24049,9.21236 10.57644,14.96875 12.36389,21.33466 1.81117,6.45036 1.76136,9.65958 -0.72081,46.43767 -1.06311,15.75212 -1.44502,18.76892 -2.37605,18.76892 -0.22551,0 -2.6589,-2.33932 -5.40754,-5.19848 -3.84828,-4.00302 -4.99653,-5.47668 -4.99322,-6.40824 0.002,-0.66536 1.52011,-6.65438 3.37276,-13.30892 2.65698,-9.54368 3.36845,-12.73746 3.36845,-15.12119 0,-3.95465 -0.34821,-5.5541 -1.4717,-6.76002 -0.82763,-0.88836 -1.22537,-0.96287 -3.8849,-0.72774 -1.62957,0.14406 -5.38412,1.08211 -8.34344,2.08454 -6.97648,2.3632 -10.99017,3.16819 -15.79659,3.16819 h -3.90162 l 0.25029,-6.85793 c 0.21476,-5.88456 0.57375,-8.42172 2.52926,-17.8756 2.59132,-12.52771 2.84204,-16.10896 1.34435,-19.20276 -1.17653,-2.43039 -2.04284,-2.92893 -4.10177,-2.36043 -2.09474,0.57839 -8.46466,4.61126 -13.30564,8.42397 -5.82072,4.58433 -8.4916,6.26825 -12.24009,7.71706 -5.07133,1.9601 -10.4998,2.83446 -17.97695,2.89554 -5.89382,0.0481 -6.73337,-0.0448 -8.73334,-0.96716 -6.89543,-3.17997 -10.15409,-9.22703 -10.15409,-18.84283 0,-3.03765 0.37517,-5.44552 1.62951,-10.45835 1.56326,-6.2474 1.62023,-6.75066 1.40124,-12.3791 -0.26458,-6.8003 -1.11375,-10.02737 -4.20634,-15.98522 -3.38707,-6.52515 -6.41281,-9.886865 -8.90316,-9.89173 -1.73948,-0.0036 -4.64517,2.172526 -5.63692,4.2212 -1.21069,2.50096 -1.01115,3.40268 1.86954,8.44829 3.28856,5.76002 4.09161,8.59703 4.11452,14.53571 0.0158,4.09446 -0.28034,6.34131 -1.71891,13.04132 -1.44431,6.72677 -1.73864,8.96851 -1.7418,13.26617 -0.006,8.08664 1.03727,10.12501 8.26036,16.14002 5.06622,4.21889 9.14117,8.91126 12.17836,14.02362 1.20976,2.03633 4.67944,6.13205 9.71033,11.46237 4.41512,4.67791 7.69575,8.50778 7.52472,8.78452 -0.16678,0.26985 -1.59484,1.07014 -3.17348,1.77843 -2.44993,1.09921 -2.87025,1.45725 -2.87025,2.44496 0,1.59521 0.93533,1.82356 4.80553,1.17326 2.98672,-0.50186 3.47696,-0.4761 4.97844,0.26163 0.91601,0.45007 2.35498,1.72896 3.1977,2.84197 l 1.53222,2.02365 -3.09721,0.24876 c -1.91325,0.15367 -3.58589,0.57067 -4.37559,1.09087 l -1.27837,0.8421 1.05352,0.84068 c 1.75579,1.40105 2.9152,1.67859 6.57715,1.5744 2.7639,-0.0786 3.77504,0.0751 4.76784,0.7251 1.21828,0.79757 2.58453,3.2635 3.2131,5.79928 l 0.30434,1.22777 -9.82751,0.12133 c -9.6478,0.11911 -9.83001,0.13888 -9.96441,1.08134 -0.0985,0.69072 0.30637,1.23398 1.44336,1.93668 1.43244,0.8853 2.4023,1.00187 10.3676,1.24614 l 8.78732,0.26948 v 3.45874 3.45874 L 229.62,236.02662 c -14.67873,0.24136 -15.34296,0.28979 -16.86377,1.22971 -0.87075,0.53815 -1.58318,1.07303 -1.58318,1.18862 0,0.11558 0.86005,0.60055 1.91123,1.07769 1.75964,0.79874 3.06145,0.86833 16.41407,0.87742 7.97656,0.005 14.50284,0.17551 14.50284,0.37796 0,0.86865 -1.4858,5.2686 -2.09108,6.19238 -0.36359,0.55491 -1.00308,1.1664 -1.42107,1.35887 -0.41801,0.19247 -3.79548,0.36124 -7.50551,0.37504 -6.82384,0.0254 -7.77165,0.21606 -9.45852,1.90294 -1.45413,1.45412 0.21865,1.94233 6.73384,1.96531 l 5.87258,0.0207 -3.66026,3.46446 c -5.78304,5.47369 -14.26865,10.01366 -21.63344,11.57434 -3.24829,0.68835 -9.52904,0.79005 -12.48568,0.20218 z m 39.3466,-112.86617 c 3.55855,-0.67487 7.72874,-2.9396 11.50985,-6.25073 8.85803,-7.75701 10.18693,-8.43228 17.9255,-9.1087 5.9625,-0.52119 8.61257,-1.54781 11.00167,-4.26197 3.31677,-3.76804 3.40091,-7.69842 0.22451,-10.48734 -2.7543,-2.41831 -5.47671,-1.39382 -6.27016,2.35957 -0.35239,1.66698 -1.84345,3.46482 -2.87156,3.46238 -1.5119,-0.004 -3.59074,-1.84143 -5.6682,-5.0111 -1.19199,-1.81867 -4.10946,-5.24798 -6.48325,-7.62068 -3.66968,-3.66798 -4.95428,-4.62908 -8.57848,-6.41814 -7.97157,-3.93509 -16.07395,-4.47301 -24.23405,-1.60889 -6.82184,2.3944 -12.36523,9.13289 -15.27799,18.57179 -1.90452,6.17165 -1.01575,9.63877 3.86997,15.09678 8.12956,9.0818 16.47044,12.8666 24.85219,11.27703 z m -126.9538,-1.81383 c 5.55647,-0.73204 10.21612,-3.23307 14.98918,-8.04534 2.1046,-2.12189 4.63417,-5.04661 5.62126,-6.49939 1.77495,-2.61234 1.79449,-2.6866 1.77482,-6.74551 -0.0171,-3.53932 -0.20609,-4.53728 -1.37298,-7.252 -3.76715,-8.7641 -9.86354,-14.88784 -16.67221,-16.747 -3.39414,-0.9268 -9.82327,-0.89692 -13.84279,0.0643 -4.101246,0.98079 -10.61515,4.15254 -13.828351,6.73328 -1.410728,1.13305 -4.175015,4.13873 -6.14286,6.67929 -4.137961,5.34225 -6.063628,7.29161 -7.879375,7.97631 -1.899243,0.7162 -3.223571,-0.32456 -4.079185,-3.20573 -1.181799,-3.97954 -2.676024,-4.8187 -5.506844,-3.09264 -3.156696,1.92474 -3.629376,5.85498 -1.180784,9.81794 1.907855,3.08781 3.999521,4.07892 9.668181,4.58117 8.415328,0.74562 12.501654,2.64043 19.603105,9.08987 4.263018,3.87162 7.373349,5.72481 10.899193,6.49395 3.18903,0.69566 3.73946,0.70614 7.94964,0.15146 z M 280.98962,90.853042 c 2.33931,-0.797086 5.26993,-3.203753 16.07624,-13.20204 5.35164,-4.951474 8.17222,-7.224899 10.11827,-8.155447 3.39303,-1.622461 6.07095,-3.816348 6.07095,-4.973621 0,-3.345813 -4.41046,-6.60354 -10.90451,-8.054473 -4.59442,-1.026507 -7.43218,0.469848 -8.41488,4.43719 -0.45245,1.826621 -1.19735,2.752199 -5.75132,7.146322 -2.87735,2.776357 -5.29776,4.981711 -5.37868,4.900783 -0.0809,-0.08093 -0.66797,-2.656039 -1.30453,-5.722471 -1.29805,-6.252956 -1.23726,-8.605425 0.27523,-10.651188 0.8187,-1.10735 0.97493,-1.762032 0.77542,-3.249479 -0.13742,-1.024506 -0.59807,-2.247521 -1.02368,-2.717811 -1.13947,-1.259104 -5.39907,-2.708359 -8.79779,-2.993296 -2.62868,-0.220379 -3.0878,-0.137536 -3.93544,0.710094 -0.60629,0.606297 -0.95958,1.526964 -0.95958,2.500696 0,3.13225 6.29282,35.628881 7.42329,38.334478 1.09993,2.632511 2.10001,2.927465 5.73101,1.690263 z m -88.6137,-4.295397 c 1.31068,-0.277415 2.92748,-0.782281 3.5929,-1.121922 2.48959,-1.27075 25.04692,-18.514879 28.35797,-21.678478 2.03305,-1.942504 2.22,-3.63421 0.58257,-5.271639 -1.30986,-1.309856 -3.61841,-1.465931 -5.87116,-0.396933 -0.8193,0.388784 -5.70665,4.164882 -10.86078,8.391325 -10.28242,8.431715 -13.8824,10.973697 -16.14114,11.397441 -1.98946,0.373225 -4.25576,-0.411197 -8.16881,-2.827402 -4.54557,-2.80678 -7.43794,-3.830482 -10.91897,-3.864565 -3.52849,-0.03454 -4.88226,0.384575 -12.17385,3.769008 -10.47175,4.860512 -11.68168,4.727985 -17.95609,-1.966793 -9.10744,-9.717611 -10.46723,-10.908113 -15.06774,-13.191926 -4.98055,-2.472472 -6.80442,-2.694291 -8.57083,-1.042379 -0.98622,0.922304 -1.14093,1.382141 -0.9498,2.823049 0.29572,2.229432 1.26053,3.247419 3.91263,4.128306 3.61595,1.201029 6.83041,3.909557 11.37219,9.582292 7.40402,9.247715 10.1977,11.1017 16.72361,11.098422 4.46206,-0.0022 7.06873,-0.714921 14.39042,-3.934422 3.04065,-1.337041 4.84734,-1.837823 7.26388,-2.013426 l 3.21658,-0.233741 6.80872,3.429088 c 3.7448,1.885995 7.09355,3.429084 7.44168,3.429084 0.34812,0 1.70533,-0.226977 3.01602,-0.504389 z m -0.45778,-36.900127 c 2.95558,-1.527664 5.7651,-3.27506 6.24339,-3.883102 1.16907,-1.486234 1.15379,-4.29766 -0.0298,-5.481243 -1.28226,-1.282262 -4.28224,-1.20709 -6.30384,0.15796 -2.30046,1.55335 -4.75695,2.234552 -6.8507,1.899749 -1.00087,-0.160046 -4.05419,-1.329327 -6.78514,-2.598403 -4.52242,-2.101568 -5.24858,-2.306034 -8.13995,-2.291985 -2.66316,0.01294 -3.9099,0.314789 -7.73928,1.873753 -5.22325,2.126414 -6.45252,2.234884 -10.50025,0.926542 l -2.92305,-0.944816 -2.13608,0.922319 c -2.35175,1.015443 -2.59743,1.699226 -1.51948,4.229055 1.3984,3.281921 5.51404,5.421007 10.40107,5.405912 2.53609,-0.0078 3.96514,-0.327939 7.35276,-1.647001 5.28031,-2.056032 8.14439,-2.168009 11.75951,-0.459763 2.0562,0.971611 11.08159,4.577704 11.63222,4.647653 0.0907,0.01152 2.58304,-1.228966 5.53862,-2.75663 z"
     id="path3765"
     inkscape:connector-curvature="0" /><path
     style="fill:#ffffff;stroke-width:0.44970059"
     d="m 197.32615,267.60552 c -5.62514,-1.22147 -10.69988,-4.28805 -13.7801,-8.32711 -3.00161,-3.93597 -2.69573,-5.71724 1.90883,-11.11583 5.08688,-5.9641 5.29466,-6.51977 3.90769,-10.45085 -0.371,-1.05153 -0.67455,-2.58108 -0.67455,-3.39899 0,-1.93216 0.78462,-2.17317 5.78617,-1.77731 l 3.89942,0.30863 2.42526,-1.63208 c 3.53644,-2.37985 7.34214,-5.78665 8.77676,-7.85681 1.6004,-2.30937 1.34167,-4.35392 -0.7788,-6.1542 -1.54684,-1.31327 -9.04166,-5.00153 -12.59204,-6.19665 -4.27779,-1.43997 -6.44523,-0.83214 -13.94848,3.91162 -4.79211,3.02971 -7.73471,4.07218 -11.41336,4.04343 -3.17496,-0.0248 -6.72889,-1.46984 -11.37553,-4.62532 -5.77777,-3.92361 -8.50256,-4.39875 -14.21966,-2.47958 -3.98095,1.33636 -10.34156,4.4429 -11.7536,5.74049 -1.29257,1.1878 -1.73518,3.54696 -0.99894,5.3244 0.65183,1.57364 5.59738,5.99672 8.82898,7.89624 2.0005,1.17588 2.56163,1.28147 7.22657,1.35985 2.78172,0.0467 5.26069,0.21046 5.50883,0.36382 0.67513,0.41725 0.54383,3.63049 -0.22338,5.46667 -1.43861,3.4431 -0.99296,4.43042 5.09063,11.27792 4.59522,5.17224 5.02764,5.82895 5.02764,7.63537 0,2.06263 -1.24708,3.28806 -5.2598,5.16849 -9.97249,4.67327 -21.73006,5.59102 -31.04226,2.42304 -5.92307,-2.01501 -12.96029,-6.30895 -16.18561,-9.87608 l -1.67995,-1.85798 3.56542,-0.32404 c 4.32115,-0.39273 4.73274,-0.53452 4.73274,-1.63043 0,-1.57381 -1.25745,-2.03967 -6.30942,-2.33753 -3.47129,-0.20467 -5.21368,-0.51026 -6.05594,-1.06212 -1.13006,-0.74045 -2.45422,-3.20331 -3.07077,-5.71143 l -0.28813,-1.17215 12.26219,-0.2277 c 10.24331,-0.19021 12.50027,-0.35082 13.70824,-0.97548 1.82109,-0.94173 1.81805,-1.40628 -0.0155,-2.36596 -1.24229,-0.65023 -3.45078,-0.80374 -14.72248,-1.02338 l -13.26096,-0.2584 -0.528657,-1.12425 c -0.290758,-0.61834 -0.670562,-2.28785 -0.844007,-3.71003 l -0.315357,-2.58578 h 7.554741 c 6.82067,0 7.7496,-0.0943 9.56,-0.97072 1.86343,-0.90208 1.94601,-1.01404 1.1677,-1.58315 -1.43839,-1.05178 -3.77741,-1.40815 -11.1965,-1.70591 -3.95079,-0.15855 -7.263609,-0.36863 -7.36181,-0.46683 -0.451553,-0.45155 0.52758,-4.35413 1.42744,-5.68943 1.47214,-2.1845 2.68814,-2.61036 7.49637,-2.62528 5.10816,-0.0159 6.52066,-0.55451 6.52066,-2.48663 0,-1.2993 -0.0914,-1.35476 -3.34128,-2.02838 -1.8377,-0.3809 -3.40523,-0.88681 -3.48339,-1.12425 -0.26041,-0.79103 1.63751,-3.37107 2.80685,-3.81566 0.63432,-0.24117 2.70847,-0.43962 4.60922,-0.441 3.79317,-0.003 6.44502,-0.56732 7.25629,-1.54485 0.76089,-0.91681 -2.27595,-2.86558 -5.03612,-3.23173 -1.18646,-0.15739 -2.27906,-0.48333 -2.42799,-0.72431 -0.14893,-0.24097 1.53837,-2.28854 3.74956,-4.55015 6.64297,-6.79444 8.95334,-9.52225 13.5149,-15.95672 4.43464,-6.25547 6.9231,-8.98983 13.48124,-14.81344 3.02327,-2.68467 3.98894,-3.88542 5.3668,-6.67333 1.46725,-2.96879 1.70193,-3.89317 1.85185,-7.29425 0.16098,-3.65219 0.0137,-4.44053 -2.36661,-12.6638 -3.92021,-13.54347 -3.81637,-17.03367 0.7961,-26.75718 2.09989,-4.42676 2.34653,-5.26196 2.34653,-7.94596 0,-2.54593 -0.16292,-3.17268 -1.07795,-4.146678 -1.62342,-1.72805 -3.66791,-2.26287 -5.58629,-1.46132 -3.94203,1.647083 -10.06522,12.513668 -11.146,19.780358 -0.61547,4.13812 -0.13178,7.54213 2.23075,15.69922 2.42552,8.37457 2.92614,11.101 2.56665,13.97827 -0.77302,6.18698 -6.47722,13.71893 -12.73034,16.80939 -2.98772,1.47661 -3.8325,1.68385 -7.52172,1.8452 -11.18405,0.48915 -21.337719,-2.80753 -30.81743,-10.00578 -9.401346,-7.13875 -10.594703,-8.00128 -12.236425,-8.84423 -2.228186,-1.14407 -3.770623,-1.07973 -5.061466,0.21111 -2.243619,2.24362 -2.039419,5.92987 1.552578,28.02753 2.159912,13.28759 2.688949,18.70093 1.876668,19.20295 -0.458124,0.28314 -17.804358,-4.1805 -21.237147,-5.46487 -1.346547,-0.50381 -3.815192,-1.0624 -5.485878,-1.24131 -5.386145,-0.57681 -6.90218,0.92994 -6.792342,6.75072 0.04517,2.39365 0.82636,5.91254 3.26033,14.68618 1.76051,6.34605 3.200928,12.33818 3.200928,13.31584 0,2.21241 -1.117079,3.91799 -6.2024,9.46996 -2.660281,2.90439 -3.9397,4.01069 -4.160591,3.5976 -0.17544,-0.32809 -0.745874,-3.632 -1.267631,-7.34203 -3.156571,-22.44525 -3.84004,-38.30728 -2.286471,-53.06467 1.004334,-9.54019 2.819439,-13.4837 10.763295,-23.38443 3.216659,-4.00905 4.9526,-6.81254 4.9526,-7.99831 0,-0.71268 -1.54162,-2.20803 -3.115101,-3.0216 -1.501222,-0.7762 -5.423022,-0.67116 -8.096591,0.21685 -2.950711,0.98008 -6.147662,3.09267 -15.193977,10.0404 -4.150699,3.18781 -8.13638,6.17566 -8.857069,6.63966 l -1.310344,0.84363 0.300429,-2.55617 c 0.984021,-8.37249 5.933246,-18.00339 13.085915,-25.46444 6.567436,-6.85058 11.737735,-10.488 27.321905,-19.22159 12.498831,-7.00452 15.281951,-8.76397 16.285386,-10.29541 0.967666,-1.476841 0.916324,-3.950091 -0.10111,-4.870857 -1.755811,-1.588986 -3.052393,-1.356126 -15.394199,2.764678 l -11.938529,3.986159 -1.221015,-3.447143 c -0.722229,-2.038983 -3.085601,-6.46428 -5.785466,-10.833 C 30.334148,79.67688 25.703752,70.413138 23.677724,64.303168 18.763542,49.483286 18.464121,35.7919 22.7402,21.433629 l 0.959068,-3.22037 2.157193,1.258969 c 31.196577,18.206767 47.106059,27.832421 46.445854,28.100957 -0.418716,0.17031 -2.844086,0.937726 -5.38972,1.705368 -2.545629,0.767643 -5.024604,1.791899 -5.508832,2.276125 -1.218023,1.218023 -1.075536,2.9249 0.486432,5.827117 1.693964,3.147473 1.714052,5.159982 0.110505,11.072852 l -1.234532,4.552193 -3.993919,-3.388507 c -4.168782,-3.536873 -6.426398,-6.210186 -6.892774,-8.161954 -0.557098,-2.331436 -1.480784,-3.520322 -3.300866,-4.248575 -1.657655,-0.663262 -2.11636,-0.670475 -4.689458,-0.07373 -4.242727,0.983954 -8.51472,2.82637 -9.895688,4.267787 -0.737459,0.769743 -1.315704,1.971078 -1.457461,3.027955 -0.201026,1.498758 -0.03975,1.960965 1.115887,3.198082 0.767871,0.822008 1.806728,1.450379 2.407128,1.455991 2.421828,0.02266 5.026217,2.0028 14.99697,11.402424 11.370365,10.719063 13.541434,12.421832 15.838091,12.421832 1.750923,0 3.4069,-1.4978 4.149972,-3.75357 0.668143,-2.028303 2.373524,-12.549655 4.311725,-26.60122 0.921139,-6.678054 1.800291,-12.494333 1.95367,-12.925064 0.229037,-0.643189 1.849789,0.401592 9.068977,5.846108 4.834555,3.64609 9.943779,7.536841 11.353829,8.646113 5.793299,4.557545 4.918559,7.224813 -4.339593,13.232184 -2.01433,1.30705 -4.06715,2.833491 -4.561821,3.392096 -1.905818,2.152141 -0.453339,7.277145 2.494435,8.801499 1.942046,1.004272 3.518417,0.812299 6.961963,-0.847847 8.400735,-4.050022 15.601415,-12.453118 16.276545,-18.994508 0.37321,-3.615975 -1.15236,-6.340792 -6.30971,-11.269819 -6.02702,-5.760192 -18.919654,-17.174448 -21.730732,-19.2389 -1.672369,-1.228186 -2.241056,-1.883163 -1.851831,-2.132835 0.865669,-0.555294 48.402093,-16.291477 54.726853,-18.116463 21.38528,-6.17064 42.50686,-6.157701 67.25403,0.0412 5.9207,1.483071 46.18415,14.89831 53.86814,17.948135 0.63913,0.253673 -0.14273,1.01134 -3.82246,3.704206 -8.90108,6.513916 -20.31745,17.340289 -23.7502,22.522798 -2.40582,3.632119 -2.83657,7.97369 -1.12039,11.292422 1.6829,3.254348 12.21645,12.911142 16.64041,15.255333 2.28445,1.210495 3.33071,1.195866 5.21343,-0.0729 3.56478,-2.402305 4.58944,-6.232189 2.37232,-8.867089 -0.65453,-0.777869 -2.62759,-2.385454 -4.38458,-3.572408 -6.10915,-4.127127 -7.91637,-5.769496 -7.91637,-7.194278 0,-3.719244 12.88429,-14.844685 27.65659,-23.881159 4.68596,-2.866484 47.54053,-26.964931 47.95208,-26.964931 0.49843,0 2.02595,5.132051 3.12936,10.513739 2.9796,14.532604 0.25884,30.238295 -8.16413,47.127803 -2.48273,4.978303 -3.54872,6.792256 -9.5707,16.286087 -1.39519,2.199553 -2.8792,5.13385 -3.2978,6.520659 -0.41861,1.386804 -0.89816,2.686144 -1.06569,2.887404 -0.16752,0.20127 -2.70995,-0.6345 -5.64984,-1.85726 -10.46175,-4.35126 -18.14385,-6.417796 -20.39347,-5.485976 -1.24724,0.516625 -2.71496,2.773102 -2.71496,4.173991 0,1.643395 2.21944,3.159105 10.90923,7.450165 10.17048,5.02223 18.7496,10.45351 26.19107,16.5811 6.11567,5.03587 14.19301,13.24026 15.40518,15.64749 1.14303,2.26993 6.99807,19.5688 6.71809,19.84878 -0.11436,0.11436 -4.9329,-3.35403 -10.70786,-7.70755 -12.65646,-9.54121 -14.93783,-10.7869 -19.7134,-10.76405 -3.78324,0.0181 -6.03552,0.88515 -6.83026,2.62943 -0.62985,1.38237 0.20856,2.98535 4.16738,7.96766 8.59024,10.81109 12.0888,19.48084 12.08244,29.94135 -0.005,8.26421 -2.94351,51.70754 -3.61735,53.47987 -0.22276,0.58591 -0.58953,1.06529 -0.81503,1.06529 -0.22551,0 -2.6589,-2.33932 -5.40754,-5.19848 -3.87878,-4.03475 -4.99752,-5.47387 -4.99752,-6.42867 0,-0.67661 1.45851,-6.38131 3.24114,-12.67712 3.03927,-10.73397 3.24233,-11.73197 3.26033,-16.02338 0.0167,-3.99425 -0.10295,-4.73798 -0.94088,-5.84611 -0.88879,-1.17541 -1.17254,-1.26477 -3.82245,-1.20393 -1.99934,0.0459 -4.59049,0.6291 -8.59373,1.93422 -7.57744,2.47036 -10.99301,3.1544 -15.79752,3.16381 l -3.99053,0.008 0.21875,-6.63308 c 0.18479,-5.60389 0.5539,-8.27281 2.37887,-17.20105 2.49051,-12.18426 2.84848,-17.42891 1.38994,-20.3645 -0.46507,-0.93606 -1.20397,-1.89373 -1.642,-2.12815 -1.75028,-0.93672 -6.61651,1.7437 -15.95013,8.78564 -6.80326,5.13287 -10.74323,7.29524 -15.86521,8.70728 -4.14582,1.14294 -13.27639,2.03818 -17.52058,1.71788 -12.58121,-0.94949 -18.37312,-13.14312 -13.9665,-29.40348 1.3035,-4.80991 1.44175,-5.93333 1.45648,-11.83503 0.019,-7.62849 -0.54492,-10.26045 -3.51701,-16.41407 -3.68172,-7.62288 -7.45517,-11.571434 -10.36124,-10.842056 -1.76289,0.442456 -4.68049,3.294506 -5.16489,5.048856 -0.54579,1.97669 -0.11832,3.39766 2.15705,7.17027 3.40997,5.65381 4.8794,11.35231 4.39006,17.02486 -0.15105,1.75104 -0.99807,6.62391 -1.88226,10.82861 -1.30136,6.18855 -1.61437,8.67293 -1.64309,13.04132 -0.0545,8.29594 0.87308,10.08966 8.65757,16.74094 5.03172,4.29924 7.69615,7.38281 11.79185,13.64687 1.48488,2.271 5.5918,7.12103 9.99331,11.8015 4.13716,4.39937 7.33878,8.16229 7.173,8.43054 -0.1647,0.26648 -1.59407,1.10292 -3.17639,1.85874 -2.98151,1.42419 -3.56625,2.37723 -2.16969,3.53627 0.57707,0.47892 1.32422,0.48329 4.05924,0.0237 3.02991,-0.50911 3.51203,-0.48461 5.01748,0.25507 0.91601,0.45007 2.35492,1.72896 3.19756,2.84197 l 1.53209,2.02365 -2.87223,0.25877 c -2.46261,0.22185 -5.79528,1.36182 -5.79528,1.98231 0,0.10689 0.87021,0.70433 1.9338,1.32763 1.68815,0.98932 2.39032,1.12026 5.52755,1.03078 2.84968,-0.0813 3.85463,0.0683 4.85377,0.72241 1.21987,0.79861 2.58458,3.26383 3.21533,5.80818 l 0.30658,1.23667 h -9.07233 c -8.91635,0 -10.812,0.26422 -10.812,1.50697 0,0.31675 0.77472,1.01134 1.72161,1.54352 1.52746,0.85848 2.69387,1.0025 10.34311,1.27713 l 8.6215,0.30953 v 3.45531 3.4553 l -15.15446,0.30796 c -13.2079,0.2684 -15.32608,0.40817 -16.4904,1.08817 -1.79709,1.04956 -1.89468,1.6191 -0.40795,2.38087 0.98825,0.50636 4.36349,0.66773 16.20087,0.77454 8.2239,0.0742 14.95254,0.29044 14.95254,0.4805 0,0.85053 -1.49396,5.25856 -2.09108,6.16989 -0.36359,0.55491 -1.00308,1.16708 -1.42107,1.36038 -0.41801,0.1933 -3.83116,0.36207 -7.5848,0.37504 -6.21669,0.0215 -6.93794,0.10796 -8.09461,0.97064 -1.63296,1.2179 -1.83064,2.23107 -0.50461,2.58626 0.56848,0.15226 3.46198,0.28893 6.43001,0.30371 l 5.3964,0.0268 -3.65378,3.46446 c -5.81966,5.51813 -14.22891,10.00289 -21.7433,11.59598 -3.67116,0.77831 -9.70178,0.75663 -13.4082,-0.0482 z m 39.98058,-112.63815 c 3.66756,-0.68006 8.3584,-3.20925 12.26205,-6.61141 8.28302,-7.21893 9.89162,-8.03977 17.14229,-8.74752 5.8104,-0.56716 7.32432,-0.98318 9.61414,-2.64191 2.99909,-2.17253 4.79801,-5.83763 4.23845,-8.63541 -0.40968,-2.04841 -3.28414,-4.84334 -4.98115,-4.84334 -1.61623,0 -3.021,1.50076 -3.49249,3.73115 -0.35239,1.66698 -1.84345,3.46482 -2.87156,3.46238 -1.53504,-0.004 -3.67693,-1.90627 -5.91805,-5.25696 -3.16909,-4.73808 -9.32091,-10.78581 -13.14921,-12.92672 -5.65463,-3.16224 -8.77781,-3.99137 -15.14402,-4.02033 -8.90446,-0.0405 -13.84508,1.82201 -18.7544,7.07009 -2.97143,3.17648 -5.35644,7.4182 -7.11962,12.66225 -1.65701,4.92827 -1.42483,8.26389 0.80745,11.60015 2.3231,3.47199 4.9244,6.25386 8.65184,9.25244 6.63075,5.33416 12.24303,7.10507 18.71428,5.90514 z m -123.26901,-2.54364 c 4.2785,-1.18423 7.63659,-3.29484 11.69473,-7.35032 6.75169,-6.74725 8.09446,-9.60197 7.26505,-15.44541 -1.2971,-9.13834 -9.24376,-19.05612 -17.20681,-21.47482 -4.40956,-1.33936 -12.59912,-1.05543 -17.267638,0.59866 -7.56216,2.67933 -11.628223,5.65555 -17.1831,12.57746 -4.695886,5.85152 -6.142788,7.30562 -7.948408,7.98793 -1.92846,0.72873 -3.175997,-0.29956 -4.175875,-3.44198 -1.081161,-3.39788 -2.462263,-4.30069 -4.842628,-3.16557 -0.884039,0.42157 -2.022681,1.42679 -2.530312,2.23382 -1.994229,3.17041 0.163911,8.98748 4.081042,11.00008 1.445203,0.74253 3.361881,1.16518 6.738772,1.48599 8.182302,0.77731 12.120151,2.64333 19.339851,9.16451 4.009391,3.62148 7.844127,5.8546 11.242516,6.54698 2.52934,0.51532 7.5434,0.18207 10.79281,-0.71733 z M 282.06553,90.373976 c 1.78598,-0.847502 5.73752,-4.204494 15.21928,-12.929383 5.41468,-4.982448 8.06735,-7.081817 10.74635,-8.504832 1.95638,-1.039172 3.96362,-2.435214 4.46055,-3.102322 0.83446,-1.120222 0.85411,-1.34268 0.25724,-2.910903 -1.76123,-4.627492 -12.75862,-8.463945 -16.42436,-5.729664 -0.75737,0.564916 -1.66067,1.998903 -2.26621,3.597607 -0.86945,2.295442 -1.69952,3.314824 -6.08147,7.468461 -5.83706,5.532922 -5.21576,5.716103 -6.68654,-1.97147 -1.06539,-5.568602 -0.96596,-7.770442 0.44005,-9.745014 1.17496,-1.650068 1.20156,-3.460288 0.0779,-5.303014 -1.07828,-1.768373 -4.83923,-3.270567 -9.07801,-3.625931 -2.62868,-0.220379 -3.0878,-0.137536 -3.93544,0.710094 -0.53284,0.532841 -0.95958,1.532261 -0.95958,2.24733 0,1.417776 1.75993,11.454143 4.51422,25.743257 2.77612,14.402368 3.26952,15.549329 6.46888,15.037732 0.97703,-0.156235 2.43823,-0.598111 3.24711,-0.981948 z m -87.89297,-4.258341 c 1.8288,-0.466843 7.82438,-4.721398 20.01206,-14.20087 9.98938,-7.769644 11.82855,-9.496094 11.82855,-11.103571 0,-2.867234 -3.64496,-4.31721 -6.9024,-2.745795 -0.77938,0.375981 -5.66673,4.152539 -10.86077,8.392348 -13.68706,11.172519 -15.71448,12.336551 -19.42024,11.150047 -0.94363,-0.302127 -3.33461,-1.529823 -5.3133,-2.728216 -4.71042,-2.852878 -6.84706,-3.557064 -10.79281,-3.557064 -3.73916,0 -4.83232,0.335683 -12.20687,3.748456 -6.83028,3.160901 -8.83498,3.688391 -11.39633,2.998689 -2.03299,-0.547425 -2.88524,-1.326486 -12.39318,-11.328924 -4.11244,-4.326327 -4.89843,-4.934448 -8.76916,-6.784705 -5.60793,-2.680664 -6.25747,-2.802625 -8.12899,-1.526346 -1.28312,0.875031 -1.5115,1.290878 -1.46942,2.675673 0.0725,2.387563 1.16042,3.72826 3.71321,4.576162 3.6844,1.223761 6.83192,3.877957 11.6867,9.855013 2.4985,3.076073 5.37956,6.30916 6.40235,7.184628 5.85343,5.010321 12.04303,5.027922 23.604,0.06712 3.80497,-1.632705 5.63759,-2.160969 8.14073,-2.34661 l 3.23034,-0.239577 6.88101,3.451672 c 7.39128,3.707633 7.3261,3.69443 12.15452,2.461868 z M 191.51019,49.84931 c 6.283,-3.285515 7.52094,-4.392864 7.52094,-6.727556 0,-2.709849 -0.83343,-3.503781 -3.67378,-3.499625 -1.91523,0.0028 -2.79742,0.274036 -4.38798,1.349102 -1.68546,1.139207 -2.40971,1.341918 -4.72186,1.321626 -2.30912,-0.02026 -3.46054,-0.367642 -7.4529,-2.248503 -4.56726,-2.151698 -4.85438,-2.224534 -8.76916,-2.224534 -3.64645,0 -4.45436,0.167025 -8.15717,1.686377 -4.71509,1.934715 -6.23654,2.048165 -10.16642,0.758077 l -2.82779,-0.9283 -2.12836,0.912319 c -2.3447,1.005057 -2.58527,1.678388 -1.51494,4.240051 2.14902,5.143336 10.45191,6.73056 18.34893,3.507677 4.61835,-1.88481 7.43499,-1.893569 11.66666,-0.03628 2.95847,1.29848 10.76751,4.422966 11.14364,4.458692 0.0964,0.0092 2.40052,-1.146947 5.12019,-2.569126 z"
     id="path3767"
     inkscape:connector-curvature="0" /><path
     style="fill:#ffffff;stroke-width:0.44970059"
     d="m 248.83512,259.20612 c -2.22536,-0.59103 -4.38423,-2.63051 -4.38423,-4.14178 0,-0.64568 1.62084,-4.41087 3.60186,-8.3671 5.11129,-10.20755 5.97853,-12.95626 6.02739,-19.10377 0.0809,-10.17362 -3.33252,-16.82784 -16.59961,-32.36014 -11.73434,-13.73787 -13.54672,-16.36981 -13.05978,-18.96543 0.16661,-0.88811 0.80511,-2.11692 1.41888,-2.7307 0.98936,-0.98936 1.38135,-1.08696 3.45538,-0.86032 6.58116,0.71914 9.73677,0.79615 12.14425,0.29636 3.65027,-0.7578 8.46336,-3.3012 11.46085,-6.05631 3.68852,-3.39026 7.34915,-4.3699 9.57974,-2.56368 1.35755,1.09928 1.29411,3.07241 -0.20673,6.42925 -2.17519,4.86511 -2.71276,7.76619 -2.73579,14.76396 -0.0165,5.00898 0.23057,7.91656 1.06571,12.54186 l 1.08718,6.02119 4.53408,-0.31281 c 15.21785,-1.0499 18.35416,-1.13014 19.84389,-0.50769 3.13738,1.31088 3.20417,3.60245 0.22272,7.64134 -4.8422,6.55959 -7.50995,12.808 -10.374,24.29789 -3.75469,15.06301 -5.48333,18.02265 -12.62796,21.62063 -5.02694,2.53152 -10.4609,3.41774 -14.45383,2.35725 z"
     id="path3769"
     inkscape:connector-curvature="0" /><path
     style="fill:#ffffff;stroke-width:0.44970059"
     d="m 86.685266,259.73789 c -2.625898,-0.54688 -6.523201,-2.3746 -8.642335,-4.05298 -2.067241,-1.63729 -5.211584,-6.31344 -6.847645,-10.18358 -0.645989,-1.5281 -2.099308,-5.9425 -3.229597,-9.80977 -3.509763,-12.00863 -6.506496,-18.81001 -10.968949,-24.89511 -3.30426,-4.50576 -3.663713,-5.15284 -3.666229,-6.59978 -0.0031,-1.76059 0.932668,-3.06142 2.860095,-3.97604 1.335291,-0.63364 2.174913,-0.66954 6.198945,-0.26502 2.559953,0.25733 7.004142,0.86431 9.875975,1.34883 5.467857,0.92251 8.382072,1.09228 9.214007,0.53678 1.130376,-0.75477 1.604844,-2.75809 2.47934,-10.46841 l 0.920721,-8.11786 -1.137644,-4.36308 c -2.41058,-9.24502 -2.849382,-13.57125 -1.545073,-15.23316 0.646075,-0.82321 3.750254,-1.1873 4.937569,-0.57913 0.575021,0.29453 1.956136,1.41069 3.069145,2.48034 2.737493,2.63086 6.782324,4.98995 10.492929,6.11984 2.64148,0.80434 3.77784,0.89721 8.09461,0.6615 2.76196,-0.15081 5.76902,-0.39879 6.68237,-0.55105 2.23639,-0.37284 3.96063,1.23237 3.96063,3.68721 0,2.11693 -2.70628,6.22879 -14.28804,21.70889 -9.044527,12.08887 -12.019227,16.61993 -13.953281,21.25363 -1.052491,2.52161 -1.194031,3.46597 -1.203423,8.02928 -0.01333,6.47543 0.45656,7.93923 5.413391,16.86377 5.273743,9.49511 6.600283,12.4574 6.233323,13.9195 -0.54311,2.1639 -2.065281,2.71024 -7.814813,2.80488 -2.855406,0.047 -6.066616,-0.0968 -7.136021,-0.31948 z"
     id="path3771"
     inkscape:connector-curvature="0" /><path
     style="fill:#ffffff;stroke-width:0.44970059"
     d="m 103.09338,144.45047 c -1.44369,-0.60899 -2.96143,-1.38855 -3.372757,-1.73236 -5.125796,-4.28444 -13.078677,-11.01491 -13.754901,-11.64067 -0.849099,-0.78574 -0.833127,-0.84884 0.862676,-3.40813 3.914977,-5.90847 9.384902,-10.00529 15.517112,-11.62191 3.40504,-0.89766 9.95668,-1.03294 11.91706,-0.24607 4.12611,1.65616 7.02348,5.17385 9.21226,11.18458 2.15741,5.92459 2.13278,6.00836 -3.28783,11.1821 -7.46383,7.12388 -11.54394,8.62345 -17.09362,6.28246 z m 5.66953,-5.6009 c 3.03248,-1.99959 4.599,-5.85095 4.29862,-10.56833 -0.54127,-8.50048 -8.48113,-8.72826 -12.1874,-0.34962 -1.548334,3.50027 -0.49082,9.28589 2.01857,11.04353 1.35076,0.94611 4.34199,0.88212 5.87021,-0.12558 z"
     id="path3773"
     inkscape:connector-curvature="0" /><path
     style="fill:#ffffff;stroke-width:0.44970059"
     d="m 228.71137,145.55228 c -3.97317,-1.21296 -8.29258,-4.9223 -10.53977,-9.05114 -1.08377,-1.99123 -1.23152,-2.67348 -1.02093,-4.71396 0.35289,-3.41916 1.71753,-6.14857 4.56857,-9.13759 3.39229,-3.55646 6.65679,-5.14406 11.03944,-5.36871 8.2198,-0.42136 16.69319,4.10144 21.72737,11.59731 0.91138,1.35704 1.65706,2.60675 1.65706,2.77714 0,0.31706 -8.08476,7.20139 -12.41635,10.57275 -3.36283,2.61736 -6.62837,3.75398 -10.64768,3.70608 -1.7839,-0.0213 -3.74937,-0.1931 -4.36771,-0.38188 z m 10.02828,-4.86582 c 0.69252,-0.43153 2.23707,-2.19369 3.43235,-3.9159 l 2.17324,-3.1313 -2.61425,-3.83906 c -4.15771,-6.10569 -4.52801,-6.47307 -6.4515,-6.40076 -3.79093,0.14251 -5.76305,2.2703 -6.02578,6.50142 -0.2215,3.56726 1.10559,7.30813 3.47692,9.80092 1.92418,2.02273 3.83951,2.33659 6.00902,0.98468 z"
     id="path3775"
     inkscape:connector-curvature="0" /><path
     style="fill:#ffffff;stroke-width:0.44970059"
     d="m 170.8967,247.46175 c -1.99944,-1.14496 -4.27606,-3.17725 -6.26328,-5.59111 -1.95526,-2.37504 -2.05909,-2.63446 -1.74256,-4.35404 0.70624,-3.83678 -0.10114,-6.84064 -2.81019,-10.45525 -0.59009,-0.78734 -1.07289,-1.53902 -1.07289,-1.6704 0,-0.13138 0.91521,0.15343 2.0338,0.63292 5.59433,2.398 12.33719,2.71951 17.87933,0.8525 1.47228,-0.49598 2.75677,-0.82188 2.85442,-0.72424 0.35297,0.35297 -0.82668,7.34201 -1.62227,9.61143 -1.05449,3.00795 -2.96218,5.82573 -8.07211,11.92304 -0.14119,0.16846 -0.6741,0.0673 -1.18425,-0.22485 z"
     id="path3777"
     inkscape:connector-curvature="0" /><path
     style="fill:#ffffff;stroke-width:0.44970059"
     d="m 149.78892,223.11031 -4.94671,-0.52466 2.02366,-0.97139 c 2.50902,-1.20439 3.61829,-1.22829 5.78168,-0.12462 1.60208,0.81732 3.332,2.36099 2.48042,2.21336 -0.21579,-0.0374 -2.61836,-0.30412 -5.33905,-0.59269 z"
     id="path3779"
     inkscape:connector-curvature="0" /><path
     style="fill:#ffffff;stroke-width:0.44970059"
     d="m 187.30883,223.13819 c 0.35446,-0.43011 1.44326,-1.18953 2.41956,-1.6876 2.00949,-1.02516 3.91917,-0.86715 5.65501,0.4679 l 1.07412,0.82612 -3.77232,0.31881 c -2.07478,0.17535 -4.27824,0.43986 -4.89658,0.5878 -1.02491,0.24521 -1.0673,0.19988 -0.47979,-0.51303 z"
     id="path3781"
     inkscape:connector-curvature="0" /></svg>